<?xml version="1.0" standalone="no"?>
<!DOCTYPE svg PUBLIC "-//W3C//DTD SVG 1.1//EN" "http://www.w3.org/Graphics/SVG/1.1/DTD/svg11.dtd" >
<svg xmlns="http://www.w3.org/2000/svg" xmlns:xlink="http://www.w3.org/1999/xlink" version="1.1">
<metadata>
Created by FontForge 20161013 at Thu Apr 19 03:27:15 2007
 By ,,,
Typeface (c) (your company). 2007. All Rights Reserved
</metadata>
<defs>
<font id="Mia'sScribblings~" horiz-adv-x="1139" >
  <font-face 
    font-family="Mia's Scribblings ~"
    font-weight="400"
    font-stretch="normal"
    units-per-em="2048"
    panose-1="2 0 0 0 0 0 0 0 0 0"
    ascent="1638"
    descent="-410"
    x-height="996"
    cap-height="1858"
    bbox="-7 -433 2157 1895"
    underline-thickness="150"
    underline-position="-442"
    unicode-range="U+0020-F005"
  />
<missing-glyph horiz-adv-x="1536" 
d="M1166 1278q77 -67 109 -155l6 -957l-30 -53v-12q24 0 24 -24q-7 -29 -48 -29l-254 11q-282 0 -478 -23h-169q0 -36 -19 -36l-36 53l-6 48l30 36v23q-24 0 -24 18v945q-24 0 -24 18l18 18v54l12 17l6 -5h18q0 35 19 35l12 -30h96q87 0 218 -23h115l85 -6l181 35h115
q0 36 24 42zM1027 1207q0 -21 67 -36l18 6v30h-85zM332 1183v-18l121 6h139q0 30 -170 30h-72zM1172 1165v-6q24 -21 24 -41l-18 -48q61 -153 61 -589v-291h12v6l-6 922q-25 22 -43 71h-6zM852 1141h-139l-146 -12h-223v-11h42l97 -12h363l145 -12l133 6v12h6q0 26 -115 47
l-6 6h-6zM338 1088v-678l-12 -190v-83h36l-6 368v404q0 58 24 161v18h-42zM410 1082v-24q-24 -95 -24 -154v-381l6 -386h381q352 41 393 77l-24 844v12l-169 -6l-133 12h-369zM1172 915q24 -494 24 -707h12v6q0 701 -24 701h-12zM1003 131h6l157 -12v53l-163 -35v-6z
M1196 155v-30l12 12v18h-12zM326 95v-12h42v12l-12 12h-18zM386 95v-12h6q79 9 79 24h-73zM531 77v-6h18q118 18 484 18l67 -6q0 18 -109 18h-91l-266 6z" />
    <glyph glyph-name=".notdef" horiz-adv-x="1536" 
d="M1166 1278q77 -67 109 -155l6 -957l-30 -53v-12q24 0 24 -24q-7 -29 -48 -29l-254 11q-282 0 -478 -23h-169q0 -36 -19 -36l-36 53l-6 48l30 36v23q-24 0 -24 18v945q-24 0 -24 18l18 18v54l12 17l6 -5h18q0 35 19 35l12 -30h96q87 0 218 -23h115l85 -6l181 35h115
q0 36 24 42zM1027 1207q0 -21 67 -36l18 6v30h-85zM332 1183v-18l121 6h139q0 30 -170 30h-72zM1172 1165v-6q24 -21 24 -41l-18 -48q61 -153 61 -589v-291h12v6l-6 922q-25 22 -43 71h-6zM852 1141h-139l-146 -12h-223v-11h42l97 -12h363l145 -12l133 6v12h6q0 26 -115 47
l-6 6h-6zM338 1088v-678l-12 -190v-83h36l-6 368v404q0 58 24 161v18h-42zM410 1082v-24q-24 -95 -24 -154v-381l6 -386h381q352 41 393 77l-24 844v12l-169 -6l-133 12h-369zM1172 915q24 -494 24 -707h12v6q0 701 -24 701h-12zM1003 131h6l157 -12v53l-163 -35v-6z
M1196 155v-30l12 12v18h-12zM326 95v-12h42v12l-12 12h-18zM386 95v-12h6q79 9 79 24h-73zM531 77v-6h18q118 18 484 18l67 -6q0 18 -109 18h-91l-266 6z" />
    <glyph glyph-name=".null" horiz-adv-x="0" 
 />
    <glyph glyph-name="nonmarkingreturn" horiz-adv-x="569" 
 />
    <glyph glyph-name="space" unicode=" " horiz-adv-x="831" 
 />
    <glyph glyph-name="space" unicode="&#xa0;" horiz-adv-x="831" 
 />
    <glyph glyph-name="exclam" unicode="!" horiz-adv-x="569" 
d="M262 1858l34 -27l100 20l46 -34h7l7 7q20 0 20 -20q93 -110 93 -142q0 -154 -60 -297q-53 -129 -80 -392q-19 -111 -194 -385h-13q0 -34 -27 -40q-14 5 -33 202q-42 65 -73 331v304q0 308 126 432q16 41 47 41zM309 1797v-7l20 -27v-499q76 113 147 175l26 47v95
q-37 147 -120 230zM209 1736v-6l-34 -331v-331q0 -264 34 -264q33 124 33 196v453q0 69 40 196q-5 141 -27 141h-6zM522 1669l-6 -7v-7l13 -13h7v13zM122 1378v-310q4 -41 20 -41v358q0 97 27 243v14q-47 -33 -47 -264zM275 1473v-405l14 13v405zM329 1027v-108l-13 -101h6
q71 59 107 412q15 0 20 108h-13q-107 -116 -107 -311zM262 865v-40q20 4 20 54v6zM349 440l13 -21v-162q7 -20 40 -20l54 27l13 -20q0 -18 -113 -102v-81l-14 -20q-13 0 -53 54h-14q-35 -9 -100 -74l-26 -7l-14 20v41q0 44 54 108v13q-38 54 -160 122l-7 7v6q0 17 27 21
l180 -61l33 -7q32 32 74 149l6 7h7zM309 284v-27h20v27h-20zM255 196q10 -33 47 -33l20 20v34q-33 0 -33 13q-18 0 -34 -34zM222 156l-33 -47h13q40 6 40 20v20z" />
    <glyph glyph-name="quotedbl" unicode="&#x22;" horiz-adv-x="727" 
d="M572 1847q109 0 147 -104q0 -225 -125 -500q0 -95 -45 -95h-34q-102 62 -102 129v112l-23 372q0 36 182 86zM197 1838q110 0 148 -103q0 -226 -125 -501q0 -95 -45 -95h-34q-102 62 -102 130v112l-23 371q0 36 181 86zM583 1812v-25l23 -18h11l23 18l-34 25h-23z
M209 1804v-26l22 -17h12l22 17l-34 26h-22zM458 1761v-87l23 -397h11q57 22 57 69v138l34 242l-45 69h-34zM84 1752v-86l23 -397h11q57 22 57 69v138l34 241l-46 70h-34zM640 1735l-12 -43v-104q34 9 34 52v95h-22zM265 1726l-11 -43v-104q34 9 34 52v95h-23zM492 1217
q8 -26 46 -35l11 9v60h-11zM118 1208q11 -28 45 -34l12 8v61h-12z" />
    <glyph glyph-name="numbersign" unicode="#" 
d="M368 1858h11q0 -72 54 -120l17 -88v-377h27q235 31 248 80q12 385 43 385q15 0 33 24h11q11 0 11 -24l6 -8h11v8l-17 80v8h6q33 -28 33 -128v-353h66l33 -16l66 8q27 0 33 -72q49 -23 66 -48v-16q-51 0 -160 -65h-104v-256h22q110 0 220 -64v-32l-17 -32v-16
q0 -16 55 -41v-32q0 -29 -93 -56h-83l-110 -64v-8l-5 -200l-77 -321h-11q0 32 -33 32l-11 112v97l-11 64v224q0 14 -165 72h-93l-66 -449q0 -53 -44 -144h-16l-6 40v233h-11l-33 -169h-11l-5 40v24q27 319 27 433h6q-6 32 -28 32l-159 -8l-17 8v16q0 19 77 81v8h-55l-60 -8
l-17 8v16l105 16h159v288l-121 8h-11l-27 8v16l27 8l132 -8v73h-148l-132 24v16q3 24 44 24h82q84 0 154 24v120q12 345 39 345q23 0 33 120zM384 1746v-473h44v393q0 42 -33 80h-11zM796 1714q-33 -290 -33 -369h49l28 168v112l-22 89h-22zM335 1674v-24l11 16v24z
M329 1609v-32l11 16v32zM318 1481v-136l11 16v136zM763 1313v-16h27v16h-27zM867 1313v-16h66v16h-66zM917 1265h-55v-80q170 18 170 40v16q-22 48 -55 48h-5zM505 1217h66l154 -24v72h-94q-126 -36 -126 -48zM752 1265v-80h33l5 80h-38zM807 1217v-32h33v80h-17
q-16 -8 -16 -48zM384 1185v-73h38l11 16v16l-5 41h-44zM455 1185v-16h-5l5 -33q28 0 66 49h-66zM455 1096l6 -96v-208h27q101 56 220 80q17 156 17 280h-39q-193 0 -231 -56zM752 1152v-272h27v128l6 136l-27 8h-6zM807 1136l-6 -80v-176h39v256h-33zM384 1080v-96l-11 -192
h66v248l-6 40h-49zM752 848v-40h27v40h-27zM801 848v-40h39v40h-39zM862 848v-40l110 -8h44v16q0 32 -110 32h-44zM532 768h110l66 24v48h-5q-165 -32 -171 -72zM1010 760l39 -8l11 16v16h-17q-33 -5 -33 -24zM752 776v-32h16l11 16v16h-27zM801 776v-24h6l27 8v16h-33z
M867 776v-16h44l-11 16h-33zM626 736h-55q0 -22 99 -41l38 25v32h-5zM148 695v-8l148 16v33q-148 -6 -148 -41zM801 720v-25h39v33h-11zM862 728v-33h22q115 7 115 33h-137zM1054 712l-49 -65v-8h71l33 32q0 18 -55 41zM466 687v-16l105 -24l5 8v16l-82 16h-28zM873 663h-11
v-24h82q29 0 33 24v16zM801 647l6 -8h33v24h-28zM598 631q56 -40 105 -40h5v32q0 24 -71 24h-28zM373 631v-192l11 -80q14 0 44 224l-6 32zM307 623v-8q0 -117 -16 -272q27 37 27 128v152h-11zM752 623v-40h27v40h-27zM801 607v-24h39v24h-39zM862 607v-24q28 0 33 24h-33z
M752 551l16 -296l11 16v280h-27zM801 551v-304h6q27 69 27 304h-33zM340 463v-337h11l11 72v161l-11 120zM730 415v-112l11 -16h6l-6 40v72zM741 198v-72h11v56z" />
    <glyph glyph-name="dollar" unicode="$" 
d="M477 1858h15l8 -34v-103h8q15 0 15 21h16l7 -28h23l116 -47h8v34l7 34h16l7 -34v-48l16 -14h15v96l8 34h15l8 -34v-123q63 -57 200 -137v-7h-23q-23 21 -177 55v-82q0 -280 54 -280q292 -194 292 -280l8 -89q0 -308 -92 -362q-133 -198 -247 -198v-171q-3 -55 -61 -55
l-23 14l7 20q-23 7 -23 41v151h-7l-154 27v-123l-16 -96h-31v7l8 41q-8 55 -46 55l-8 34v109q-189 54 -331 260q-92 142 -92 212q8 116 31 116l38 -55h16q0 28 30 41h8q25 0 139 -287q96 -112 138 -136h16v20l-16 109v479l8 184q-254 106 -254 192q28 232 92 232
q80 54 139 61v82l8 35h15l8 -35v-82h30v110zM500 1667h23v13h-7zM269 1591q93 55 131 55v21q-131 -21 -131 -76zM585 1653v-7l100 -34h8v7q-44 34 -100 34h-8zM500 1632v-20h31v20h-31zM562 1619v-7q93 -40 123 -68h15v20q-85 55 -131 55h-7zM246 1475q0 -120 170 -164h15
v123l-8 151h-15v6q-162 -31 -162 -116zM500 1585v-301l16 -14h15v315h-31zM562 1571v-308q10 -24 131 -34l7 69v198q-64 75 -138 75zM731 1530v-178l-8 -136h23v314h-15zM500 1202v-41l-23 -150v-226q0 -109 23 -109v198q31 151 31 273v41l-15 14h-16zM562 1175v-14
q0 -119 -31 -280v-479h162l-16 212l8 513l-100 48h-23zM716 1106l-8 -526l8 -130l15 14v68l15 513v48l-15 13h-15zM800 1072v-649h23q224 121 224 225v89q-79 301 -162 301q-46 34 -77 34h-8zM1077 929v-28l24 -20v27zM1047 888v-14q41 -137 54 -137v21l-47 123v7h-7z
M138 819l-15 -61v-7q0 -110 162 -246l23 -7q-56 70 -154 321h-16zM54 799v-62q0 -72 115 -205h8q-79 138 -108 267h-15zM1077 676v-41h8q16 0 16 20l-8 21h-16zM192 512v-14q82 -130 154 -130q0 14 -154 144zM800 327v-68h8q96 0 239 212v13h-16q-131 -109 -208 -109
q-23 -25 -23 -48zM354 450l31 -27v7l-23 20h-8zM754 437v-28h16v41zM531 375v-34h15q114 7 124 34h-139zM539 314v-7q0 -24 84 -34h54l23 20v48zM754 293v-27h16v27h-16zM492 259v-55l16 -13v68h-16zM754 225v-123l-8 -69l24 7v185h-16z" />
    <glyph glyph-name="percent" unicode="%" horiz-adv-x="1821" 
d="M505 1858l20 -26v-208q10 -26 60 -26l81 35l20 -26q0 -23 -171 -130v-104l-20 -26q-20 0 -80 69h-21q-53 -12 -150 -95l-40 -9l-20 26v52q0 58 80 139v17q-57 69 -241 156l-10 9v8q0 22 40 26l271 -78l50 -8q48 40 111 190l10 9h10zM1649 1754h10v-17l-180 -174h10
q231 114 271 148q30 -9 30 -52v-78q-53 -196 -341 -381q-66 0 -322 -269q-1 -42 -582 -528q-179 -98 -291 -303q-64 -87 -80 -87h-20q-121 85 -121 217q0 86 201 138q18 40 251 251l221 278q64 46 371 389zM445 1659v-35h30v35h-30zM1639 1598q-324 -257 -371 -381
l-472 -424v-26q309 260 402 294l461 528l-10 9h-10zM1720 1598q-216 -246 -281 -355v-9h10q207 141 301 312v52h-30zM364 1546q14 -43 71 -43l30 26v43q-50 0 -50 17q-27 0 -51 -43zM314 1494l-50 -60h20q60 8 60 26v26zM957 992h10q181 108 411 424l61 61h-31
q-213 -138 -451 -468v-17zM605 680q226 179 402 459v9q-17 0 -331 -338l-81 -130h10zM696 628v-17h10q331 217 331 303q-35 -4 -341 -286zM545 628v-9l20 18v8zM1639 567l20 -26v-208q10 -25 61 -25l80 34l20 -26q0 -23 -171 -130v-104l-20 -26q-19 0 -80 70h-20
q-54 -12 -151 -96l-40 -8l-20 26v52q0 57 80 138v18q-56 69 -241 155l-10 9v9q0 21 41 26l271 -78l50 -9q47 41 110 191l10 8h10zM405 489h10l50 44v8h-10zM334 429h10l30 26v8zM284 299h10l131 95v9h-10q-121 -72 -131 -104zM1579 368v-35h30v35h-30zM73 230v-18h10l111 87
v17h-30q-91 -38 -91 -86zM1499 256q14 -44 70 -44l30 26v44q-50 0 -50 17q-27 0 -50 -43zM154 160h-21l-30 18h-20v-9q0 -45 71 -121q33 0 160 208h-20zM1449 204l-51 -61h20q61 9 61 26v26z" />
    <glyph glyph-name="ampersand" unicode="&#x26;" horiz-adv-x="1366" 
d="M970 1583h6q27 -11 27 -35v-224l-5 -22h-6q-12 0 -22 44h-65q-49 -18 -202 -31q0 -12 -170 -30q-81 -91 -81 -115v-4q186 -153 262 -153l196 -5l17 -4v-9q0 -9 -115 -26l-11 -9l5 -5v-13h-10v-4q-27 13 -71 13h-44q-109 0 -197 -123q-32 -13 -32 -39v-132
q49 -149 180 -149h87l158 35q51 57 82 57h6l22 -44v-88l-11 -35v-105l-6 -22h-22q-8 0 -21 35h-6l-22 -22q-27 6 -27 31v44l33 123h-28l-120 -53l-27 -4h-137q-33 0 -212 65q-22 15 -39 106q-10 0 -27 57v39q0 87 224 224l44 35v5h-131q-110 19 -110 79v39l-11 48v13
q0 75 115 167q145 49 235 49h224zM943 1394v-8h22l-6 21zM386 1249h5q62 32 126 49q56 52 71 52v5h-16q-117 -19 -159 -62l-27 -39v-5zM599 1315v-4h5q61 0 126 31q-123 -7 -131 -27zM419 1206v-5l11 -9q18 0 49 66h-6q-9 0 -54 -52zM353 1179v-9h6q8 0 27 31l-5 31
q-14 0 -28 -53zM364 1122l38 -26h17v26l11 35q-8 18 -28 27q-38 -25 -38 -62zM441 1140v-31q0 -50 191 -96q-163 127 -191 127zM364 1092v-36q22 -32 60 -48h98v5l-147 79h-11zM604 969h44l11 8l-5 5h-17q-33 -3 -33 -13zM555 934h6l11 8h-6zM506 894v-4l44 35v4h-6z
M337 745v-62l11 -30h11q21 83 103 202l6 17v4h-6q-102 -64 -125 -131zM413 754q-38 -107 -38 -136q11 -33 109 -106h38l11 9q-103 70 -103 154v79h-17zM375 578v-4q0 -34 49 -49v9l-43 44h-6zM544 495q9 -18 39 -18h10l11 9l-43 9h-17zM927 438v-14l5 -21h5q17 28 17 57v22
q-27 -7 -27 -44zM894 416v-62h16l6 22l-11 48zM943 367v-17h11v17h-11z" />
    <glyph glyph-name="quotesingle" unicode="'" horiz-adv-x="391" 
d="M181 1851q105 0 141 -108q0 -234 -119 -520q0 -99 -43 -99h-33q-97 65 -97 135v116l-22 386q0 38 173 90zM192 1815v-27l22 -18h11l21 18l-32 27h-22zM73 1761v-90l22 -412h10q55 23 55 71v144l32 251l-43 72h-33zM246 1734l-11 -45v-107q33 9 33 54v98h-22zM105 1196
q11 -30 44 -36l11 9v63h-11z" />
    <glyph glyph-name="parenleft" unicode="(" horiz-adv-x="682" 
d="M561 1858h40v-7q0 -13 -24 -13v-27h8l32 7l25 -7v-14q-97 -76 -113 -181q-145 -147 -251 -411q-34 0 -40 -215q40 -392 105 -471l282 -424q57 -14 57 -27l-32 -54l-49 -7l-193 188q0 20 -210 216q-170 222 -170 532v6l8 95q-24 40 -24 127v34q0 102 137 384
q80 123 186 155q60 3 226 114zM77 1097v-53l32 -88h8q21 0 56 121l17 14v60q159 454 347 606l-8 7q-127 -33 -218 -189q-207 -305 -234 -478zM230 1629l65 54v7h-17q-48 -24 -48 -61zM165 1427h8q15 0 113 168l57 75v13q-106 -59 -161 -222zM488 1663q-97 -126 -97 -162
q100 91 121 162h-24zM109 1407v-7q18 4 105 209h-8q-73 -70 -97 -202zM44 1239v-7h8q17 0 17 67q22 0 32 68h-8q-26 0 -49 -128zM141 902q64 -168 81 -175h8q-40 120 -40 168v95q-25 0 -49 -88zM69 949v-107l40 47q-16 60 -40 60zM117 855l-24 -87v-34q61 -178 218 -364
l48 -67h16q0 32 -105 236q0 23 -129 276q0 40 -16 40h-8zM375 404l8 -20h8v20h-16zM408 344v-7q56 -134 129 -189h8v7l-113 189h-24z" />
    <glyph glyph-name="parenright" unicode=")" horiz-adv-x="682" 
d="M93 1858h40q126 -91 307 -148q110 -90 202 -337q40 -99 40 -168v-34q0 -111 -24 -121l8 -101v-6q0 -444 -363 -714q-16 -43 -218 -222h-8q-47 0 -65 61q81 41 81 53l290 451q35 83 73 424q0 192 -89 303q0 70 -210 337q0 73 -105 161v14l25 7l32 -7h8v27q-24 0 -24 13v7z
M165 1764l-8 -7q188 -152 347 -606v-60l65 -135h16l32 88v53q-43 179 -161 377q-117 174 -194 249zM399 1690v-7l65 -54v14q-13 30 -48 47h-17zM351 1683v-13l161 -243h17l-97 195zM182 1663q21 -71 121 -162v7q-21 61 -97 155h-24zM480 1609q87 -205 105 -209v7
q0 87 -97 202h-8zM593 1367l32 -101q0 -34 17 -34h8v7q-23 128 -49 128h-8zM504 990v-95q0 -48 -40 -168h8q17 7 81 175q-24 88 -49 88zM585 889l40 -47v107q-24 0 -40 -60zM319 303h16l161 222q79 122 105 209v34l-24 87h-8l-57 -135q-62 -99 -161 -336q-22 0 -32 -81z
M303 404v-20h8l8 20h-16zM262 344l-113 -189v-7h8q84 69 129 196h-24z" />
    <glyph glyph-name="asterisk" unicode="*" horiz-adv-x="797" 
d="M582 1853l24 -38v-304q12 -38 70 -38l94 51l24 -38q0 -33 -200 -190v-151l-23 -38q-23 0 -95 101h-23q-63 -17 -176 -139l-48 -13l-23 38v76q0 83 94 202v26q-66 101 -282 227l-12 13v13q0 31 47 38l318 -114l58 -13q56 59 130 278l12 13h11zM512 1562v-51h35v51h-35z
M418 1398q16 -64 82 -64l35 38v64q-59 0 -59 25q-31 0 -58 -63zM359 1322l-59 -89h24q70 13 70 38v38z" />
    <glyph glyph-name="plus" unicode="+" horiz-adv-x="1196" 
d="M585 1458h17q25 -365 41 -365v150q0 36 42 58l24 107h17l8 -41v-390h9q193 0 372 42l42 -8v-25l-33 -9q0 -16 66 -24v-9q0 -41 -17 -41l9 -9v-24l-133 -42h-74q-99 0 -216 -33h-33l-50 -373h-16l-17 174l-16 -16v-34l-25 -157h-17l-8 41v382l-572 66v16l41 9h116l-8 8v25
l423 33v448zM676 1002v-25h25v116q-25 0 -25 -91zM941 911l108 -17h75l16 17v17l-116 25q-83 -27 -83 -42zM345 894v-8l124 8h100v17h-208zM743 903v-17h41l-17 17h-24zM519 861l16 -16h34v16h-50zM676 861v-33h25v33h-25zM734 853v-25h58l17 17v8h-75z" />
    <glyph glyph-name="comma" unicode="," horiz-adv-x="569" 
d="M101 404l43 -15l37 8q105 -17 139 -59q0 -14 44 -14v-15h7l-7 -7v-161q0 -84 -168 -292h-8l-29 30l-36 -22h-15v22q45 46 124 248l-36 7l-37 -15q-61 0 -131 154l-15 58q0 27 88 73zM254 353v-7l22 -73v-44h7q15 0 29 65q-29 59 -58 59zM42 331v-7q0 -62 59 -117v7
q-22 24 -22 95l-22 22h-15zM115 331l-7 -7v-22h7l15 14zM225 302v-44l-15 -73h7l30 29v73l-15 15h-7zM152 280v-22l22 -22v7l-8 37h-14zM312 214q-51 -94 -51 -124q53 60 59 110v14h-8z" />
    <glyph glyph-name="hyphen" unicode="-" horiz-adv-x="682" 
d="M421 1002h7v-21q-57 -9 -57 -28h78l169 35v-14l-7 -7v-7l71 -36v-14q0 -29 -127 -56v-14l113 -15v-14l-35 -7h-50l-134 14h-191q-26 0 -56 36h-156l-35 7v7q0 14 21 14v7q0 24 -21 49q26 43 64 43l120 -7q112 0 226 28zM53 924v-14l22 -21l240 -7h14v14h-28q-25 0 -50 28
h-198zM428 868v-14h56q64 14 64 35h-57z" />
    <glyph glyph-name="hyphen" unicode="&#xad;" horiz-adv-x="682" 
d="M421 1002h7v-21q-57 -9 -57 -28h78l169 35v-14l-7 -7v-7l71 -36v-14q0 -29 -127 -56v-14l113 -15v-14l-35 -7h-50l-134 14h-191q-26 0 -56 36h-156l-35 7v7q0 14 21 14v7q0 24 -21 49q26 43 64 43l120 -7q112 0 226 28zM53 924v-14l22 -21l240 -7h14v14h-28q-25 0 -50 28
h-198zM428 868v-14h56q64 14 64 35h-57z" />
    <glyph glyph-name="period" unicode="." horiz-adv-x="569" 
d="M107 319l47 -16l39 8q113 -18 149 -63q0 -16 47 -16v-15h8l-125 -204l-71 16l-31 -16q-65 0 -141 165l-16 62q0 29 94 79zM272 264v-8l23 -78v-47h8q16 0 31 70q-31 63 -62 63zM44 240v-8q0 -66 63 -125v8q-23 25 -23 102l-24 23h-16zM123 240l-8 -8v-23h8l15 16z
M240 209v-47l-15 -78h7l32 31v78l-16 16h-8zM162 185v-23l23 -24v8l-7 39h-16z" />
    <glyph glyph-name="slash" unicode="/" horiz-adv-x="569" 
d="M546 1858h5v-16h4l-9 -48l5 8h13l5 -40v-279q0 -185 -99 -423q-153 -422 -244 -743q-150 -270 -198 -303h-9l-5 24q14 40 41 231h-5q4 109 167 599q0 34 108 383q68 288 77 368h5q9 0 9 -24h4q60 158 126 263zM501 1698v-16q36 59 36 88zM113 166q102 132 149 327
q86 297 167 495l104 319q18 57 18 144v231h-5q-159 -544 -180 -694q-10 -11 -77 -240q-30 -15 -144 -479q-36 -66 -36 -103h4zM370 1203h5l104 416l4 8v7q-83 -151 -113 -383v-48zM82 341h4q44 0 154 431q84 181 112 463v16q-10 0 -72 -239q-12 0 -58 -208
q-140 -403 -140 -463zM118 349q-64 -112 -68 -223l-4 -8v-40h4q36 28 36 56l-4 8v8q45 164 45 191l-5 8h-4z" />
    <glyph glyph-name="zero" unicode="0" 
d="M527 1858l144 -48h50q90 0 173 -81l58 73h14v-8l-58 -89l15 -16h7q25 0 72 40h7l8 -40v-16l-29 -89q26 -187 108 -459v-201l43 -217v-210q0 -103 -137 -233q0 -48 -216 -242l-29 -8h-173q-147 0 -259 169h-7l-181 -177h-14v16h-7q14 92 86 266v8q0 52 -57 121
q-130 225 -130 338v48q50 180 115 532q65 346 188 442q87 51 209 81zM498 1826l-7 -8v-8l57 -16h43v8q0 18 -93 24zM426 1721l7 -8v-8q57 20 72 48l-22 8q-54 -21 -57 -40zM303 1624h15l86 121v8h-22q-79 -68 -79 -129zM793 1713v-24l36 -48l15 16q0 56 -51 56zM462 1633
q-15 0 -15 24q-86 0 -151 -234q-32 -51 -86 -402q-13 0 -15 -57v-8q0 -147 79 -419h22q0 35 259 620l144 282q65 85 65 113q-58 145 -187 145h-29q-31 0 -86 -64zM217 1504q36 0 65 177q-65 -73 -65 -177zM966 1657v-16h7l15 16v16h-8zM750 1649v-8q0 -29 36 -65l14 16v16
q-21 41 -50 41zM858 1633v-9l14 -16l8 8v17h-22zM901 1560v-8l15 -16h7v24h-22zM865 1488l15 -41l21 24v17l-14 16h-7zM577 1125h7q114 164 195 371q-28 -1 -108 -169q-94 -154 -94 -202zM166 1230v-97l15 -16l72 338h-7q-55 -84 -80 -225zM959 1439l14 -64h15v24l-15 40
h-14zM822 1415q-171 -294 -353 -829q-17 0 -29 -113l-14 -16v-8h14q172 416 245 499q104 192 166 403q-7 64 -29 64zM937 1367l-14 -48v-25q86 -206 115 -394h7v64q-84 403 -108 403zM988 1335v-16q7 -49 21 -49v8q-7 57 -21 57zM836 1198l29 48v24q-21 0 -29 -72zM894 1246
q0 -22 -195 -346q-48 -134 -129 -290l-152 -282q-28 -13 -28 -56q4 -24 50 -49l353 -8h7q54 0 166 137q43 49 43 218v306q-79 370 -115 370zM318 401q13 -65 28 -65q51 85 94 266l72 185l159 403v8q-105 -133 -231 -459q-22 -12 -122 -338zM130 1093v-97l7 -80h8q21 5 21 64
l-21 113h-15zM101 884v-137q19 -169 44 -169v129l-29 161v16h-15zM58 868l-14 -57v-80q6 -75 57 -161l-28 185v113h-15zM1096 763v-40l-15 -153v-153h8l21 64v266zM188 715v-33l65 -225h14v8q-60 250 -79 250zM174 554v-81q0 -65 64 -80v32q-49 129 -64 129zM253 296
q10 -33 36 -48l14 16v8l-29 32h-7l-7 -8h-7zM174 103l7 -8q47 15 86 104v32l-29 17h-7q-21 0 -57 -145zM476 191v-8q0 -21 137 -56h43q144 30 144 56h-36zM764 119v-16h22q108 26 108 88zM397 151l-7 -8q76 -97 187 -97h7q-136 105 -187 105zM606 46h166l14 16v8h-123
q-53 0 -57 -24z" />
    <glyph glyph-name="one" unicode="1" 
d="M553 1858l8 -41v-49h7l61 90q24 0 52 -212l-7 -1444h7l45 -8h30l173 32h90q26 0 52 -32l68 -9v-16l-180 -24v-17l52 -8h68l37 -8v-16l-37 -9h-218l-142 -16h-143q-175 -57 -405 -57h-45l-113 24v33q152 82 270 82l68 16q0 41 37 41h83v571l-15 65l30 400v229h-8
l-142 -123h-8l-22 16q-33 -40 -60 -40v40q56 132 210 351h7q6 -41 23 -41q14 0 45 172l7 8h15zM621 1776l-7 -24q18 -229 37 -229v123q-10 130 -30 130zM478 1572l-45 -89h8l45 57v32h-8zM599 1426v-433l30 -228l15 16v302l-30 359zM523 928v-555q52 63 83 277
q-15 245 -45 319v261q-30 0 -38 -302zM531 210l113 -8v277q-12 -3 -60 -163l-61 -106h8zM463 145h38l15 16h-38zM276 112h7q158 19 158 41h-15q-150 -26 -150 -41zM201 120v-16h7l15 16h-22zM696 104h68l15 16h-68zM403 87h68l22 25h-30q-55 0 -60 -25zM126 63v-16h75v24
h-23z" />
    <glyph glyph-name="two" unicode="2" 
d="M543 1858h88q54 0 280 -139q73 -89 73 -217v-403q-37 -233 -95 -233q-49 -66 -89 -240q-120 -171 -169 -171l-258 -178l-29 -23l-8 -8v-15h339l412 7q45 -10 45 -23q0 -15 -30 -15v-24l37 -7v-8q-1 -15 -155 -85q0 -62 -279 -62l-8 -8q-164 0 -397 70l-162 -16
q-30 8 -30 39h-29q-55 0 -59 31l7 46q-22 0 -22 16q133 173 353 287q156 67 369 410q125 259 125 310v186q0 133 -243 318h-15q-84 -4 -309 -147q-81 -39 -214 -132h-14v8l36 108l-7 24l44 54v15h-15v16q273 209 428 209zM307 1719h15q66 23 162 23h132q157 -54 192 -54v7
q-54 109 -155 109h-162q-93 0 -184 -85zM837 1726v-7q0 -67 59 -86q24 -29 52 -131h7v15q0 149 -103 209h-15zM226 1633h15q31 0 125 55v7h-8q-132 -31 -132 -62zM741 1626q96 -92 96 -124h15v15q0 94 -111 109zM123 1494q131 72 154 108v8q-154 -38 -154 -116zM874 1610
l-7 -23q32 -116 51 -116v7q-19 132 -44 132zM881 1424l8 -116v-54q0 -125 -184 -512h14q94 60 140 178l44 210v255l-7 39h-15zM903 928h8q20 0 44 163v54q-24 0 -52 -217zM300 269h7q19 0 221 155q258 135 258 272q22 17 22 54v8h-8q-63 -78 -169 -171q-53 -124 -206 -194
q-23 0 -125 -124zM646 727l-67 -101h15q54 41 66 93l-7 8h-7zM130 285v-16q116 0 368 248q30 0 81 78v23q-172 -164 -331 -232q-105 -75 -118 -101zM962 207q0 -23 89 -23l7 8v15h-96zM49 130h30q110 0 110 39v7h-7l-59 -15h-15v39h-7q-52 0 -52 -70zM233 169l-14 -24v-7
l125 -8h29l81 23v8l-73 15zM646 153q0 -19 176 -46q81 33 81 46h-257zM874 91v-8l37 -7h29l111 69l-8 8h-7q-162 -46 -162 -62zM469 122q0 -25 206 -39h59q0 14 -177 55zM462 76q0 -22 73 -31q-10 31 -66 31h-7z" />
    <glyph glyph-name="three" unicode="3" 
d="M696 1858h265q53 -10 57 -32v-16l-272 -349q-158 -154 -178 -231l7 -8l107 8h86q35 0 214 -111q157 -374 157 -421v-254q-88 -358 -171 -358q-123 -71 -207 -71h-172q-282 0 -478 191q-74 44 -100 95l7 24h7q58 -72 86 -72l57 24q205 -55 293 -55l278 -8q38 0 157 190
q79 148 79 294v159q0 53 -250 286l-43 16q-205 -66 -314 -183l-36 -8h-21v24q3 28 121 127v8h-14q-57 -23 -114 -87h-7v16h-8q230 329 372 484l114 127v8l-143 -47h-221l-157 -24h-200l-36 8v16q86 0 107 39h7v16q-68 0 -85 64l-29 8v8q92 55 207 55h129zM746 1826v-16
l143 -16h7l22 24v8h-172zM189 1739h-99v-24l185 -48h22q130 0 178 48l-14 16h-43l-57 16zM625 1739v-16h14l15 16h-29zM525 1683v-24h121q110 31 143 64h-21q-184 -40 -243 -40zM689 1508h15q15 0 85 96v16q-98 -86 -100 -112zM561 1342h7q14 0 78 111v8q-57 -57 -85 -119z
M439 1183h7q49 0 100 79h-14q-77 -45 -93 -79zM768 1159v-8l178 -191v8q-107 191 -178 191zM925 1119q107 -238 135 -333l36 -48v8q-124 373 -157 373h-14zM1003 817v-103q0 -243 -185 -469l7 -8q111 0 150 143l64 255v95l-21 87h-15zM1068 674q0 -99 -93 -373h7
q121 43 121 167l7 119q-32 87 -42 87zM753 86h-356q0 -35 164 -39h228q257 62 257 190l29 80h-15l-142 -95q-71 -136 -165 -136zM161 245q79 -65 228 -103h207q86 0 86 32v8q-357 0 -471 63h-50zM689 142v-24h79q49 0 114 88v8h-7q-88 -6 -186 -72zM218 174v-8l14 -16h15z
M275 142q7 -24 43 -24h14q-7 24 -43 24h-14z" />
    <glyph glyph-name="four" unicode="4" 
d="M698 1858h15v-14l-36 -115q12 0 64 72h28v-8q-138 -176 -199 -330q-61 -117 -149 -459q-17 -9 -64 -165q-97 -178 -192 -259l-35 -50v-7h14q33 43 100 43l248 -22h107v180l7 36h14l7 -58l7 7h22l7 -86q21 0 21 79q36 124 57 130q43 -35 43 -65v-237q192 0 192 -36h71
q71 0 71 14l21 -7q0 -48 -43 -79l7 -21h-7l-28 -7l-192 14h-64l-35 -22v-43l14 -57v-108q0 -89 -71 -172h-15q-14 0 -35 93q-14 0 -14 94l-22 21l-21 -21h-7l-7 36v172l-498 64q-29 -57 -42 -57h-7v7l7 50h-7l-43 8v28q64 22 64 122h-7q225 636 377 819q99 185 99 208h7
l36 -22q18 17 42 137q37 73 71 93zM393 1190v-7h7l57 129v8q-25 0 -64 -130zM435 1198l-213 -453l-35 -93l7 -7q32 0 149 237q100 245 100 308v8h-8zM371 1147l-35 -86q14 0 43 79v7h-8zM315 1025l-22 -57q12 0 29 50v7h-7zM244 954q-53 -90 -86 -230q38 0 93 222v8h-7z
M705 638q22 7 22 43v28q-22 0 -22 -71zM87 566l7 -7h7q31 0 50 100q-33 0 -64 -93zM172 487h249q0 21 -149 21q-100 0 -100 -21zM727 444v-14h28v28h-14zM684 207v-14q12 -87 29 -87h7l-7 108v115q-22 0 -29 -122z" />
    <glyph glyph-name="five" unicode="5" 
d="M596 1858h148q92 -26 261 -26l21 -9v-9q0 -26 -106 -35h-183l-14 -18l7 -9h162q52 0 56 -26v-9q0 -24 -204 -89l-226 18q-138 -44 -282 -44v-309l7 -62l190 -9l353 9q100 0 212 -220q0 -20 92 -168q49 -125 49 -168v-53q0 -147 -85 -238v-141q0 -136 -169 -177l-353 -53
h-63q-32 0 -205 185q-83 59 -127 142l14 26q0 100 -134 168v17h56l57 -52h14q16 88 35 88h7q110 -152 261 -221h353q191 0 191 80v176q-83 314 -247 415q-111 53 -184 53l-310 44l-35 -9l-120 53v18l28 9l-7 132v141l-35 265q0 50 56 97l28 -26h247zM172 1779v-18h64l14 18
h-78zM363 1726q0 -36 183 -36q71 11 71 36h-254zM638 1699v-18l14 -17h127l71 53h-134zM186 1699v-62h22l7 62h-29zM144 1690v-35h14v18zM243 1690l-7 -44v-9h28q148 0 148 27q-73 26 -148 26h-21zM193 1593v-26l-28 -177l7 -70l-7 -62l14 -44l36 8l-7 133v238h-15z
M814 1196l-7 -9q48 -96 141 -159v18q-76 129 -134 150zM744 1099q49 -62 85 -62l7 9v9q-38 44 -92 44zM857 984v-18q103 -135 134 -211v17q-57 212 -134 212zM1047 843l14 -397h14q36 96 36 167v80l-43 150h-21zM172 516v-44q67 -79 148 -79h7v8q-31 0 -134 133h-7zM222 375
v-18q48 -97 91 -97h106v9q-15 42 -197 106zM1005 348q-15 -126 -99 -229v-9h21q52 0 99 106v132h-21zM821 331h-310v-27l141 -79h78q176 85 176 115zM419 331v-9q45 -53 78 -53v9q-37 53 -71 53h-7zM941 269l-49 -106h14q0 21 35 44l15 36v8zM582 137h-113l-50 8
q101 -70 184 -70h35q221 0 254 185q-205 -123 -310 -123zM313 225v-18q112 -35 191 -35h42v26q-46 27 -106 27h-127zM582 225l-8 -9v-9l36 -17l7 8v9zM419 92v-8q12 -36 50 -36h28v9q0 25 -71 35h-7z" />
    <glyph glyph-name="six" unicode="6" 
d="M466 1858h7q56 0 89 -24l62 8q68 0 227 -340q13 -36 13 -103v-8l-7 -40h-13q-6 56 -35 56l-20 -8q0 79 -220 222q0 23 -27 39h-35q-114 0 -261 -182q-42 0 -75 -190q-48 -141 -48 -340v-135q0 -54 96 -253h7q76 201 206 356q226 151 288 151q234 0 405 -428l14 -111v-8
q-26 -498 -254 -498h-62l-55 -16h-82q-124 0 -398 261q-31 41 -83 182q-130 132 -185 420l-14 103v55q0 169 130 538q91 143 220 230q74 63 110 63zM294 1589h14q110 103 240 103l-48 39h-6q-134 0 -200 -142zM322 1692h7l13 16h-6zM569 1692v-16q13 -37 179 -150v15
q0 109 -165 151h-14zM274 1636v-15l27 31v16zM178 1549h7q12 0 41 72h-7q-28 0 -41 -72zM239 1573v-16q11 0 21 32h-7zM171 1462l-76 -182v-166q12 13 90 348h-14zM54 1146v-222q4 -47 21 -47l-7 95v190zM706 1003v-16l145 -47h13v8q0 17 -110 71zM631 1003v-8h20l14 16h-14
zM391 726h6l186 214v16h-35q-115 -96 -157 -230zM514 813h14l220 111v24l-35 8h-68q-78 -52 -131 -143zM281 433q0 -23 178 -142q145 -127 213 -127h103q185 90 185 222v229q-64 235 -151 285h-48q-251 -105 -398 -261q-69 -124 -69 -150zM871 892q62 -98 117 -277v-221
q23 0 41 111v110q0 173 -130 277h-28zM370 790l-96 -167v-23h20q58 95 90 190h-14zM1029 750q28 -94 28 -158v-56q0 -146 -179 -403l-21 -40v-16h69q133 195 179 341v118q-24 214 -69 214h-7zM88 726v-16q28 -89 48 -102h7q-37 118 -55 118zM1070 275q0 -26 -103 -182v-16h7
q52 22 103 182v16h-7zM397 212l21 -24h7v8l-14 16h-14zM748 133q0 -20 75 -40l48 79v16h-7q-57 -55 -116 -55zM466 164v-8q41 -60 192 -118h42q-13 17 -117 55q-81 71 -117 71zM562 156q0 -39 220 -103l14 16l-227 87h-7z" />
    <glyph glyph-name="seven" unicode="7" 
d="M1041 1858h16q0 -130 74 -130v-16h8q-66 -149 -66 -423q-65 -191 -90 -325h66l41 -8v-8q-49 -48 -123 -48v-41h115l41 -8v-16q-173 -12 -173 -41q0 -174 -188 -666l-25 -122l-24 8h-17l-24 -8v8l-8 33v48l-41 -8h-17l-16 114q49 449 90 593v24l-213 -8l-25 8v17l230 16
q0 14 -213 49v16l41 8h180q0 19 -172 32v17l41 8l172 -17q107 341 107 553h-107l-394 8l-147 -24l-8 24h-49l-41 8v16l41 8h123q327 17 327 65h-491l-41 9v16l41 8h32v8q-36 41 -98 41v40l107 25l270 -17h607q23 106 41 106zM123 1712q0 -25 98 -49l131 8q0 16 -229 41z
M950 1704v-17l9 -8l-17 -48v-9q20 0 25 82h-17zM991 1631v-9h74v41l-8 41h-33q-33 -11 -33 -73zM680 1590h33q155 0 155 41v16h-8q-140 0 -180 -57zM877 1143v-8h8l156 439v8q-99 0 -99 -122q-33 -101 -65 -317zM778 1549h66v17h-49zM860 1517v-33l-8 -40h16l17 65v8h-25z
M795 973h16l66 357v16q-34 0 -74 -292zM950 1249v-25l25 25v16h-8zM926 1143v-8h8l16 65q-19 0 -24 -57zM975 1151l-16 -57v-8l24 25v40h-8zM918 1119l-41 -146h16q0 32 33 97v49h-8zM664 493v-16h8l82 171v170h-25q-65 -132 -65 -325zM787 396h8q106 216 106 422h-24
q-60 0 -90 -422zM688 331l8 -122h9q41 31 41 154v114q-16 -4 -50 -130l-8 -8v-8zM647 193v-41h17v41h-17z" />
    <glyph glyph-name="eight" unicode="8" 
d="M327 1858h107q42 0 73 -21h91q82 0 213 -234v-172q0 -79 -205 -213l147 -90q320 -216 320 -282q66 -78 66 -152v-110q0 -148 -205 -378q-186 -200 -320 -200h-66q-139 21 -320 165q0 24 -106 76q-115 64 -115 213q14 361 90 400q38 116 164 220q90 49 148 131
q-175 100 -279 255q-107 101 -107 220v14q0 105 304 158zM606 1810v-21h24v7l-16 14h-8zM56 1727v-62q0 -36 41 -131h25v83q7 99 90 172v14h-25q-125 -52 -131 -76zM228 1693v-35q29 -204 148 -316l74 -69h16q164 118 164 172v151q0 132 -147 193h-66q-98 0 -189 -96z
M179 1686l-8 -35l16 -55h17l-8 35v55h-17zM745 1651v-137q-20 -127 -74 -179l-57 -62v-7h8q156 94 156 151v186l-16 48h-17zM663 1589v-89q25 0 25 28q-5 61 -25 61zM155 1576v-28q0 -90 114 -179h17q0 22 -115 200v7h-16zM516 1273v-14l41 34v7h-9zM475 1149
q-230 -209 -230 -530v-42q0 -98 295 -309q103 -55 164 -55h58q173 0 229 172q25 122 41 130v83q-75 231 -254 344l-164 124l-25 -14q-79 97 -114 97zM630 1101q0 -13 312 -269q61 -89 74 -89v7q-49 167 -156 234q-165 117 -230 117zM114 750v-117q102 -338 172 -338l41 -27
v7q-86 105 -156 296q-33 59 -33 117v62q41 196 197 330h-8q-138 -93 -197 -248zM171 763v-96l25 -96h16v6q0 289 99 414v13q-77 -38 -140 -241zM1082 667v-158l16 13v131zM64 646q14 -110 41 -110v7q-24 60 -24 117zM48 536l-8 -7v-89q0 -154 197 -221q0 -34 41 -34
q-50 55 -107 186q-69 83 -107 158l-8 7h-8zM245 474v-7q97 -227 221 -227q0 -16 115 -34h8q-165 102 -328 268h-16zM261 268q0 -57 140 -117q160 -55 246 -55h74l41 27v14l-82 -14q-289 55 -369 117l-42 28h-8zM278 178q38 -71 246 -144h131l57 13v21h-57q-250 31 -336 96
q0 12 -41 14zM630 171v-14l41 -6h66v20h-107z" />
    <glyph glyph-name="nine" unicode="9" 
d="M426 1858q186 -40 301 -155q92 -94 111 -240q12 0 52 -155q242 -480 242 -566l7 -131v-186q-74 -372 -183 -372h-229l-118 -39h-59q-123 19 -359 287q-79 137 -79 232l7 39h13q0 -155 170 -248q0 -48 242 -147h46q277 0 379 294v333q-16 121 -124 357q-12 0 -203 -240
q-50 -31 -79 -31h-58q-191 25 -321 92q-150 58 -150 179l-20 108v78q0 162 78 325q97 135 229 155q72 31 105 31zM374 1819v-15h26q21 0 137 -78q110 -32 210 -147h13v39q-78 125 -183 155l-20 -8q0 38 -124 62h-27zM328 1773l13 -16h79v16h-92zM112 1323v-69
q0 -121 281 -179h184q70 0 150 217q13 3 20 47q-127 133 -177 248q-68 78 -203 124h-33q-114 0 -215 -295zM478 1703v-15h27v15h-27zM210 1672v-8l13 16v8zM590 1649l163 -256h7v85q-9 83 -151 186h-6zM92 1494v-23h20l52 178l-6 8q-31 0 -66 -163zM53 1463v-39l13 16v23
h-13zM832 1339v-47h32v8q-12 36 -26 39h-6zM53 1308v-62l7 -39h19v23q-8 78 -26 78zM871 1269v-8q0 -41 26 -54h7q0 42 -27 62h-6zM805 1207l-6 -39h6l14 39h-14zM60 1161v-8q0 -104 157 -155h6v8l-144 155h-19zM740 1145l-39 -54v-8h6q46 0 46 54l-6 8h-7zM485 1044l13 -15
h20l13 15h-46zM282 1037v-24l59 -31h105l13 16v15h-39l-131 24h-7zM511 928v-7h85q66 43 98 108h-13q-127 -43 -170 -101zM452 944h13q33 0 59 38l-6 8q-64 -23 -66 -46zM1034 936v-15q40 -163 79 -248q0 157 -79 263zM1015 866q37 -242 65 -263v31q0 53 -59 232h-6z
M995 735v-163h13v147zM1034 603q0 -34 -65 -233l-52 -116v-15h6q110 89 138 147v31l-14 85v85zM1087 370v-23q17 0 26 62v23q-17 0 -26 -62zM256 316v-15q27 -47 65 -47v8q-43 54 -65 54zM792 99l20 -15h33q80 0 196 186v31h-7q-14 0 -163 -155q-37 0 -79 -47zM714 153h78
q51 0 98 117h-6zM1047 231l-111 -140v-7h46q54 56 79 139l-7 8h-7zM694 122q7 -23 39 -23h7l13 16v7h-59zM452 107v-23l66 -39h124v15q0 19 -144 47h-46z" />
    <glyph glyph-name="colon" unicode=":" horiz-adv-x="569" 
d="M117 1043l46 -15l39 7q112 -17 147 -62q0 -15 47 -15v-16h8l-124 -201l-70 15l-31 -15q-64 0 -140 163l-15 62q0 28 93 77zM280 989v-8l23 -77v-47h8q15 0 31 70q-31 62 -62 62zM55 966v-8q0 -66 62 -124v8q-23 24 -23 100l-24 24h-15zM132 966l-7 -8v-23h7l16 15z
M249 935v-47l-16 -77h8l31 31v77l-16 16h-7zM171 911v-23l23 -23v8l-7 38h-16zM163 423l47 -15l39 8q111 -18 147 -62q0 -16 46 -16v-15h8l-124 -202l-70 16l-31 -16q-64 0 -139 163l-16 62q0 28 93 77zM326 369v-8l23 -77v-47h8q16 0 31 70q-31 62 -62 62zM101 346v-8
q0 -65 62 -124v8q-23 25 -23 101l-23 23h-16zM179 346l-8 -8v-23h8l15 15zM295 315v-47l-15 -77h7l31 31v77l-15 16h-8zM218 292v-24l23 -23v8l-8 39h-15z" />
    <glyph glyph-name="semicolon" unicode=";" horiz-adv-x="569" 
d="M109 1036l46 -15l39 7q112 -17 147 -62q0 -15 47 -15v-16h8l-124 -201l-70 15l-31 -15q-64 0 -140 163l-15 62q0 28 93 77zM272 982v-8l23 -77v-47h8q15 0 31 70q-31 62 -62 62zM47 959v-8q0 -66 62 -124v8q-23 24 -23 100l-24 24h-15zM124 959l-7 -8v-23h7l16 15z
M241 928v-47l-16 -77h8l31 31v77l-16 16h-7zM163 904v-23l23 -23v8l-7 38h-16zM93 339v-8q0 -65 62 -124v8q-23 25 -23 101l-23 23h-16zM287 308v-47l-15 -77h7l31 31v77l-15 16h-8zM152 406l43 -14l36 7q104 -16 137 -58q0 -14 43 -14v-15h7l-7 -7v-159q0 -82 -166 -288h-7
l-29 29l-36 -21h-14v21q44 46 122 245l-36 7l-36 -14q-60 0 -130 151l-14 58q0 26 87 72zM303 356v-8l22 -72v-43h7q14 0 29 65q-29 58 -58 58zM166 334l-7 -7v-22h7l14 14zM202 283v-21l22 -22v7l-8 36h-14zM361 219q-51 -94 -51 -123q52 59 58 108v15h-7z" />
    <glyph glyph-name="semicolon" unicode="&#x37e;" horiz-adv-x="569" 
d="M109 1036l46 -15l39 7q112 -17 147 -62q0 -15 47 -15v-16h8l-124 -201l-70 15l-31 -15q-64 0 -140 163l-15 62q0 28 93 77zM272 982v-8l23 -77v-47h8q15 0 31 70q-31 62 -62 62zM47 959v-8q0 -66 62 -124v8q-23 24 -23 100l-24 24h-15zM124 959l-7 -8v-23h7l16 15z
M241 928v-47l-16 -77h8l31 31v77l-16 16h-7zM163 904v-23l23 -23v8l-7 38h-16zM93 339v-8q0 -65 62 -124v8q-23 25 -23 101l-23 23h-16zM287 308v-47l-15 -77h7l31 31v77l-15 16h-8zM152 406l43 -14l36 7q104 -16 137 -58q0 -14 43 -14v-15h7l-7 -7v-159q0 -82 -166 -288h-7
l-29 29l-36 -21h-14v21q44 46 122 245l-36 7l-36 -14q-60 0 -130 151l-14 58q0 26 87 72zM303 356v-8l22 -72v-43h7q14 0 29 65q-29 58 -58 58zM166 334l-7 -7v-22h7l14 14zM202 283v-21l22 -22v7l-8 36h-14zM361 219q-51 -94 -51 -123q52 59 58 108v15h-7z" />
    <glyph glyph-name="less" unicode="&#x3c;" horiz-adv-x="1196" 
d="M785 1363h18v-19l-28 -37v-9q65 22 112 65l28 -9v-19q-75 -149 -325 -371q-287 -154 -427 -306v-18h139q141 46 594 102q81 55 121 55h18v-18l-56 -65q93 -33 93 -56v-18l-139 -28h-130q-55 -6 -55 -28h398l47 -9v-19l-47 -9h-547l-139 -37h-56l-324 9v-9q-33 0 -46 93
h-19v9q42 163 306 399q198 123 464 352zM748 1224l74 18v28h-19zM627 1131h19q27 7 37 37h-19q-30 -9 -37 -37zM432 955l10 -9q172 71 185 120h-18q-170 -92 -177 -111zM117 714h9q116 90 241 250q35 0 84 84h-9q-325 -211 -325 -334zM840 677h10q111 18 111 37h-9
q-112 -16 -112 -37zM525 640h28v18h-9zM89 603l-9 -28l9 -10h9l10 10l-10 28h-9z" />
    <glyph glyph-name="equal" unicode="=" horiz-adv-x="1196" 
d="M735 1451h12v-38q-100 -15 -100 -50h138l301 63v-25l-12 -13v-12l125 -63v-25q0 -52 -226 -100v-26l201 -25v-25l-63 -12h-88l-238 25h-339q-46 0 -100 63h-276l-63 12v13q0 25 38 25v12q0 42 -38 88q47 75 113 75l213 -12q200 0 402 50zM82 1313v-25l38 -38l427 -12h25
v25h-51q-43 0 -87 50h-352zM747 1213v-25h101q113 25 113 62h-101zM727 927h12v-38q-100 -15 -100 -50h138l301 63v-25l-12 -13v-12l125 -63v-25q0 -52 -226 -100v-26l201 -25v-25l-63 -12h-88l-238 25h-339q-46 0 -100 63h-276l-63 12v13q0 25 38 25v12q0 42 -38 88
q47 75 113 75l213 -12q200 0 402 50zM74 789v-25l38 -38l427 -12h25v25h-51q-43 0 -87 50h-352zM739 689v-25h101q113 25 113 62h-101z" />
    <glyph glyph-name="greater" unicode="&#x3e;" horiz-adv-x="1196" 
d="M308 1378l120 -64v9l-28 37v18h19q242 -206 542 -414q213 -253 221 -331v-9q-37 0 -37 -83h-18v-9l-10 9l-321 -9h-56l-137 37h-543l-46 9v18l46 10h395q-9 27 -55 27h-129l-137 28v18q0 23 92 55l-56 65v18h19q164 -83 368 -83l239 -46q51 -27 101 -27h138v9
q-57 99 -423 322q-168 114 -304 331l-18 27v19h18v9zM382 1286v-28l73 -18l-55 46h-18zM520 1185q9 -37 55 -37q-9 37 -55 37zM575 1084q12 -49 184 -120l9 9v10q-127 80 -193 101zM750 1065q193 -202 193 -230q25 0 129 -101h9q0 122 -322 331h-9zM244 734q0 -18 119 -36
q0 20 -110 36h-9zM649 679v-18h27l-18 18h-9zM1099 624l-9 -28l9 -9h9l9 9l-9 28h-9z" />
    <glyph glyph-name="question" unicode="?" 
d="M539 1858q70 0 215 -55q252 -27 252 -74q133 -118 133 -226v-43q0 -168 -170 -331q-248 -148 -445 -221v-12l15 -98v-178l7 -24q-5 -74 -29 -74l-82 -36h-14q-26 0 -37 67v74q-38 0 -38 36v98q-37 167 -37 239v37h-44v6q83 47 407 117q54 25 274 73q67 63 67 110v80
q0 82 -155 221l-141 79l-67 19h-178q-206 -34 -288 -98l-112 -135l-37 -12v6l-7 24v6q37 74 44 178q50 147 267 147h200zM95 1699v-25h14q100 80 319 123h133l67 -6q30 9 30 18q-59 24 -97 24h-177q-255 0 -260 -91zM702 1778v-12l89 -12v6q-5 18 -59 18h-30zM872 1760v-6
q148 -90 200 -208q23 -24 23 -56l-8 -122h15l7 61v98q0 101 -185 233h-52zM191 1705v-19l15 13v6h-15zM969 1650v-13l14 -12v12zM1028 1539v-18l7 -31h8v37zM946 1184h8q50 28 89 86v6h-8zM480 1049v-49q88 0 281 141q97 25 97 43h-15q-230 -51 -230 -73q0 -26 -133 -62z
M643 1006v-12q61 0 244 117v6h-15q-130 -31 -229 -111zM339 1055l15 -36q74 22 96 49v12h-7zM376 988v-18l15 -13l59 49v25h-15zM480 927v-31q24 2 59 43l7 6h8l-8 19h-14zM339 957v-6l15 -73h7l15 12v6q-5 61 -37 61zM376 780v-31q24 0 30 80h-8q-22 -4 -22 -49zM421 761
v-18l14 -12v30h-14zM435 670l-7 -7v-36h30v24zM435 535v-13h30v19h-7zM576 400l15 -18v-147q7 -19 44 -19l60 25l14 -19q0 -16 -125 -92v-73l-15 -18q-15 0 -60 49h-14q-40 -9 -111 -68l-30 -6l-15 18v37q0 41 59 98v12q-42 49 -177 111l-8 6v6q0 15 30 18l200 -55l37 -6
q35 29 81 135l8 6h7zM532 259v-24h22v24h-22zM472 179q11 -30 52 -30l22 18v31q-37 0 -37 12q-19 0 -37 -31zM435 143l-37 -43h15q45 6 45 18v19z" />
    <glyph glyph-name="at" unicode="@" horiz-adv-x="2079" 
d="M676 1176q436 0 550 -167q223 -224 223 -299v-91l-84 -278l-49 -118q-29 -28 -55 -28h-49q-188 0 -257 69q-83 -62 -126 -62h-83q-152 28 -216 83q-7 19 -97 77q-21 25 -21 49v27q0 101 104 244q251 167 292 167h21q209 0 209 -84q61 -79 70 -111q-16 0 -28 -167v-35
q24 -174 55 -174h42q153 0 153 195q-35 182 -118 348q-124 209 -271 209q-125 56 -251 56h-104q-199 -59 -279 -216q-125 -202 -125 -376v-49q15 -142 251 -403q196 -146 368 -146q269 0 348 125l91 55h7v-6l-7 -42h35v-7q0 -78 -251 -188h-69l-133 -14h-90q-187 0 -425 209
q-285 258 -285 389v112q0 74 97 299q30 192 91 251q52 58 257 97h209zM175 953v-14h14q122 141 355 195v14h-77q-186 -29 -250 -97q-42 -74 -42 -98zM634 1127v-14h28q119 0 327 -62v7q-85 83 -181 83h-14zM975 1113l160 -125q103 -106 167 -250l7 -7h7v14
q-160 354 -271 354q0 13 -70 14zM147 591l14 -13q33 203 230 438v14q-85 0 -244 -223v-216zM1261 925v-6q106 -211 111 -265v-153q16 0 49 104v126q-53 101 -153 194h-7zM843 814v-14h42v14h-42zM530 397l42 -49l188 -7h27q181 35 181 111q37 0 70 153v63q0 71 -111 84
l-126 20h-7q-129 0 -257 -306zM50 550v-139q0 -98 146 -237h14v7q-91 170 -91 334l-7 195h-6q-21 0 -56 -160zM502 591v-118q18 0 49 125q12 0 49 91h-7q-91 -49 -91 -98zM440 459v-48q6 -56 62 -56v14q-28 75 -28 132v42q-34 -29 -34 -84zM1045 424q7 -167 35 -167h21
q-25 61 -42 167h-14zM753 292h-98v-21l70 -28h69q101 0 140 105l-7 7q-143 -63 -174 -63zM1003 334l-14 -28v-35q0 -13 42 -28l7 7q-5 84 -21 84h-14zM948 320v-21l13 14v7h-13zM196 299q54 -159 188 -264h7v14q-65 64 -188 250h-7zM565 299v-14l35 -7l-21 21h-14zM1233 223
h42l20 20v7q-53 0 -62 -27zM1080 -76v-7h21q69 30 69 76h-7zM885 -125l14 -14h35v14h-49zM662 -132q5 -21 56 -21h14v14h-21z" />
    <glyph glyph-name="A" unicode="A" horiz-adv-x="1366" 
d="M504 1858h17q145 -99 152 -171q56 -82 169 -190q52 -148 144 -276q0 -24 101 -171q130 -224 195 -475l76 -257v-28l-17 -38l25 -95v-29l-17 -19h-17q-14 0 -59 152q-17 0 -25 95q-89 231 -186 380h-34q169 -291 169 -541v-38l-17 -19h-8q-49 22 -169 399l-93 171h-51
l-101 28h-211l-220 -19l-76 -256q0 -124 -59 -124q-19 -152 -135 -323h-17l-17 19v19q45 123 68 304q25 0 25 95q51 66 51 219q40 0 67 456q130 565 169 627q17 67 34 67h8q17 0 17 -38h34l-8 9v48zM544 1826v-10l18 -20v10zM617 1707v-59l45 -49v10l-36 98h-9zM425 1205
v-10h9l100 483q-66 -96 -109 -473zM607 1550q0 -145 -173 -591h110q145 0 374 -39q-215 516 -311 630zM763 1530v-20l283 -620q0 -35 45 -79h19l-192 473q-61 122 -155 246zM297 1117l-9 -59v-79h9l9 128v10h-9zM279 969v-69h9v69h-9zM388 890l-9 -79h9l183 20v10zM872 831
v-10l92 -10l-28 50zM1165 506v-10l36 -108h9v20l-36 98h-9z" />
    <glyph glyph-name="B" unicode="B" horiz-adv-x="1366" 
d="M676 1858h45q212 0 311 -278l31 -143v-127q0 -47 -46 -167l303 -390q46 -112 46 -254v-48q-35 -165 -144 -246q-141 -110 -364 -191q-50 0 -395 159l-75 8q-28 -59 -46 -64q-11 0 -45 96q-69 17 -69 39l23 24h53q0 40 -53 56l-38 71v8l38 16v668q-5 13 -220 79l-15 32
l23 16l205 -55v7l-8 207v231h-8l-53 -16l-15 24q0 27 76 55q0 65 15 80l61 -32l60 63l8 -7h8q241 79 288 79zM630 1810v-16h31l151 -23v15q0 22 -75 32h-69zM456 1691l15 -167v-429l53 -8h30q159 135 289 135h15l76 -8l7 8v151q-34 211 -113 302l-54 48h-37
q-281 -5 -281 -32zM281 1588q13 -167 31 -167l15 222v16h-8q-38 -20 -38 -71zM395 1651v-95q12 -350 38 -350v310l-15 135h-23zM365 1254v-127l15 -16h15q-12 143 -30 143zM661 1103v-8h15q176 43 205 79l-8 8h-15q-97 0 -197 -79zM471 984v-271q0 -162 -38 -373l304 -80
l174 32q152 143 152 294v271q0 99 -152 135h-364zM365 952l-8 -326q5 -56 23 -56q23 148 23 263v127zM1101 864v-349h15q68 115 68 246q0 52 -76 103h-7zM1222 729q0 -117 -91 -286q0 -52 -38 -111v-24h8q197 32 197 143v103q0 68 -69 175h-7zM327 499v-40l15 -16v40z
M994 300h16q34 0 83 143h-8zM335 411v-15q0 -19 53 -24v16q-31 0 -53 23zM456 292v-8l83 -63h114q0 24 -167 63l-7 8h-23zM1025 229v-16h7q99 26 99 47v8h-8q-87 0 -98 -39zM888 229v-16h46l22 24v8h-15zM782 157l23 -24h53l15 16v8h-91zM790 93v-15h91q103 27 159 71v8h-61
q-25 0 -98 -64h-91z" />
    <glyph glyph-name="C" unicode="C" horiz-adv-x="1479" 
d="M809 1858h68l211 -38q77 -52 77 -92q-119 -102 -170 -102q-84 0 -178 28q-337 -228 -457 -352l-34 -65v-56q77 -314 220 -602q278 -166 390 -166q193 -74 271 -74h8l51 18l26 -9q108 68 161 185l8 9l17 -27v-65l-34 -111l17 -37q-56 -152 -186 -232q-85 -55 -144 -55
h-119q-155 37 -254 37q-52 52 -296 83q-201 66 -271 213q-10 39 -161 120l-17 84v92q0 79 17 121l-9 148v194q10 179 161 399h17q45 128 508 333zM894 1719v-37l101 -10h9l51 47v9h-119zM377 1404l356 250v18q-5 28 -68 28q-114 0 -288 -269v-27zM199 1367
q-59 -163 -59 -315q85 162 85 315h-26zM165 746v-120q0 -96 187 -223h25q-79 158 -178 556v9q-34 0 -34 -222zM267 968v-9q32 -194 93 -194v9q-68 194 -93 194zM72 811v-9l17 -19v46zM377 746l-8 -9q12 -37 25 -37h9v18zM335 663v-19q62 -195 161 -305l127 -37l8 9v9
q-56 55 -161 259zM55 607v-46q14 -83 68 -83v9q-36 120 -68 120zM623 478l-9 -10q113 -213 331 -213l76 -9l101 37v19q-383 95 -474 166zM326 283v-18q91 -75 161 -75h9v10zM640 246v-9q4 -33 127 -74l50 9v9q-38 65 -177 65zM1012 144h51l119 37v19h-85q-85 -21 -85 -56z
M1038 61h84q150 42 187 111l-9 9l-262 -111v-9zM868 107l9 -9h59v9l-17 19h-34z" />
    <glyph glyph-name="D" unicode="D" horiz-adv-x="1479" 
d="M671 1858q52 0 269 -271q69 0 338 -301q42 -128 162 -286q38 -147 38 -198v-110q0 -86 -46 -110l-8 7h-23v-29q0 -147 -392 -418l-169 -88l-199 -37h-139q-90 0 -192 88q-130 17 -130 37q17 14 53 14q0 15 -69 15l-15 22q18 15 54 15v7l-16 44v15l23 22h177v7l-8 1122
l8 74h-8l-338 -37l-15 22q69 21 77 51l153 59v15h-7l-192 -22l-16 22q0 22 131 22q27 32 223 80q13 27 276 147zM510 1726v-7h23q208 0 269 -88h23v14q-113 162 -161 162zM402 1660v-7h277v7q0 22 -138 22h-116zM264 1550v-22h8q172 13 184 44v15h-7q-86 0 -185 -37z
M587 1550l-8 -756l39 -205v-103l-23 -22l-39 52l-31 -220h377q30 0 92 73q137 80 215 345v190q-16 166 -215 382q-226 286 -361 286h-23zM518 1528q6 -81 23 -81v81h-23zM894 1513v-7q50 -83 108 -139q46 -88 69 -88v7q-111 227 -177 227zM425 1506v-59l16 15v44h-16z
M479 1433q-23 -94 -23 -206v-29q0 -90 62 -462v-81q23 0 23 139l-46 433v169l-8 37h-8zM1178 1323v-15q12 -28 54 -59h8q-41 74 -62 74zM1178 1220v-7q0 -58 85 -110v14q-59 90 -85 103zM1240 1037l15 -235q0 -279 -61 -279q-130 -257 -238 -257v-22l23 -22h7
q255 223 292 360q72 102 100 176v44q0 158 -123 235h-15zM464 765v-37l15 -14v36zM1417 721v-73h15l8 36v52h-8zM1209 376v-14q105 79 154 198v51h-8q-18 0 -100 -176l-31 -44zM249 259v-15l38 -36l54 7h54v44h-146zM510 259v-15h15l16 15h-31zM548 193h62l23 22h-62z
M564 134h-85v-14q0 -30 215 -30h62q184 41 184 96h-7q-189 -52 -369 -52zM472 68l15 -14h23l-15 14h-23z" />
    <glyph glyph-name="E" unicode="E" horiz-adv-x="1366" 
d="M230 1858l29 -94h14l663 7q52 29 155 29h134q16 0 28 -51q0 -24 -99 -43q0 -15 -119 -15q-92 -58 -142 -58h-268q-294 -16 -352 -44l14 -203v-254l-7 -145l233 -29h366l22 -22l-142 -29v-7l198 -15l28 15l14 -22v-7l-21 -22h-42q-47 -73 -99 -73h-176l-381 37l14 -610
l42 -15h438l134 15h317q85 0 85 -44h35l21 -14q0 -31 -92 -51h-134q-207 0 -536 -80l-84 -7h-50q-118 36 -176 36q0 -36 -21 -36t-21 44l-22 7l-7 -7q0 20 -176 72l-14 36l21 15l7 -7l64 51q0 233 -21 391v211l-8 7l8 8v123q-50 0 -50 22q16 14 50 14v269q-29 198 -29 493
q50 20 78 51l14 -43h49l-7 79zM803 1735v-22h12l17 22h-29zM148 1720v-14h34v14h-34zM228 1720v-14h156l11 14h-167zM694 1669h35l57 22v15q-92 -13 -92 -37zM142 1655v-8l12 -14h5l41 7v29h-46zM228 1669v-22h6q43 0 46 22h-52zM154 1568q23 -294 51 -458h6v269l-11 210
h-12q-21 0 -34 -21zM119 1096v-102h29v7q-13 95 -29 95zM119 958v-29h29l11 14l-11 15h-29zM240 951v-15h17l-11 15h-6zM119 885v-29h46v15l-11 14h-35zM315 856v-14l235 -29h121q30 0 35 22v14q-172 29 -248 29zM119 813v-189l17 -319q41 64 41 152l-6 356h-52zM723 167
v-15l98 -7q109 0 109 22h-207zM251 152v-14h133l11 14h-144zM297 94q6 -22 35 -22h207q30 0 34 22h-276z" />
    <glyph glyph-name="F" unicode="F" horiz-adv-x="1251" 
d="M168 1858l14 -21v-91h6q28 42 48 42l13 -35h95q125 21 237 21q51 21 189 28q0 13 61 21l14 -14q0 -23 -81 -63v-21h115q372 -19 372 -63l-20 -14h-102q-124 0 -311 -27h-372l-143 -28l7 -84v-370l244 21h74l21 -21q-40 -56 -142 -56q0 -21 196 -28l13 -14
q-11 -56 -27 -56h-379l-67 -608q-18 0 -27 -160l6 -175l7 -7v-7l-13 -14q-61 9 -61 28v49h-7q-28 -42 -48 -42l-27 140q-47 97 -47 349v98l47 579l-6 259v223l13 21l7 -7h20q32 147 61 147zM642 1753v-7h20l14 14h-14zM351 1718h-75l-13 -14q0 -42 27 -42q121 42 311 63l7 7
v7h-20q-112 0 -237 -21zM134 1655v-7h14v21zM128 1607l-7 -84v-28q22 0 27 91v21h-20zM216 1593v-461h60v391q-13 70 -33 70h-27zM317 1055v-14h81q0 17 -61 21zM216 1027l6 -7h7l41 14v14h-34zM216 985v-349l-21 -21l-20 70h-7v-91l27 -196q34 0 68 531l7 7l6 28l-6 21h-54
zM168 915v-77l14 -14v105zM60 629v-84q0 -231 27 -231v552q-22 0 -27 -237zM121 580v-273l-7 -153h7l20 21l-7 398l-6 7h-7z" />
    <glyph glyph-name="G" unicode="G" horiz-adv-x="1593" 
d="M865 1858q437 -90 437 -201q36 0 45 -34l-27 -17l-80 17h-268q-472 -108 -472 -168q-109 -85 -205 -260q-67 0 -133 -343v-9q191 -315 356 -411l267 -151q332 59 366 118q169 21 169 151v134l-18 17h-36q-178 0 -178 58v17h-9q9 34 54 34h347q80 0 80 -252l36 -285v-59
q0 -100 -36 -100q-37 5 -62 75h-18q0 -26 -44 -67q-45 12 -45 59v159q-73 0 -142 -134q-78 -50 -259 -101q-131 -92 -169 -92q-211 0 -321 59q-55 18 -160 117q-35 0 -223 394q-80 69 -80 185v25l9 151l-27 134v84q81 319 196 377q57 91 312 218q80 101 338 101zM518 1640
v-17h9q106 29 294 134l53 17v25l-71 9q-185 -57 -285 -168zM224 1254v-33h18q198 320 392 369l338 75h125v25q-118 67 -151 67l-544 -243q-128 -147 -178 -260zM277 1531v-8q107 20 107 92q-54 -17 -107 -84zM108 1221v-9h9q6 34 53 34l54 117l-9 9q-107 -82 -107 -151z
M1222 759v-8l44 -8h54v25h-54zM1427 684v-8l18 -68h8l36 34v17l-27 25h-35zM170 634v-9q157 -293 277 -293h9q-138 120 -223 251zM1445 424l-9 -8v-177h17l27 118q-16 67 -35 67zM1115 298h18q49 0 89 59l-9 8h-9q-89 -44 -89 -67zM358 298q0 -44 44 -67h116
q-106 67 -152 67h-8zM883 248l18 -17h18l107 34v16q-143 -8 -143 -33zM438 189v-17q133 -117 365 -117q32 0 71 42v17l-196 75h-240z" />
    <glyph glyph-name="H" unicode="H" horiz-adv-x="1479" 
d="M1290 1858q72 0 148 -396v-984q-57 -404 -89 -404l-29 -15h-10l-30 23v175l-10 38h-10q-62 -267 -98 -267l-30 23v160l20 702h-286q-553 -47 -553 -84v-54q-69 -553 -109 -693q-28 -69 -49 -69l-20 23v99q0 50 -69 213q-19 163 -49 176v206l20 366v579q0 79 39 107
q30 0 30 -23l10 -8h29l10 8h10l20 -46h19v61l30 23q20 -12 49 -191q30 0 30 61l30 16l19 -23v-298l-19 -350h29l385 53h188l187 -23l-10 115v427q0 132 158 274h10zM1241 1736l10 -8q45 15 49 31v8l-20 15q-19 0 -39 -46zM1260 1660v-595q3 -38 20 -38l-20 -46v-7
q3 -38 20 -38l-20 -46v-275q30 -129 50 -129v876q0 222 -30 267l49 16v45h-29zM86 1614v-221q30 0 30 160q0 56 -30 61zM244 1492v-69q30 -63 49 -228l20 15v274zM195 1149v-153h19v138zM86 1004v-198h20l20 130l-20 22l20 46v122q-33 0 -40 -122zM382 974h-29
q-28 0 -40 -77h10q427 109 464 130h-10zM688 958v-22q217 15 217 38v15zM994 974v-23h148v23h-148zM195 943v-503q23 0 29 69h10l-10 91v236l-10 8l10 23l-10 76h-19zM96 631v-145l20 -145v-8h29l-19 320zM1191 585l-10 -92v-221q30 5 30 61v237z" />
    <glyph glyph-name="I" unicode="I" horiz-adv-x="569" 
d="M415 1858q72 -62 154 -590v-463q0 -209 -39 -441v-142q0 -202 -51 -202q-26 15 -26 68l-38 15l13 7v164l38 150l13 650q0 82 -38 82l-39 -321v-620l-38 -30v-75q-30 -97 -65 -97q-25 15 -38 90l-51 -53h-13q-61 11 -116 336v464q0 160 -64 508v388l39 22l25 -22v-134
q99 0 129 134q51 75 89 75l26 -23v-388q8 -45 39 -45l12 276v195zM210 1544v-52l25 -67h26v231q-38 0 -51 -112zM441 1514v-22l25 -15v22zM184 1365l-13 -7v-172q26 -260 90 -351h13v224q-36 306 -90 306zM210 745v-15l25 -15v30h-25zM145 640v-246l39 -164v-38h26v292
q-34 156 -65 156z" />
    <glyph glyph-name="J" unicode="J" horiz-adv-x="1024" 
d="M856 1858l17 -25v-217l16 -17v226l24 25l16 -25v-435h16v426l24 25q17 -11 17 -100l24 -25l-8 -811q24 -78 24 -142v-852q0 -62 -194 -193q-16 -92 -72 -92h-113q-230 0 -380 176q-142 84 -250 443v8l24 25q22 -23 81 -184l8 -8l32 16l49 -25v9l-129 167v8l16 25
q26 0 121 -125q135 -208 194 -208l121 -51h56q115 0 210 259v1078l16 293v209q0 106 40 117zM881 922v-544h16q16 117 32 117l-8 184v184l16 126l-16 167v58q-35 0 -40 -292zM865 -173h24q97 52 97 109v401q-25 0 -57 -176q-64 -146 -64 -334zM154 44v-8q0 -51 89 -100
l16 17zM590 -139h-129v-9l16 -17h186q67 0 105 76h-8q-110 -50 -170 -50zM671 -206h-113v-9q33 -41 97 -41h72q97 8 97 83v42h-16q-58 -75 -137 -75zM364 -206v-25q142 -101 275 -101h113l16 17v17h-113q-85 0 -210 92h-81z" />
    <glyph glyph-name="K" unicode="K" horiz-adv-x="1366" 
d="M357 1858l14 -21v-278l40 -342v-139h6l14 14v167q0 290 -47 578l20 14q51 -106 60 -585v-132l13 -14q220 225 260 313l67 77q87 76 219 271l20 -7l27 14l13 -21v-41h27q0 41 20 41l13 -20v-28q0 -99 -106 -167l-174 -279q-161 -181 -173 -181q-172 -97 -193 -97v-14
q1 -10 167 -70q72 -31 259 -237l360 -369q80 -173 80 -195l-20 -13l-33 20h-7q0 -32 -13 -48l-67 48l-27 -7q-70 56 -293 321q-300 314 -399 320q0 12 -67 28h-6q-34 -156 -34 -279v-118q0 -258 20 -341v-7l-20 -21q-15 16 -26 84h-20v-56l-47 -35l-33 7h-14l-6 -7h-7
l-13 21v404l-14 76v348l-106 -48h-20q-17 0 -20 28h-40l-20 13q0 18 113 63l47 42q-20 21 -20 49h-107l-20 21l20 13h87l100 -13v6l13 91v299q0 178 40 348q0 63 47 84zM957 1614h6q43 18 87 112v21q-16 -9 -93 -133zM824 1398h6q137 104 153 154l-6 7q-60 -34 -153 -161z
M464 1043v-14h7q184 66 253 154q110 113 139 160v21q-150 -95 -352 -286zM364 1252v-188h13v174zM277 1224v-111l-13 -97h13q34 0 34 13q-7 195 -34 195zM517 918q101 -109 180 -160l553 -522h6v35l-546 564q-132 83 -193 83zM444 862v-27q14 -28 100 -49h6v7q-69 69 -99 69
h-7zM251 855v-201q20 0 40 187zM271 424v-265h6q12 0 40 77l-6 174v264q-31 -29 -40 -250zM1270 152v-7l20 -21h6v7l-20 21h-6z" />
    <glyph glyph-name="L" unicode="L" 
d="M236 1858q33 -71 33 -188l-7 -1413v-17l7 -60l106 26h133q110 0 272 59h34l20 -25l-47 -43h332l20 -26q0 -51 -173 -51q0 -77 -99 -77h-193q0 -34 -26 -34l-299 25h-20l-67 -8q0 -103 -26 -103l-13 35h-14l-6 -9h-7l-13 26v42q-27 0 -27 26l27 17v26l-47 8h-40l-20 26
q16 17 47 17v17h-93l-20 17q0 28 73 52l-7 727v343l7 171l-7 129v51l20 26l14 -52l13 17v120l20 26l20 -26l53 94zM176 1678l-13 -77v-103q0 -376 26 -376v556h-13zM223 1601v-454l13 17v454zM110 1036v-68l6 -745h33v154q-11 659 -33 659h-6zM608 111q0 -25 172 -25h27
q-7 25 -40 25h-159z" />
    <glyph glyph-name="M" unicode="M" horiz-adv-x="1706" 
d="M339 1858q22 -10 22 -95l10 -8q0 -16 106 -24q208 -181 319 -411q20 -36 42 -39q35 33 85 181q118 206 244 206q20 46 180 103l64 -8q0 33 95 55q59 0 138 -403q64 -441 64 -846v-119q-59 -372 -127 -372q0 -71 -43 -79q-32 0 -32 55h-21l-10 -8h-11l-21 24v174
q0 159 -32 214l-11 759v388h-10q-180 -163 -276 -324l-212 -190h-21v-8l31 -48l-31 -16q-62 0 -266 277q-186 193 -254 198v-8l10 -1099v-111l11 -166q-14 -37 -43 -40l-21 24v39h-10l-85 -39l-21 24v205h-22l-85 -190l-10 -7h-11l-21 23v633l32 214l-11 680q41 166 138 166
h11l85 -16q5 32 31 32zM1464 1747v-95h21l21 16q-6 79 -31 79h-11zM127 1660l11 -126q42 0 42 166v39h-10q-30 0 -43 -79zM1315 1731q-93 -110 -169 -110q-134 -73 -212 -277v-16h21q96 202 403 340h11v8q0 43 -43 55h-11zM361 1652v-71l233 -174h21q-100 153 -244 245h-10z
M1453 1589v-142l22 -16v174zM976 1249h21l117 119q32 77 95 142h-10q-167 -116 -223 -261zM212 1494v-300h43v71q0 206 -43 229zM626 1383v-15l85 -87l10 7q-56 95 -95 95zM1591 1288v-55q0 -364 53 -364l-31 396v8zM159 1138v-340l-32 -419h21l54 126v633h-43zM1453 1099
v-16l11 -594l32 -181l21 15l-11 467q-31 128 -31 229v64zM1559 845v-55l22 -16v56zM1634 774v-23l21 -16v23zM1581 648v-198l21 -16v198zM255 489v-308h10l53 8v55l-42 245h-21z" />
    <glyph glyph-name="N" unicode="N" horiz-adv-x="1479" 
d="M219 1858l73 -23l28 8q17 0 174 -204q232 -206 468 -567q166 -152 340 -461h18q-147 845 -147 914v220l19 22q45 0 101 -158h18v143q0 68 82 83l19 -22v-53l46 -15l9 -870v-574l9 -68q-18 -50 -83 -106q0 -30 -45 -30q-32 68 -46 68h-19q0 -30 -27 -30q-61 0 -147 181
l-165 363q-106 87 -321 446q-88 145 -239 332l-9 38h-28v-400l-36 -242v-477q46 -115 46 -241v-106l-28 -23l-18 23v83l-110 -38l-28 -23l-18 31h-28v-8l9 -53l-27 -15l-28 23l-27 476v1141q0 37 -46 136l18 16l46 -23h9q19 0 19 60l18 15l46 -7zM155 1760v-197
q46 -363 46 -869v-234l46 7v166l18 363v613l-28 60l19 38q0 29 -37 91h-18zM320 1752q62 -143 92 -143h27q0 41 -110 143h-9zM1357 1631q0 -74 -28 -143q12 -432 64 -477v189l19 106h-9l-28 23v287zM1219 1609v-76q0 -136 64 -363h10l-10 53v227q-31 159 -64 159zM476 1495
q0 -48 202 -280q367 -429 367 -536q72 -191 248 -325v7q-90 184 -358 582q-56 173 -303 431l-138 121h-18zM1283 1132v-37l19 -16v38zM1017 936v-8l37 -68h9v8q-20 68 -46 68zM1081 838v-8q22 -73 129 -212l147 -264h18q-86 216 -266 468zM1366 686v-22l18 -15v22zM1384 603
v-15q5 -76 28 -76v8q-7 83 -28 83zM118 520v-302h28v257q0 39 -28 45zM201 437v-302h18l28 22v219q0 42 -46 61zM1109 437v-8l28 -37v-38l27 -8v38q-24 0 -46 53h-9zM1274 271v-8l37 -30v15l-28 23h-9zM1210 255v-22h18v7zM292 210v-38l19 -15v38z" />
    <glyph glyph-name="O" unicode="O" horiz-adv-x="1593" 
d="M724 1858h18q467 -41 467 -115q63 -23 144 -209q119 -87 198 -324q45 -137 45 -591v-7q0 -32 -153 -173q0 -83 -207 -259q-248 -166 -387 -166h-215q-364 0 -522 288q-99 158 -99 281v324l54 310q0 177 162 389l99 94q120 72 396 158zM229 972q0 -319 144 -555
q209 -158 423 -158h44l180 79q279 202 279 519l36 338v101q-122 339 -225 339q-121 98 -261 144q-163 0 -440 -310q-180 -253 -180 -497zM1074 1764l135 -108v-14h27v14q0 15 -135 108h-27zM121 1275h27l162 324q-74 0 -189 -310v-14zM112 878v-93l54 -288q0 -279 225 -332
l153 -14v7q-178 132 -279 324q-90 173 -90 260v129q0 201 54 425q-65 0 -117 -418zM1416 1289v-288q-36 -141 -45 -317l-99 -295q207 132 207 331v425q-40 144 -63 144zM1524 1051v-230l18 14v202zM1524 612v-15l27 22v36q-27 -7 -27 -43zM58 619v-29q6 -115 36 -115v29
q-6 115 -36 115zM831 223h-26q-129 0 -333 65v-7q140 -130 252 -130h27q359 60 359 115q66 0 135 209h-9q-217 -223 -324 -223q-12 -29 -81 -29zM885 122v-7h36l72 29v14h-9q-99 -25 -99 -36zM373 115v-7q146 -58 225 -58v14l-216 51h-9zM607 115q0 -19 72 -29h81
q0 16 -108 29h-45z" />
    <glyph glyph-name="P" unicode="P" horiz-adv-x="1366" 
d="M528 1858h138q69 0 490 -130q0 -13 92 -38q115 -104 115 -222q0 -227 -54 -299q0 -60 -122 -138q-32 0 -222 -114l-468 7h-38l-92 8v-8l15 -352v-375l-23 -23l-23 23v100l-38 -8v-46l15 -46q-30 -191 -76 -191q-53 0 -62 145l-69 261v114q0 125 23 299v191q-8 18 -92 61
l-7 23q7 29 53 46l46 -7v497l-84 -15l-15 15l23 46l-31 15q15 49 107 84q0 62 23 62q16 -18 16 -54h7q245 69 353 69zM666 1812l15 -15h23l-15 15h-23zM758 1797l15 -16h8v16h-23zM168 1736v-23h7l77 7v31h-8zM397 1736q-38 -138 -38 -245v-444q0 -30 291 -69
q202 161 445 275l7 39v46q0 216 -245 344q-286 54 -460 54zM965 1690q168 -169 168 -284l8 -61h7q22 0 31 77v61q-64 191 -153 191q0 14 -38 16h-23zM290 1682v-38l16 15v23h-16zM168 1636l30 -214q31 0 31 229h8l-8 23q-42 0 -61 -38zM1179 1621v-8q38 -84 38 -122v-62
q0 -86 -76 -191q0 -31 -54 -161v-7h8q174 165 222 306v92q-50 153 -130 153h-8zM742 993v-23h108q137 44 222 184l7 31l-7 7q-206 -103 -330 -199zM214 1154v-46h15v61zM1217 1123h8l23 23h-8zM191 986v-138q-46 -208 -46 -283v-146q53 -163 53 -206h16v788h-8zM252 679
v-329q23 0 23 85v84q0 160 -23 160z" />
    <glyph glyph-name="Q" unicode="Q" horiz-adv-x="1593" 
d="M1041 1858h25q87 0 318 -293l139 -252q49 -118 49 -177v-163l-25 -211l8 -102v-48q0 -159 -155 -279l196 -252l-33 -14l-114 102l-65 48l-8 7h-8v-14l130 -190l-32 -14q-97 65 -204 211h-25q-55 -41 -302 -95q-101 -68 -154 -68h-58q-223 30 -464 245q-185 170 -245 361
v6q0 458 277 783q107 90 196 198q251 184 294 184l89 -7q105 34 171 34zM952 1810v-6q157 -84 236 -109q68 -114 147 -164h8q-43 90 -204 232q0 31 -98 61zM699 1688v-7h8q117 34 171 34q125 0 188 -123q195 -200 375 -571h8v68q-51 281 -106 347q-200 244 -236 245
q-189 95 -237 95q-43 0 -171 -88zM161 646v-75q0 -78 236 -211q323 -102 375 -102h221q59 0 163 61v7q0 18 -229 204l-8 28l33 13v21l-25 47l17 14q31 0 65 -55h16l33 21h57q38 0 187 -130h17q98 148 98 259v198q0 92 -318 551q-159 184 -196 184h-25q-166 0 -367 -191
l-146 -218q-196 -327 -196 -544zM96 762v-27l8 -82h16q0 192 73 395q142 280 278 456l8 20h-16q-125 -77 -270 -340q-65 -138 -97 -422zM1433 1354v-7q57 -190 81 -429l17 14v191q0 116 -90 231h-8zM1457 932v-157l-8 -129v-7h8l49 123q-32 170 -49 170zM1392 401v-7
q122 84 122 225h-8q-16 0 -57 -123q-19 0 -57 -95zM1050 585v-14l195 -150h25l8 28l-171 136h-57zM1009 523l171 -143h8q-54 87 -171 143h-8zM487 285q46 -49 261 -88h122q43 0 49 20v7h-147q-41 0 -285 61zM960 183v-7h24q95 0 229 82l-17 14h-24l-179 -69q-15 -20 -33 -20
zM389 265v-7q152 -132 343 -170h49q68 24 122 68v7h-147q-98 0 -367 102z" />
    <glyph glyph-name="R" unicode="R" horiz-adv-x="1479" 
d="M609 1858h265q190 0 409 -286q24 -85 24 -143v-113q-33 -149 -80 -188q-76 -83 -96 -83q-59 0 -233 -136l-72 -37v-30q155 -49 353 -286q228 -265 281 -452q16 0 16 -60l-32 -15q-26 0 -145 128l-88 52l-32 -15q-171 151 -209 151q-72 28 -72 68l32 15v15
q-304 362 -514 436h-16l16 -143v-308l-16 -181v-151q0 -14 -48 -30q0 -45 -40 -45l-16 15l8 53v83q-27 -12 -72 -128q-31 -38 -64 -38l-17 23v579l-16 121v248q-5 23 -64 23q-64 26 -64 45q5 30 64 30h64v173q0 217 33 331l-8 8h-9q-30 -44 -48 -45q-20 49 -56 60
q27 65 161 166l8 7v8l48 -15zM601 1805v-7h48q161 0 434 -128q51 0 168 -211h8v23q0 82 -128 188q0 42 -201 135l-72 15h-241zM360 1692v-113l32 -165q6 -331 16 -331l8 -8l8 8h8l185 -15h297q163 47 249 165v38q0 74 -201 316l-56 45q-210 83 -265 83l-112 15
q-169 0 -169 -38zM256 1655v-15l24 7v23h-8zM970 1647v-15h24l-16 15h-8zM1002 1625v-8l129 -166h8l8 8l8 -8h16l8 8h8q-63 111 -185 166zM304 1610v-61q0 -87 40 -271h8v128l-32 173v31h-16zM200 1542q-24 -122 -24 -301v-151h16v98l24 151v203h-16zM232 1180v-82h48
l-16 180q-26 0 -32 -98zM232 1045v-38h56v30zM505 985v-8l8 -7v-8l96 8h88v15h-192zM232 970v-264l8 -504h16l48 248l-8 234v188q0 98 -24 98h-40zM176 962v-248l16 -15v263h-16zM689 932h-40v-15l97 -30h24q71 40 72 53v7h-64zM762 819q195 -217 441 -376v15
q-254 314 -441 361zM858 616v-8q46 -43 176 -226q69 -64 145 -75q66 -69 161 -113v15l-426 354zM344 571v-332l16 15v332zM192 157v-61h8q18 0 24 53l-8 8h-24z" />
    <glyph glyph-name="S" unicode="S" horiz-adv-x="1366" 
d="M283 1858h405q279 -54 279 -127l-9 -53h9q90 -55 90 -94v-7l-18 -20l-72 27h-9q126 -104 126 -127l-18 -13q-283 198 -486 220l-189 7q-100 -23 -162 -134v-20q0 -23 432 -107q139 -37 153 -60q103 -128 324 -254q0 -18 144 -153q36 -70 36 -127v-94l45 -167v-133
q0 -288 -270 -368q-112 -40 -162 -40h-108q-35 0 -252 67q-122 53 -270 153q-141 0 -279 201q-15 0 -18 47q0 56 27 80q90 0 90 -87l45 -40v13l-27 80l18 14q22 0 108 -154q86 -66 207 -100l126 -67h180q351 36 351 114q63 57 90 167v133q0 197 -216 308q-189 139 -450 167
q-138 46 -297 60q-225 37 -225 127v87q0 55 72 187q0 127 45 127q0 83 108 133q5 27 27 27zM436 1825v-7l18 -13h63l27 20h-108zM670 1825l234 -107h18v6q-24 49 -252 101zM499 1704v-6h117l45 -7v7q-12 26 -81 26h-54zM796 1651q0 -15 45 -20q0 15 -45 20zM76 1384v-94
q0 -43 189 -80l81 -20h36v13q-171 40 -171 100q-20 0 -36 61v106l-36 27q-40 0 -63 -113zM283 1417q0 -49 243 -154q117 -33 180 -33h63v7q-148 87 -441 173l-9 7h-36zM508 1404v-14l72 -20l207 -87h9v14q0 49 -288 107zM220 1390v-6q0 -73 144 -141h27v7q-153 106 -153 140
h-18zM472 1223v-6q103 -61 360 -127l207 -87v6q-69 94 -549 214h-18zM1066 969v-6l18 -14v20h-18zM1246 408q-17 -76 -99 -140v-13h18q72 0 99 80v73h-18zM328 295l-9 -7v-7l45 -20h36v7q0 9 -72 27zM814 61v-14h99q342 78 342 181h-9q-141 -100 -234 -100zM787 141h-63
q-31 0 -189 53h-27v-20l180 -80h90q32 0 171 54q174 32 180 60v13h-18l-153 -60zM715 188v-14h90l18 14h-108z" />
    <glyph glyph-name="T" unicode="T" horiz-adv-x="1251" 
d="M592 1895q11 -15 22 -88l6 -7h17l180 -13h164l78 -7q46 20 96 20h79l17 -20q0 -22 -186 -74q-141 -82 -175 -82h-78l-79 14v-7l-12 -954v-271l-11 -216v-81q0 -11 -39 -34q0 -57 -40 -68q-14 26 -50 264h-6l-6 406v988h-428l-17 13q0 21 34 34l-11 14h-79q-62 15 -62 34
l17 13h152q121 34 175 34h219v27q0 52 23 61zM964 1712v-6h11l56 20v13h-5zM598 1658v-758l11 14v277l5 237l-5 196v34h-11zM637 1658v-81q18 0 22 81h-22zM682 1590q-39 -96 -39 -318v-155q0 -312 16 -454v-270l12 -88h11l6 1272v13h-6zM620 697v-67l11 -14v68zM598 481
l5 -68v-101q15 -116 28 -116v149q-21 136 -33 136zM637 149v-40h6q22 11 22 47z" />
    <glyph glyph-name="U" unicode="U" horiz-adv-x="1479" 
d="M1221 1858q30 0 62 -75q123 -59 123 -164v-157q28 0 70 -410v-224q0 -62 -193 -508q-51 -125 -352 -276q-52 -30 -96 -30h-53q-60 0 -237 105q-155 0 -281 119l-149 284q-97 278 -97 410v165q0 137 97 589q30 165 96 165l18 -15l-9 -8l9 -127v-52h17v164l27 23l17 -23
v-157q0 -86 -105 -313v-411q34 -253 219 -455q178 -228 343 -321q75 0 351 164q185 176 185 388v695q0 38 -150 403l18 15q26 0 26 -23l9 -7h18v45zM1248 1686v-7l105 -269h9v30q0 80 -97 246h-17zM176 1492v-15h9q21 0 26 67zM62 1044q0 -171 88 -321h9v30l-27 299v313
q-70 -77 -70 -321zM1406 1126v-7l9 -321l17 15v254q0 55 -26 59zM1327 1111v-440q35 12 35 52v224q0 141 -35 164zM141 604v-8q29 -89 44 -89h9v30zM238 581v-7q0 -61 140 -269q0 -62 228 -149h27v22l-106 82l-263 321h-26zM273 357v-7l17 -15v22h-17zM975 163v-7
q40 14 44 30h-17zM668 119v-23l123 -45h53l70 45v8h-79z" />
    <glyph glyph-name="V" unicode="V" horiz-adv-x="1366" 
d="M1212 1858l14 -16l-7 -8v-8l27 -81h7q24 33 48 33q5 72 35 72l13 -24l-7 -8l21 -65v-32q-80 -322 -165 -587q0 -182 -172 -789q0 -81 -27 -169v-72q0 -25 -28 -25l-34 17l-48 -89h-96q-23 0 -49 24l-41 -16l-14 24l14 65v8l-151 386q-96 209 -254 748l-165 282
q0 24 -124 201v16l21 24l68 -80h14v24l-62 121l21 16q199 -193 240 -394q183 -353 358 -596l185 -249h7q241 984 241 1030l14 112v73l13 24l21 -16zM1191 1745l-34 -177q18 0 55 89v72l-14 16h-7zM1274 1689l-28 -48v-129l-7 -81q14 0 55 178q-4 80 -20 80zM1198 1536
q-82 -153 -82 -386l-28 -209h14l75 273l35 322h-14zM889 530q36 -71 48 -72q91 228 151 893v8q-16 -13 -82 -314q-117 -458 -117 -515zM415 1037v-24q0 -64 219 -628q76 -165 76 -209h21l7 40q-8 106 -317 821h-6zM524 924v-16q33 -35 49 -128q128 -290 171 -451l21 -32
q14 0 41 120q-107 231 -275 507h-7zM703 739v-24h14v8zM1074 715q0 -30 -27 -80v-24h14l27 104h-14zM731 691v-8q64 -173 89 -193h14v56q-82 145 -103 145zM861 458l-7 -49q21 -80 35 -80h14l13 32q0 41 -41 97h-14zM978 442l-21 -113h7q19 0 28 80v33h-14zM827 329
q-55 -120 -55 -193v-57h14q62 79 62 105l-21 16l34 56q-13 73 -34 73zM896 184l-21 -64h14l20 40v8z" />
    <glyph glyph-name="W" unicode="W" horiz-adv-x="1933" 
d="M88 1858q106 -48 177 -242q0 -137 93 -442q40 -93 127 -484q36 -68 57 -249q23 0 43 153q71 100 120 402l114 500q75 195 142 249l14 -40h14q4 32 22 32q59 -79 63 -185q213 -671 213 -845l85 -290l8 -8h7q177 624 333 1240q59 169 85 169l14 -24l-14 -145v-33h7
q89 129 107 129l14 -24l-99 -612q-107 -414 -192 -612q-119 -354 -142 -354l-42 -16q0 -16 -22 -16q-98 107 -149 217q-190 359 -220 676q-17 33 -42 226q-18 0 -36 97l-7 8h-7l-142 -298q-85 -247 -113 -548q-39 -204 -135 -427q-27 -4 -43 -48h-7q-15 1 -156 274
q-43 84 -99 346q-186 409 -242 660l-7 427l-21 113q29 23 78 24zM88 1794l-7 -57v-48q156 -623 312 -1135h14v8l-298 1159v56l-14 17h-7zM166 1697q57 -251 78 -258v8q0 188 -71 250h-7zM1756 1616q-22 -88 -43 -120v-33q14 0 50 145v8h-7zM1465 175h7q42 57 142 379
q106 201 227 789l28 249h-7q-143 -183 -199 -515q-42 -73 -42 -185q-99 -255 -107 -556zM947 1568v-56h14l14 64v8h-14zM81 1471v-136q0 -147 213 -628l7 -25h7v8l-213 773l-7 8h-7zM869 1302h14l42 129v8l-14 16q-42 -56 -42 -153zM996 1455v-24l22 -72h14v16l-14 80h-22z
M1074 1391v-16l7 -24h8v24zM265 1343v-33l15 -16v8l-7 41h-8zM1117 1238l14 -56h7v16l-7 40h-14zM301 1198v-8q4 -49 21 -49h7q-9 57 -28 57zM1138 1174v-33q0 -43 36 -64v24l-29 73h-7zM329 1101q26 -145 50 -145v8l-35 137h-15zM1110 1061v-8q0 -268 156 -516l7 -8h7v16
q0 116 -149 492q0 24 -21 24zM379 932v-16l14 -16v16zM414 795v-56q5 -49 22 -49h7l-21 105h-8zM329 594v-16l15 -16v16zM351 529v-24q56 -209 78 -209v24q0 43 -71 201v8h-7zM1472 465q-50 -152 -50 -209h14q43 35 43 104v105h-7zM471 433q29 -137 43 -137v16
q-7 121 -36 121h-7zM1294 425v-8l43 -89h14v8q-20 65 -50 89h-7zM592 368v-16l14 16v16zM571 296v-8h14v24z" />
    <glyph glyph-name="X" unicode="X" horiz-adv-x="1366" 
d="M1270 1858l21 -20l-21 -82v-13h14q48 40 65 40l14 -13q0 -163 -86 -244q-377 -519 -381 -645q79 -156 194 -447q134 -154 180 -319l-22 -14h-7q-14 0 -29 41q-57 0 -57 41q-178 273 -345 447h-15q-123 -319 -172 -319l-165 -210q-34 -69 -80 -88l-14 20l58 102h-8
l-86 -20l-14 13q0 102 93 319q85 340 173 475q-21 60 -94 142q-71 154 -409 563q-65 72 -65 95l14 14q17 0 94 -88v7l-7 47l14 14l101 -14l7 7l-22 54l15 14q23 -1 150 -190q190 -143 252 -272l86 -108q111 197 166 217q366 347 366 393q0 41 22 41zM1097 1485v-14l101 82
l21 13l7 -6h15q12 0 79 101v41h-22q-109 -69 -201 -217zM199 1668q0 -45 65 -95v7q-29 88 -51 88h-14zM127 1648v-7q147 -202 194 -244v-7h14q0 26 -158 210q0 28 -50 48zM343 1560v-14q30 -100 309 -475h14l29 75v7q-132 230 -345 407h-7zM752 1139l36 -61h22l266 475
q-324 -270 -324 -414zM982 1200v-20h7q29 59 187 278v13q-194 -129 -194 -271zM846 990v-7l14 -14l57 170h-7q-64 -109 -64 -149zM529 1098l-7 -6q6 -24 58 -68l14 -34h7v13q-50 95 -72 95zM688 1017v-14q23 -39 50 -54h21l22 61q-28 62 -50 75h-8q-18 0 -35 -68zM802 902
v-21h8l21 21v13h-14zM357 203v-34h14v-7q122 34 122 88l29 41l-43 20q33 116 151 312l58 170q-48 45 -72 88q-33 0 -79 -149l-159 -475q-21 -26 -21 -54zM673 881v-7l22 -20v7zM860 820v-13l29 -28v7q-9 34 -22 34h-7zM731 698v-27h7l14 27v14h-7zM853 657v-6l86 -89v7
q-43 88 -86 88zM608 366v-7q22 2 87 129h-7q-80 -72 -80 -122z" />
    <glyph glyph-name="Y" unicode="Y" horiz-adv-x="1366" 
d="M177 1858l16 -23v-8q0 -449 194 -529q164 -101 186 -101h145q120 0 258 264q79 85 129 296q0 55 48 93q44 -85 105 -85l8 -32h16l8 8q41 0 73 -194v-195l-40 -187l-16 -1143l-25 -16l-24 16l8 7v172l-32 -47h-8l-24 23v86h-8q-16 -1 -49 -78q-89 -117 -105 -117l-16 24
v326l32 382v210q0 151 33 249h-16q-86 -210 -258 -210h-226l-81 -24h-32q-107 0 -162 94q-40 13 -177 225q-121 104 -121 413q10 62 32 62q92 -234 121 -249l-16 249v16zM1089 1562q-88 -185 -226 -350q-63 -54 -145 -54h-49v-16l105 -54q172 69 266 256q65 120 65 187v31
h-16zM1226 1484q-129 -290 -129 -474v-31q25 7 97 334q48 122 48 156zM113 1477v-24l48 -54v15l-40 63h-8zM1105 1329v-23h8l16 54v16q-24 -8 -24 -47zM185 1368q96 -171 186 -234v8q-141 210 -153 210l-25 16h-8zM1129 893v-15h8q113 184 113 287v63l-8 39
q-26 -18 -113 -374zM427 1165v-15q46 -62 89 -62h121v7q0 26 -169 70h-41zM1226 955q-32 -93 -129 -256l-32 -273v-249h8q42 36 129 218v47l48 428v85h-24zM1258 418v-101l16 16v85h-16z" />
    <glyph glyph-name="Z" unicode="Z" horiz-adv-x="1251" 
d="M1091 1858q16 0 31 -23l-36 -75l5 -53l-10 -90h5q36 -13 36 -30l-15 -15h-16l-5 7q-16 -2 -82 -248l-103 -226v-15h67l87 30l11 -23q0 -43 -201 -75l-11 -22v-16h129l155 -7l10 -23q0 -55 -186 -90h-149q-69 -68 -175 -467l-46 -113v-15h587q72 -15 72 -45
q0 -82 -294 -158l-180 -38l-62 -15h-129q-87 14 -113 30l-103 -45l-10 23l51 128v7h-10q-71 -90 -113 -90l-11 22l11 83h-6q-31 0 -31 23q0 31 98 68q167 336 232 594v8h-103l-15 23l98 37l82 76v22l-108 -30h-5l-16 23q35 33 150 52q27 59 77 249l149 293v16
q-96 30 -257 52h-119q-13 0 -15 30l-278 -45q0 -10 -83 -15l-10 30h-57q-72 15 -72 53q0 45 206 45h423q26 0 30 23h-489l-15 22l15 15h639q36 -2 36 -15zM622 1715h16l263 -53h20q35 29 103 128v8l-335 -60q-67 0 -67 -23zM76 1715h201q67 0 67 23h-149q-119 0 -119 -23z
M762 1112v-30h20q24 16 93 241l103 264v15q-57 0 -149 -286q-23 -30 -57 -188zM885 1165q59 90 108 249v7h-5q-103 -204 -103 -256zM710 1075v-8h5q62 168 62 219h-5q-26 -24 -62 -211zM689 1030v-15h16v15h-16zM725 969v-30h16q21 15 21 45l-16 8q-21 -11 -21 -23zM669 954
v-15h20v23h-5zM839 902h118l109 30l-11 15h-165q-51 -17 -51 -45zM396 262h15q65 22 170 286q83 242 83 316h-31q-13 -6 -145 -384q-92 -189 -92 -211v-7zM669 728v-7q12 3 51 128v15h-10q-16 0 -41 -136zM488 284v-7h6l10 15v7h-5zM566 231v-22q170 -15 242 -38l108 15h31
q94 0 149 -37q98 42 98 60v7l-10 15h-618zM318 134h11l20 15v22q-31 0 -31 -37zM421 88v-22q191 74 289 75v15l-191 15h-46q-27 -27 -52 -83zM555 73v-7l11 -15h154q54 30 268 52q36 18 36 31h-165z" />
    <glyph glyph-name="bracketleft" unicode="[" horiz-adv-x="569" 
d="M146 1858l43 -17h229l137 -17v-18q-73 0 -108 -60l122 -26v-17l-36 -9h-193l-122 -26v-439l36 -456v-259l-29 -293h50q75 -43 136 -43h58l35 -8v-18l-86 -17h-14v-26h50q61 0 93 18l22 -9v-9q-25 -32 -29 -86l-50 -8h-7l-265 25h-7v-17l-22 -17l-43 26l-57 -9
q-72 37 -72 104v241q57 456 57 646l-14 103v43l7 552q19 137 79 137v9zM110 1798l-14 -86l-7 -500q24 0 50 301v207l-7 43l14 17v18h-36zM354 1798q7 -43 29 -43l43 25v18h-72zM168 1445v-1172l14 -17v8l7 638l-7 534l-7 9h-7zM103 954l22 -224v-250q0 -186 -51 -267v-35
l51 -43h7q1 43 14 43l-7 216v818q-12 0 -36 -258zM46 385v-146h7q39 22 43 224v267q-14 0 -50 -345zM211 583v-164l14 18v163zM211 178v-43l93 -26h43l7 43l-108 26h-35zM46 127v-26q0 -26 28 -26l36 9v8q0 22 -64 35zM483 75v-26h36v35z" />
    <glyph glyph-name="backslash" unicode="\" horiz-adv-x="569" 
d="M32 1858h5q66 -106 126 -265h4q0 24 9 24h5q75 -427 149 -593q45 -210 153 -521l50 -232l-5 -24l41 -217l-5 -24h-9q-171 198 -234 417q0 43 -271 818q-36 93 -36 240v281l5 40h9l4 -8h5v8l-9 32zM46 1770v-8l36 -80v16zM32 1682v-233q0 -153 108 -409q0 -32 86 -248
q119 -386 176 -537q61 -97 72 -97v8q-36 97 -149 521q-55 78 -149 490l-139 505h-5zM100 1634v-9q18 -37 18 -80q22 -59 81 -320q9 0 9 -24h5v24q-18 196 -91 368l-13 32l-5 9h-4zM231 1249v-8q15 -238 130 -537q90 -369 140 -369v8q0 34 -153 513q0 24 -72 248
q-33 145 -45 145zM461 343l-5 -8q0 -28 45 -193l-4 -32l40 -40v40q-27 180 -76 233z" />
    <glyph glyph-name="bracketright" unicode="]" horiz-adv-x="569" 
d="M431 1858q65 0 87 -146l7 -552v-43l-14 -112q0 -178 58 -637v-241q-17 -104 -87 -104l-44 9l-36 -26q-29 9 -29 34h-8l-269 -25h-7q-58 0 -58 60l-22 34v9h15v9l101 -18h51v26h-14l-88 17v18l37 8h58q62 0 138 43h51v9q-29 190 -29 284v259l36 456v439l-123 26h-197
l-36 9v17q124 14 124 35q-46 49 -109 51v18l138 17h232q37 0 37 17zM154 1798v-18l59 -25l14 43h-73zM438 1798v-18l15 -17l-8 -43v-207q27 -301 51 -301v17l-7 491l-15 78h-36zM402 1427l-8 -534l8 -637l14 17v1172zM445 1212v-818l-7 -207l15 -52h7l51 43v35
q-51 81 -51 267v250l22 232q-24 250 -37 250zM489 730v-267q4 -202 44 -224h7v146q-36 345 -51 345zM358 600v-163l15 -18v164zM227 152l7 -43h44l95 26v43h-37zM474 92v-8l51 -9l15 26v26h-7q-59 -16 -59 -35zM60 84v-35h36v26z" />
    <glyph glyph-name="asciicircum" unicode="^" horiz-adv-x="961" 
d="M461 1513q21 0 26 -76q47 0 143 -211l135 -203q81 -150 152 -422h-25l-51 34h-8v-144l-9 -42h-8q-136 223 -262 642q-17 0 -76 177h-25q-252 -587 -372 -667h-17v17h-8l8 8v9l-8 67q54 161 220 448q0 120 177 363h8zM335 1251h8q25 0 59 118q-67 -86 -67 -118zM487 1327
v-17l101 -219q17 0 25 -85h17v17q-54 230 -143 304zM149 778h17q44 11 211 431v8q-50 -11 -228 -439zM689 1065v-33q118 -338 161 -338l8 8q-116 357 -169 363zM672 871v-25q80 -249 127 -287v50q0 104 -118 262h-9z" />
    <glyph glyph-name="underscore" unicode="_" 
d="M702 -90h12v-36q-94 -14 -94 -47h130l283 59v-23l-12 -12v-12l118 -59v-24q0 -49 -212 -94v-24l188 -23v-24l-59 -12h-82l-224 24h-319q-44 0 -94 59h-260l-59 12v12q0 23 35 23v12q0 40 -35 83q44 70 106 70l201 -11q188 0 377 47zM89 -220v-24l35 -35l401 -12h24v24
h-47q-41 0 -83 47h-330zM714 -314v-24h95q106 24 106 59h-95z" />
    <glyph glyph-name="grave" unicode="`" horiz-adv-x="682" 
d="M353 1673q63 -35 173 -205q63 -139 162 -238q-49 -76 -97 -76q-141 0 -465 270q-29 0 -119 98v10h54v44q0 54 43 65l87 -22q100 14 162 54zM267 1597v-21q37 0 173 -130l43 -11v33q-107 151 -141 151zM180 1565v-11q0 -28 130 -65h11q0 40 -130 76h-11zM115 1511v-33
l335 -248l11 11q-8 36 -238 194l-75 76h-33zM494 1284v-11q21 -54 75 -54v22l-43 43h-32z" />
    <glyph glyph-name="a" unicode="a" 
d="M733 1199q21 0 116 -77l45 -8v8l13 15h6q123 -210 123 -377q0 -71 84 -500l19 -154l-19 -23v-8l-7 8h-6q-58 -26 -58 -77h-20q-34 0 -103 516q-358 -516 -477 -516h-45l-84 8l-90 -8h-103q-86 0 -110 115v47l32 169q0 91 91 292q113 205 270 416l168 123zM210 422v-39
q0 -84 136 -192q91 0 406 292q103 172 103 316v161q0 57 -71 131h-116q-127 -58 -341 -331q-65 -98 -117 -338zM243 729v-38h6q13 4 65 123l200 231l6 8v7h-13q-196 -159 -264 -331zM875 1053v-31l13 -15h6v46h-19zM920 983v-123l19 -23v8q0 138 -19 138zM997 822v-23
l13 -16v39h-13zM185 660l-104 -231v-38h7q40 38 84 154l26 38v62zM971 568q9 -146 33 -146v7l-20 116v23h-13zM172 483l-13 -92v-23q18 0 26 77v38h-13zM449 175h13q231 113 290 231l26 46h-13q-127 -123 -310 -254l-6 -7v-16zM75 306v-8q0 -79 77 -161h13v8l-32 184v62h-6
q-16 -8 -52 -85zM1042 368v-8q5 -131 26 -131v69q0 59 -26 70zM191 322l-6 -54v-39q22 -46 58 -46h51v23q-20 0 -96 116h-7zM655 268v-16h7l13 16v7zM49 237l-6 -39v-100q36 -61 71 -61h142q-29 45 -123 77l-77 123h-7zM520 145h-45q-72 -93 -103 -93v-15h90q40 0 168 131
l19 30h-13zM191 168v-23l19 -24h97l20 24v7h-71zM288 91h-26v-8q0 -17 58 -31q97 48 103 69v24h-6zM1010 145v-16l13 -69h13v54l-13 31h-13z" />
    <glyph glyph-name="b" unicode="b" 
d="M126 1858h18l8 -42v-58h18v33l9 42h18l9 -33h9l45 33q21 -25 63 -25l9 -42v-333q0 -259 -18 -376h9q161 67 206 67l54 -8q204 91 305 91q139 0 206 -342v-275l45 -150l-27 -150v-75q-56 -184 -143 -184q0 -21 -108 -25h-287q-55 0 -161 75l-252 33l-9 67q-37 -33 -71 -33
h-9l-9 42v308l-45 -8v8l-9 25l72 334l27 208l9 768zM278 1674v-83l18 -17v117zM170 1666v-292q22 0 36 150v142l-18 17zM161 1299l-9 -42v-8l18 17v33h-9zM161 932h27l18 33v242q-18 0 -45 -275zM637 1107l9 -25h71q174 0 234 -133q68 -89 98 -251h9v167q-52 292 -134 292
l-18 17h-18q-84 0 -251 -67zM296 957v-42h18q106 110 197 150v26q-215 -56 -215 -134zM529 1040v-8h45q47 0 54 25l-18 17h-36zM753 1049v-9q91 -84 234 -267h9q-85 276 -243 276zM655 1015h45l-18 17h-9zM296 682v-109l-27 -200v-75q96 -150 224 -150q0 -19 81 -25h63
q231 0 367 108v109q-99 492 -197 492q-176 150 -224 150h-9q-251 -105 -251 -217q-23 -23 -27 -83zM682 982v-8l134 -100v16q-29 50 -134 92zM179 882l-35 -92v-100h26l27 42v8l9 142h-27zM951 690q38 -183 62 -183v133l-44 50h-18zM126 523v-167q35 0 71 309h-9
q-37 0 -62 -142zM152 256v-16h18l36 33v125q-27 0 -54 -142zM1049 215v-42l27 8v50h-9zM188 215v-67h18v67h-18zM251 206v-67l81 -8v17l-72 58h-9zM960 123v-9h27l26 25v17h-9zM861 64h-135l-26 -25h188q90 7 90 42h-45z" />
    <glyph glyph-name="c" unicode="c" horiz-adv-x="1024" 
d="M670 1199q72 0 193 -156l8 -8v-35q-46 0 -46 -78h-16q-12 1 -54 87h-77q-95 0 -418 -337q-24 -95 -47 -130v-17q0 -80 116 -312q135 -103 248 -103h15q122 42 202 155h15v-17h8l-31 -78q149 67 225 147h7v-17h8q0 -104 -225 -285l-54 -9h-31l-147 26h-186q-52 0 -201 130
q-178 71 -178 207v35q0 260 147 466q67 197 139 234l78 -9q64 52 193 69q34 35 109 35zM623 1164v-17l117 -43l7 9v8q0 26 -69 43h-55zM523 1095v-8h147v8q0 26 -124 26zM438 1095v-8l31 -9l7 9v26h-23zM267 1043v-17q36 17 39 35v8h-16zM81 464v-52q0 -61 70 -121l8 9h8
l-47 104v112q0 44 54 138q37 153 132 251l116 130v17h-70q-145 -108 -240 -337q-31 -162 -31 -251zM236 706h8q160 233 356 303v8l-85 26q-78 0 -271 -285zM43 551v-18l15 18v17zM35 481v-121q48 -164 147 -164v9q-132 135 -132 225v69zM198 404v-9q5 -121 54 -121h8v9
q0 43 -55 121h-7zM740 110v-18h46q41 0 77 44v17zM670 58v-17h101l15 17h-116z" />
    <glyph glyph-name="d" unicode="d" 
d="M1110 1858h22l7 -37v-366l-15 -261v-239q-36 -309 -36 -440q-37 -158 -37 -292v-74l-22 -105h-15q-58 0 -58 135l-8 7h-14q-69 -92 -345 -172l-30 -7h-95q-403 68 -403 142q-59 68 -59 164v52q0 240 286 381q137 119 176 119q94 -7 169 -30q191 60 227 60l52 -37h14
q0 188 66 388l8 582l7 23h15q0 -31 44 -83q20 -149 44 -149v239zM1066 1597v-164l14 -142v-418l15 15v358l-15 343l-7 8h-7zM1007 1074q22 8 22 45v52q-19 0 -22 -97zM963 1030l-15 -254l8 -23h14v8l8 283zM1000 626l7 -104l-7 -7v-8l7 -82v-149h15v149q29 341 29 612
q-44 -24 -51 -411zM765 835q0 -22 88 -29v-8l-15 -30q5 -23 66 -59h15v67q-37 84 -59 89q-95 -5 -95 -30zM413 806v-8q33 15 36 30h-7q-29 -11 -29 -22zM457 783v-7h44l36 7v23h-58zM626 798v-15h44v15h-44zM684 753q0 -27 118 -52h22v15q-18 37 -110 37h-30zM141 522v-15
q186 178 301 239h-7q-158 -37 -191 -105q-41 -10 -103 -119zM112 358q42 -101 242 -164l110 -15h103q293 192 293 306v127q0 67 -102 67q-89 55 -221 59q-34 0 -381 -276zM31 395v-97q40 73 66 224q88 106 88 127h-7q-147 -123 -147 -254zM890 619v-119q0 -132 -242 -291
v-23h14q228 90 228 187q29 30 29 82v142l-22 22h-7zM105 298v-22q0 -82 183 -187h154l81 37v23h-44q-154 0 -338 119q-11 30 -22 30h-14zM882 291l-14 -15l-66 -75h7q42 0 88 90h-15zM736 111v-7q104 0 198 127v37h-8q-57 -79 -190 -157zM75 223v-7q0 -42 74 -82h14v15
l-73 74h-15zM582 111v-22h29q87 24 183 97v15h-7zM442 37h162l7 22h-147z" />
    <glyph glyph-name="e" unicode="e" 
d="M712 1199q67 0 130 -89q102 -57 102 -120v-74q-12 -162 -73 -239q-191 -201 -318 -201q-23 -45 -80 -45h-203l-101 23h-7v-30q0 -102 224 -201h456q198 68 261 208q7 45 22 45h7v-15h7q0 -141 -232 -387q-108 -60 -181 -60h-123q-76 0 -166 60h-94q-246 44 -246 186
q-22 74 -37 238q-19 0 -43 127v52q0 141 159 351q147 149 449 149q0 18 87 22zM647 1154v-15h14l123 -15v15q0 17 -65 30h-58zM480 1095v-15l203 -52v22q0 31 -130 67h-15q-53 0 -58 -22zM162 573v-22h202q333 67 333 223l22 67v127q0 27 -231 82l-44 22
q-282 -171 -282 -499zM712 1072v-7q0 -63 130 -97l7 -7v-8l-29 -171h29q29 15 44 44v45q-36 186 -123 186zM857 1065v-15l50 -60h8v23q-29 52 -58 52zM118 685v-134h15v7q0 272 188 462h-14q-167 -98 -167 -238q-18 -15 -22 -97zM748 968v-112l-29 -127v-7h22q48 0 79 224z
M46 715v-120l22 -22v186q-22 -7 -22 -44zM734 618l7 -8h7q101 77 101 142h-14q-23 -9 -101 -134zM538 558h15q89 0 166 82l7 7v30h-7q-65 -57 -181 -111v-8zM509 528h-94v-15h167l14 15v8zM162 521v-37l94 -23h246l14 15v8h-275q-28 37 -58 37h-21zM111 320v-15
q15 -14 15 -75q30 -82 86 -82l95 -45h36v8q-60 68 -181 112l-44 97h-7zM307 193q0 -48 144 -90h29l36 8v7q-7 18 -188 75h-21zM480 193q0 -22 80 -22h181l36 7v15h-297zM719 96h-123l-87 -15v-7q10 -30 65 -30h181q98 9 203 112l15 37h-8q-24 0 -130 -75q-54 -22 -116 -22z
M792 148v-15h7l36 15v15h-7z" />
    <glyph glyph-name="f" unicode="f" horiz-adv-x="569" 
d="M307 1858h4q73 0 249 -235q9 0 9 -24q-67 -163 -160 -163v18q61 66 80 114v73q-48 -117 -98 -145h-4v6q80 99 80 157v12q0 50 -125 127h-4q-92 -47 -116 -91l18 -120v-85l31 -392q9 0 9 -36h89q24 24 40 24h13q15 0 31 -18h27l5 6l13 -6v-12q0 -14 -62 -24l-23 -61
q-44 -36 -66 -36l-31 6v-6q57 -260 57 -368v-350l-35 -223h-13v36q0 12 -14 12l-4 6v6l-22 -12v6l-5 24v230q0 53 -138 651q0 18 -9 18h-31l-22 6v12l22 6h27v12q-19 43 -27 43l5 42q-98 308 -98 386v54q0 166 187 272q88 42 111 42zM213 1761v-18q36 9 85 67h-36
q-23 0 -49 -49zM129 1659v-12h9q0 33 35 102v12h-8q-36 -43 -36 -102zM191 1731l-22 -54h4l27 42zM80 1671v-78q6 -61 18 -61l22 193h-9q-12 -7 -31 -54zM173 1587v-127q0 -80 67 -235h5v12l-23 277v79l-13 90h-4q-32 -38 -32 -96zM147 1556q0 -223 44 -337q30 -145 45 -145
h17q0 78 -53 199l-44 175v145q0 31 13 54v18q-22 -14 -22 -109zM27 1568v-90q0 -59 62 -265h13v6l-4 241q-36 74 -36 151v48h-4q-31 -42 -31 -91zM507 1653v-66q0 -32 -49 -109v-6q43 22 93 121v12q-7 24 -35 48h-9zM120 1538v-108l13 -18l-4 60v66h-9zM138 1297v-12
l40 -199h13q0 82 -49 211h-4zM120 1255v-6l5 -151l13 -12h18v12h4q-22 75 -31 151l-4 6h-5zM142 1062v-24q8 -25 31 -25v13q0 31 -13 36h-18zM187 1062v-12l4 -31h9l9 13q-6 30 -13 30h-9zM231 1056v-18h18v12zM302 1001l5 -6h66q26 0 40 43v12h-4q-50 0 -107 -49zM160 977
q6 -60 18 -60v60h-18zM196 965v-48q0 -65 106 -525h5v109q-76 409 -98 464h-13zM253 959q0 -46 18 -54v12l-4 42h-14zM285 953l57 -495v-271l14 18v386q0 124 -63 362h-8zM271 778v-12l9 -12v12zM298 217v-48l9 12v24z" />
    <glyph glyph-name="g" unicode="g" 
d="M965 1191h17l66 -266q56 -313 91 -772v-66q-83 -302 -191 -349q-25 0 -74 -58q-135 -100 -200 -100h-116q-61 0 -224 100q-216 85 -216 191q-20 0 -42 133l25 41v25l-8 8l8 25h9q172 -248 340 -248q53 -34 100 -34h75q274 93 274 183q24 0 49 91v432h-8
q-151 -150 -457 -200h-8q-53 0 -266 133q-77 0 -191 141l-8 9v8q0 163 158 316q112 182 307 182h17l124 -16l33 16q123 -52 200 -66h25v66h8q17 0 17 -25l8 -8h8q34 0 50 108zM674 1066v-24h50v16l-41 8h-9zM940 1050v-50h17v50h-17zM201 917v-17h8q88 83 208 125l8 8v9h-33
q-56 0 -191 -125zM126 668v-17q0 -31 374 -91q5 -13 174 -50h67q70 0 174 257l8 67v33q-118 102 -298 141h-142q-138 -22 -265 -141q-92 -109 -92 -199zM998 975v-50h17v33zM1015 826v-17l-9 -83l9 -116v-150l16 -16l9 41v249q0 92 -25 92zM52 676l-9 -8v-58l25 -25h8v41
q0 43 -24 50zM168 593l-9 -8q0 -117 341 -133h166l42 8v17h-9l-324 75zM110 568v-16h25l-17 16h-8zM849 502h16q50 33 50 66q-52 -34 -66 -66zM334 427v-8l116 -58h58q133 27 133 49h-224l-75 17h-8zM1065 419q-44 -247 -67 -573h17q91 188 91 232v92q-14 249 -41 249z
M110 -21q27 -125 91 -199q211 -105 241 -133l99 -33h150q192 70 266 224l8 33v67h-8q-49 -115 -183 -200l-233 -16q-340 55 -340 149l-75 108h-16zM201 -79q65 -133 191 -133v8q-32 38 -166 125h-25zM741 -229v-8q73 9 158 133v8h-17zM625 -212h-50l-125 25h-8v-8
q60 -42 83 -42h100l116 50v17h-9q-24 -22 -107 -42z" />
    <glyph glyph-name="h" unicode="h" 
d="M27 1858h29l59 -60q16 0 40 60h19q109 -162 109 -256v-597h19q156 119 197 119l158 -34h118q90 0 167 -154q197 -213 197 -665v-111l-10 -43h-20l-9 43v76l-79 -230h-20l-10 43v94q0 118 -147 452q0 104 -197 350l-39 25q-34 0 -315 -239l9 -102v-350q-39 -222 -167 -222
q-20 63 -79 657q-29 107 -29 214v85l-10 819zM194 1713l-10 -111l10 -623v-102h20l29 25v726q-12 85 -39 85h-10zM86 1610v-145q29 0 29 137v26h-9zM106 1201q7 -196 39 -196v392q-26 0 -39 -196zM667 996v-9q0 -22 98 -136q98 -160 207 -487h19v9q0 382 -157 529
q-74 103 -138 103zM381 945l10 -9h10l29 26v8h-9q-40 -12 -40 -25zM293 800v-17h29q170 179 217 179v8h-20q-107 -44 -226 -170zM214 766v-43h20v43h-20zM106 749v-35l19 17zM125 492v-145q6 -51 30 -51v103q0 93 -30 93zM214 262l-10 -111h10l20 17v77zM155 143v-35h29v26z
" />
    <glyph glyph-name="i" unicode="i" horiz-adv-x="455" 
d="M341 1858l13 -23v-187q7 -23 39 -23l52 31l13 -24q0 -20 -110 -116v-94l-13 -23q-13 0 -52 62h-13q-35 -10 -98 -85l-26 -8l-13 23v47q0 51 52 124v16q-37 62 -156 140l-7 8v8q0 19 26 23l176 -70l33 -8q30 36 71 171l7 8h6zM302 1679v-31h20v31h-20zM250 1578
q9 -39 46 -39l19 23v39q-32 0 -32 16q-18 0 -33 -39zM217 1531l-32 -54h13q39 8 39 23v23zM309 1033l19 -15h20l26 7q26 0 52 -93v-762q0 -31 -65 -102q0 -46 -46 -46l-26 23l-26 -31h-6l-7 39q0 206 -26 350v132q-33 49 -33 148v272l7 39h6l20 -15zM328 987v-78h7
q29 13 45 46v32l-19 7zM263 979l13 -156h13l7 78v86h-20l-6 -8h-7zM341 870l20 -125v-155q0 -82 26 -234h13v382l-20 163h-13zM217 862v-218l7 -54h13v257l-13 15h-7zM270 699v-47q15 -202 45 -202v15q0 75 -32 234h-13zM263 457v-155h13l7 39v109zM270 255v-70l13 -15v85
h-13zM361 216v-85h13v101zM276 154v-47h13v31zM315 107v-7l7 -39h13v62h-7z" />
    <glyph glyph-name="j" unicode="j" horiz-adv-x="455" 
d="M340 1858l13 -23v-187q6 -23 39 -23l52 31l13 -24q0 -20 -111 -116v-94l-13 -23q-13 0 -52 62h-14q-35 -10 -98 -85l-26 -8l-13 23v47q0 51 52 124v16q-37 62 -157 140l-6 8v8q0 19 26 23l177 -70l32 -8q31 36 72 171l7 8h7zM300 1679v-31h20v31h-20zM248 1578
q9 -39 46 -39l19 23v39q-32 0 -32 16q-18 0 -33 -39zM215 1531l-33 -54h13q40 8 40 23v24zM307 1034l19 -16h20l26 8q26 0 53 -94v-731l13 -46l-7 -202v-31q-58 -343 -183 -343q-82 0 -184 203q-52 128 -52 179h7q24 0 39 -109h20q20 93 39 93h6q0 -60 118 -148h7l33 109
q-31 76 -53 466l-6 31v133q-33 48 -33 147v273l6 39h7l20 -16zM326 987v-78h7q30 13 46 47v31l-20 8zM261 979l13 -155h13l7 77v86h-20l-7 -8h-6zM340 870l19 -124v-156q0 -82 26 -233h13v381l-19 163h-13zM215 862v-217l7 -55h13v257l-13 15h-7zM267 699v-47
q16 -202 46 -202v16q0 74 -32 233h-14zM261 458v-156h13l7 39v109zM267 256v-70l14 -16v86h-14zM359 217v-31h13v46zM274 155v-47h13v31zM313 100l13 -15v31zM379 85v-55q0 -46 -33 -46l13 -124v-47h7q16 0 32 202l7 7v8l-7 55h-19zM130 -140q15 -109 39 -109h46
q0 47 -79 109h-6zM248 -273v-23h6q40 34 40 101v16q-46 -57 -46 -94zM313 -249l-6 -8v-16h13l13 16zM169 -280v-16h46v16h-46zM261 -343l6 -7h14v23h-7zM182 -343q2 -17 40 -46h19v23l-19 23h-40z" />
    <glyph glyph-name="k" unicode="k" horiz-adv-x="1024" 
d="M91 1858h16l8 -37v-98l58 105h25q0 -36 75 -120v-637l66 -285v-53l8 -37h25q355 299 414 315v-23q-199 -205 -199 -255q72 40 124 143l91 45v-8l17 -37v-15q-151 -85 -298 -285l-33 -30v-15q184 -64 422 -225q101 -39 116 -83l-8 -45l8 -37l-99 -23l-58 8q0 -23 -17 -23
h-16q-22 30 -141 75q0 28 -240 83v-23q0 -102 -124 -232h-17q-29 5 -66 105l8 112h-16q-51 -202 -83 -202h-9l-132 1080v180q0 102 75 577zM165 1746l-17 -105q15 0 42 97l-8 8h-17zM49 1303v-15q23 0 33 218q-23 0 -33 -203zM107 1378q-16 -67 -16 -180v-405
q16 -262 49 -262l42 300v240q-25 68 -58 300l-9 7h-8zM215 846v-218l8 -90h17v158l-9 150h-16zM273 778v-15l16 -142h25l8 22l-33 135h-16zM372 628l8 -22h25q52 0 124 127v8q-40 -14 -157 -113zM173 561v-398q33 0 50 113v90q0 64 -33 195h-17zM422 493q0 -65 281 -165l8 8
v7q-36 7 -74 68q-179 82 -207 82h-8zM273 478l-17 -60q33 -92 33 -165l-8 -157q16 -34 33 -38l17 15q0 206 -42 323l8 52q-12 30 -24 30zM380 403v-75l17 -15h25v53l-9 37h-33zM695 403l33 -30v8l-25 22h-8zM455 388v-75l132 -30l9 8v7q-79 90 -133 90h-8zM620 321v-8
q42 -60 116 -60h9l16 15q-108 53 -132 53h-9zM786 306v-23l58 -15l16 15zM380 283v-90l9 -37h8q25 5 25 60v67h-17v8zM885 238v-7q0 -17 91 -45l17 22v15q-25 38 -58 38q-50 -8 -50 -23zM819 231v-8l17 -15l16 15l-8 8h-25z" />
    <glyph glyph-name="l" unicode="l" horiz-adv-x="455" 
d="M83 1858h18l10 -45h28q71 45 103 45l56 -27l19 18h9l9 -44v-259q113 -275 113 -525l9 -650q-82 -294 -140 -294l-38 -35h-9q-19 0 -19 26h-19q-36 -26 -84 -26h-47l-9 -36h-19l-9 27l19 338v312l-66 561v409q33 205 66 205zM129 1707q42 -392 66 -392l9 178v312h-18
q-33 0 -57 -98zM73 1760l-19 -80v-481q0 -116 29 -116v588l9 89h-19zM242 1671v-187l18 18v169h-18zM335 1413v-526l-84 -400l9 -107v-214q0 -65 28 -71h10q46 11 122 258l-10 713q-31 347 -75 347zM270 1324l-19 -543v-72h19v54l28 107v498q-22 0 -28 -44zM157 505
l-37 -428h47l9 223v187z" />
    <glyph glyph-name="m" unicode="m" horiz-adv-x="1706" 
d="M261 1199q27 -145 45 -145q131 105 222 105h17q52 0 133 -65h18l89 16q49 -2 160 -209h17q102 209 275 209h9l71 -24l124 8q142 -38 142 -129q27 -66 54 -467q71 -161 71 -290v-105q0 -44 -36 -57h-18l-44 65h-36l-88 -8l-18 48v177q-47 506 -160 589q0 24 -26 24
q-249 -86 -249 -234l-44 -96v-395l-9 -41h-18q-6 41 -26 41v-105l-45 -105h-35l-9 32l27 170q-27 0 -36 145q-56 389 -160 491q-24 12 -88 121h-27q-107 -42 -266 -185l-9 -403l-27 -137l27 -170l-9 -24h-9q-14 0 -35 73q-68 0 -142 177l-9 32l9 162v282q-80 253 -80 298
l9 40h18l17 -104h9v137l9 40h9q62 -48 62 -89h18l62 97l9 8h26zM226 1135l-53 -105l35 -137h9l44 88v16l-17 138h-18zM465 1102q0 -14 80 -40l54 48l-18 16h-89zM732 1062l88 -65q0 -25 45 -48h9q0 51 -89 129h-27zM1158 1054v-8h17l27 24h-27zM616 1022q0 -12 98 -33v25
q-17 29 -53 40q-41 -16 -45 -32zM403 1046q-71 -62 -71 -161v-8h9q114 55 160 137v16zM1486 1038v-8l35 -65h27v24q-31 49 -62 49zM1273 997l97 -72l9 8q-41 97 -62 97h-9zM1379 1022v-25q71 -114 116 -274h9v89q0 111 -98 210h-27zM1149 989v-16h9q20 0 26 41h-9zM1193 957
v-8h27l26 24l-18 16zM1033 909v-8h9q16 2 53 72v8q-14 -1 -62 -72zM661 973v-16l26 -24h9v16l-26 24h-9zM785 973l-9 -8l106 -298h9q-24 282 -80 282zM741 852v-24l17 -16v16l-9 24h-8zM909 836v-72h27v8q0 59 -27 64zM226 740v-17l18 -16v33h-18zM927 691l9 -97v-72l17 -16
v193h-8l-9 -8h-9zM1610 441v-137l35 -201l27 -8v145q-24 201 -62 201zM164 353q-36 -47 -36 -73q15 -54 80 -97v49q-20 121 -44 121zM1512 143h80v32l-9 41h-9z" />
    <glyph glyph-name="n" unicode="n" 
d="M297 1199q31 -145 52 -145q152 105 256 105h21q60 0 154 -65h20l103 16q103 0 236 -379v-515l-11 -41h-20q-8 41 -31 41v-105l-51 -105h-41l-11 32l31 170q-31 0 -41 145q-65 389 -184 491q-29 12 -103 121h-31q-124 -42 -308 -185l-10 -403l-31 -137l31 -170l-10 -24
h-10q-16 0 -41 73q-79 0 -165 177l-10 32l10 162v282q-92 253 -92 298l10 40h21l20 -104h11v137l10 40h10q72 -48 72 -89h20l72 97l11 8h30zM256 1135l-61 -105l41 -137h10l51 88v16l-20 138h-21zM533 1102q0 -14 93 -40l61 48l-20 16h-103zM841 1062l103 -65q0 -25 51 -48
h10q0 51 -102 129h-31zM708 1022q0 -12 113 -33v25q-20 29 -62 40q-47 -16 -51 -32zM461 1046q-82 -62 -82 -161v-8h11q131 55 184 137v16zM759 973v-16l31 -24h10v16l-31 24h-10zM903 973l-11 -8l123 -298h11q-28 282 -93 282zM851 852v-24l21 -16v16l-10 24h-11zM1046 836
v-8l31 -234v-72l21 -16v217q-25 113 -52 113zM256 740v-17l21 -16v33h-21zM184 353q-41 -47 -41 -73q17 -54 93 -97v49q-24 121 -52 121z" />
    <glyph glyph-name="o" unicode="o" 
d="M580 1199h14l244 -65q86 0 86 -49q136 -167 150 -259q65 -48 65 -203q0 -205 -158 -357q-224 -227 -394 -260h-72q-301 32 -301 65q-36 67 -136 187q-29 62 -36 170q-20 0 -29 114q0 218 186 478q110 152 208 163h115zM250 996l7 -8h7q0 36 115 138h57v16h-7
q-134 0 -179 -146zM501 1126l294 -89v8q-97 97 -280 97zM429 1093l-29 -48h7l87 24h57v16zM823 1085v-8q55 -81 101 -81h7q0 36 -108 89zM271 939h7l86 114v16h-7q-48 -42 -86 -130zM235 550v-81q35 -276 244 -276l79 -25h86q157 26 316 219q36 56 36 106v122
q-78 271 -180 316q-41 36 -308 106h-7q-68 -13 -215 -219q-34 -43 -51 -268zM780 1004v-8q0 -15 101 -81l72 -89h7v8q0 88 -180 170zM42 493h14l57 243q94 180 94 220h-8q-104 -84 -157 -374v-89zM307 899h7q29 16 29 48h-7q-29 -16 -29 -48zM988 850v-16l22 -73h14v48
l-28 41h-8zM171 801l-43 -121h14q36 25 36 105v16h-7zM207 720l-15 -251l7 -9h8v122l14 65v73h-14zM1089 704v-73l14 16v57h-14zM142 542v-171q0 -55 115 -122l7 9q-100 154 -100 259v49zM1024 420v-24h15v24h-15zM78 347v-8q0 -41 57 -114h7v16q0 60 -57 106h-7zM228 225
v-16q53 -81 101 -81h129q-77 53 -230 97zM185 209l-7 -8v-8l21 -17h8v9zM228 120q0 -49 43 -49h22v16q-10 33 -65 33zM608 95h-265v-8l21 -24h244q101 19 101 40v9h-22z" />
    <glyph glyph-name="p" unicode="p" 
d="M548 914q440 -33 440 -101q154 -146 154 -274v-80q0 -96 -42 -180q0 -116 -56 -116q-115 -87 -252 -87q-499 0 -545 87h-21v-14h-7l7 -22q0 -197 49 -368v-151l-7 -37h-14q-26 69 -42 224h-7v-173q0 -51 -49 -51q-28 8 -28 44v303l-91 411l-7 22v21q35 144 35 239
q0 124 42 159h7q0 -35 35 -87l105 101q68 58 224 101q22 29 70 29zM799 856q287 -175 287 -317l14 -152l14 14v159q0 121 -196 282l-70 14h-49zM541 827v-7q105 -29 293 -36v7q0 25 -126 51l-28 -15l-42 15h-83zM282 770v-8h7l21 22h-14zM611 762v-14q257 -48 412 -173l7 -8
v15q0 79 -357 180h-62zM219 401v-14q17 -26 280 -108q0 -15 35 -15h258q76 0 210 108q17 0 35 80v65q-82 110 -287 166l-216 72q-148 0 -189 -94q-119 -148 -126 -260zM827 755v-7q0 -15 119 -51v8q0 28 -105 50h-14zM170 502l14 -72q16 3 49 116l126 180l-7 7
q-64 0 -182 -231zM128 401l-7 -21l7 -22h14v29zM1002 264v-14h7q32 12 49 43v58zM771 235h-98l14 -14h196q117 68 126 94l7 29h-21q-109 -109 -224 -109zM247 329v-7q59 -58 168 -58h7v15l-168 50h-7zM254 271q34 -65 175 -65h154q-10 29 -63 29h-77q-91 0 -182 36h-7z
M86 250l-7 -7v-8q17 -110 42 -130v15l-7 123zM219 250v-7l21 -22h7v14l-14 15h-14zM142 206l14 -281l7 -7h7v173l-14 115h-14zM834 149h7q102 0 161 57h-14q-150 -37 -154 -57zM261 192v-7q0 -25 77 -36v21l-70 22h-7zM408 149v-8l14 -14h56q0 18 -70 22zM590 149l14 -15h69
v15h-83zM156 -284v-116h21v65l-7 51h-14z" />
    <glyph glyph-name="q" unicode="q" 
d="M522 936l172 -80q88 -59 147 -152h6q30 53 30 87h6q35 -5 41 -297q16 0 24 -102v-22q-18 -51 -18 -145q-21 -49 -65 -290v-174h6q45 27 106 196q31 34 119 87h17v-15l-59 -72v-14h12l41 43h24v-7q0 -20 -130 -167q-53 -117 -130 -167q0 -65 -83 -65l-23 -8h-36v22l12 22
v160q41 165 41 384h6l-6 22h-12q-57 -88 -461 -88h-17q-118 0 -243 124q0 77 -35 174l-6 87v80q0 161 183 326q49 20 331 51zM32 421l11 -15q0 281 113 349l142 123h-42q-129 0 -224 -283v-174zM268 813v-7q159 7 248 36v7l-12 15h-70l-48 -15l-12 15q-106 -26 -106 -51z
M711 806l18 -22h6v7l-12 15h-12zM103 588q88 94 266 160l88 21v15h-53q-301 -96 -301 -196zM173 726v-7q101 36 101 50v8h-12q-89 -22 -89 -51zM97 537v-65q0 -106 195 -189h230l260 109l6 7v22q0 126 -159 334q-28 22 -107 22q-65 -37 -242 -88q-169 -103 -183 -152z
M676 755l-6 -7q123 -198 142 -298h6l12 73q-100 232 -154 232zM859 421l-6 -7v-37h12l6 37l-6 7h-6zM79 370v-58q24 -43 47 -43v14zM114 363q0 -55 107 -116l6 -7h165l12 14h-83q-97 0 -189 109h-18zM617 298v-15h6q90 0 142 58v7h-6zM599 254h-65q-45 0 -53 -29h124
q103 0 142 44l12 21h-6q-77 -36 -154 -36zM765 254v-14h5l18 21v8h-12zM877 261l-6 -138q16 0 35 131l-11 15zM126 225q49 -58 142 -58q-27 36 -142 58zM841 225l-11 -116v-174l11 15l12 275h-12zM688 189v-22q65 11 65 36v8h-6zM404 167v-14h59l12 14h-71zM570 145h47
l12 15v7q-59 -4 -59 -22zM765 -398h17l18 21v189q-9 0 -30 -189z" />
    <glyph glyph-name="r" unicode="r" horiz-adv-x="682" 
d="M107 1199h8q52 -36 97 -237h7q132 218 246 218h23q85 0 187 -265l7 -66v-76l-7 -47h-15q0 37 -15 37l-68 -18h-59q-18 28 -53 28l-7 47v104q-55 86 -104 86h-8q-126 -142 -134 -199q37 -245 37 -379q0 -280 -82 -322l-75 -104h-15l-52 653v483l7 48h15l8 -48v-47h15
q0 49 37 104zM107 1142l-15 -85v-123q9 -95 30 -95v114q4 131 22 142q-14 43 -29 47h-8zM398 1133v-19l60 -29h52q-11 57 -52 57h-22zM585 1029l22 -171v-66h15q30 15 30 66v19q0 72 -67 152zM488 1000v-47l15 -19v19l-8 47h-7zM533 972v-10l30 -123h14v57q0 51 -37 76h-7z
M503 915v-76l22 -28h15q-19 104 -37 104zM152 801v-56q0 -228 30 -228v142q0 142 -30 142zM92 650v-10q0 -334 67 -483v95l-59 398h-8zM92 233v-9l8 -142h22l8 28q-18 123 -38 123z" />
    <glyph glyph-name="s" unicode="s" horiz-adv-x="1024" 
d="M413 1199q126 0 273 -105l11 -8v-8q-13 -129 -125 -129q-61 0 -79 129l-46 24h-68q-102 -64 -102 -145v-16q0 -86 329 -137q192 -49 295 -177q125 -135 125 -177v-105q0 -217 -193 -274q-68 -64 -193 -64q-443 0 -601 266l-34 129q57 42 57 80h22q98 -185 307 -266
q169 -32 385 -48q91 8 91 32v234q0 145 -488 225q-249 216 -249 290v65q0 132 283 185zM550 1070v-8l11 -80h23q45 16 45 40q-16 33 -57 48h-22zM289 829q115 -107 249 -145h91q0 20 -182 56l-136 97l-11 -8h-11zM516 788v-16l147 -32h23q0 19 -170 48zM708 724l57 -40h11v8
l-45 32h-23zM368 716q23 -32 68 -32l-57 32h-11zM618 651v-16q98 -3 226 -96h12v8q-71 104 -148 104h-90zM266 216v-24q36 -56 125 -104h238l113 24v8h-11l-181 -8h-46q-98 0 -227 104h-11zM413 176v-8l34 -24h103q0 22 -114 32h-23zM198 160v-8l45 -32h12v16q0 18 -57 24z
M697 63v-16h34l23 16l-12 8z" />
    <glyph glyph-name="t" unicode="t" horiz-adv-x="569" 
d="M279 1858h6l6 -46v-166l39 -258v-73l12 -175v-175h136q19 0 51 -46h6v-19l-6 -9v-9l40 -9v-19l-28 -9h-120l-74 -18l6 -111v-488l-17 -230h-11q-13 0 -17 46l-69 -18q-62 36 -62 248l-17 341v147h-34l-29 9v28q0 15 40 28v9h-28v9q0 19 45 37l6 9v37h-120l-28 9v19l28 9
h120l34 488l-6 138v55l6 46h6l17 -18q0 133 62 184zM273 1278l18 -240v-55l11 -18l6 9v285l-12 203q-23 0 -23 -184zM228 1232v-28l11 -18v27zM200 1195l-17 -230h45l-23 230h-5zM234 1158v-46l11 -18v46zM183 928v-37h45v28l-28 9h-17zM319 790v-249h11v230zM183 762v-165
q12 -95 17 -461l39 -74q57 0 57 37q-15 221 -28 221q-23 0 -23 157v175l-6 110h-56z" />
    <glyph glyph-name="u" unicode="u" 
d="M73 1199h17q16 0 24 -81q74 -18 74 -122v-149q0 -350 148 -556l32 -14h238q33 0 156 163q90 206 90 461v176l8 68h8q121 -204 205 -665q66 -194 66 -244v-13h-16q-14 0 -33 81h-17l9 -95v-40h-17q-54 99 -115 311h-8q-34 -8 -65 -271q-199 -203 -304 -203q-77 54 -246 95
q-74 100 -188 190q-39 0 -123 325v393q0 122 49 122zM49 752v-136q0 -62 41 -108l-25 244h-16zM123 738l-9 -95v-27q30 -163 74 -163v14q-39 271 -65 271zM893 670v-162h25l8 95q-16 61 -33 67zM836 480l-25 -108v-27h8q38 26 41 54v81h-24zM1024 440v-14q22 -87 41 -95v27
q-11 56 -41 82zM811 209l49 68v27h-8q-41 -40 -41 -95zM303 223v-14q0 -33 90 -67v13q0 41 -74 68h-16zM573 142v-14h66q57 57 57 81v14h-24q-60 0 -99 -81zM450 196v-41l41 -13h9l32 54h-82z" />
    <glyph glyph-name="v" unicode="v" horiz-adv-x="1024" 
d="M19 1199h9l134 -213h8l-25 113l9 37h16q0 -46 210 -502q121 -274 168 -427h17q36 0 184 829h17l8 -88q20 0 67 226h17q34 -21 34 -88v-126h17q0 49 109 189h8q0 -39 -92 -226l-9 -51v-12l9 -13q-93 -327 -168 -489v-139q0 -188 -59 -188h-25l-92 25q-51 -50 -76 -50
q-86 18 -218 389q-285 556 -285 766zM841 1061l-25 -151v-63h9l33 139v75h-17zM78 1036v-25q30 -93 92 -201h9q0 98 -101 226zM665 408q62 0 118 515q-32 0 -118 -515zM288 734q95 -389 184 -464h17l-142 364q-23 83 -51 100h-8zM707 307q0 -31 -100 -188q5 -38 67 -38h50
l8 63v163h-25zM430 207l9 -13h33l-8 38h-17z" />
    <glyph glyph-name="w" unicode="w" horiz-adv-x="1479" 
d="M30 1199h9q12 0 54 -141l9 -10h9v30l-18 101h18q24 -17 109 -424q113 -255 172 -444h9q90 257 162 565q109 173 109 202q54 0 54 50h18q141 -152 280 -565q63 -152 127 -202h27l135 525v141l9 51h18l9 -51v-100h19v80q0 51 45 51l36 141h18l9 -50q-45 -125 -145 -737
l-81 -202l18 -61v-10l-45 10q0 -74 -27 -80q-162 125 -298 363l-190 414l-9 10h-9q0 -65 -154 -454q-56 -343 -135 -343l-9 -61h-9q-159 121 -344 929l-27 80zM753 1027v-10l45 -70v20q-21 60 -36 60h-9zM84 947v-31q41 -45 45 -111q19 0 37 -80l9 -10h18l-82 222v10h-27z
M735 937v-71l36 -51h9v71l-36 51h-9zM816 916v-20q109 -276 136 -292v30q-63 99 -63 192l-64 90h-9zM554 694v-40h9l64 222v20q-30 0 -73 -202zM780 795v-30l18 -20v30zM157 644v-10q103 -444 144 -444h9v30l-135 394l-9 30h-9zM545 644l-9 -51v-10h9l9 51v10h-9zM952 583
v-10l18 -20h9l-9 30h-18zM256 543v-30q24 -124 99 -263h9q-66 293 -108 293zM509 533v-30l18 20v10h-18zM934 503v-10q137 -245 181 -283l9 10q0 100 -172 283h-18zM1250 392v-10h27v10l9 111q-22 0 -36 -111zM455 361v-20q24 0 45 131v10q-25 0 -45 -121zM337 139v-20
l9 -30h18v20z" />
    <glyph glyph-name="x" unicode="x" horiz-adv-x="1024" 
d="M990 1199h18v-18q-86 -93 -99 -181q27 0 27 -18v-18q-87 -61 -181 -280q-118 -101 -118 -127q55 -114 389 -461v-63l-54 -27q-22 18 -145 27q-8 54 -280 398q-181 -171 -181 -253l-162 -127h-9l54 118l-9 9h-9q-136 -127 -172 -127v27l91 118l-9 36q298 287 298 352
q-162 220 -416 452l-9 46v9q36 0 36 54l109 18q120 0 370 -443h9q101 138 343 352q0 34 109 127zM113 1109q164 -164 262 -226v18q-115 226 -225 226h-19zM68 1082l-9 -37q76 -84 100 -90v18q-67 109 -82 109h-9zM231 937l244 -325h9l27 72q-214 234 -262 253h-18zM574 684
q0 -49 36 -63l208 289v18q-32 0 -244 -244zM384 874v-9l19 -18v27h-19zM502 575q6 -27 36 -36q36 9 36 54l-27 28h-9q-19 -4 -36 -46zM466 530l-9 -9v-27l27 9v9zM574 476q30 -66 63 -72v18q-18 81 -36 81h-9q-18 0 -18 -27zM357 313l9 -9q50 20 136 154v9h-9
q-136 -91 -136 -154zM719 304v-18l90 -117l9 9v27zM186 205h18q54 25 54 63h-9q-25 0 -63 -63zM845 142v-19l18 -63h73q0 48 -73 100zM972 87v-9l18 -18h9v27h-27z" />
    <glyph glyph-name="y" unicode="y" horiz-adv-x="1024" 
d="M162 996h7l7 -42v-42l-21 -184v-92q0 -77 99 -159l56 -9h323q61 30 175 260v8l-7 176q0 40 35 76h14l36 -34l7 42h14l7 -25l7 -469v-101l21 -8l63 435h14l7 -25l-56 -385v-519q0 -114 -70 -151q-37 -6 -134 -109l-140 -59q-162 0 -267 68q-295 89 -295 301
q-28 50 -42 159l7 25h7q14 0 49 -175h14l-7 74l7 26h7q132 -327 260 -327l105 -50q232 50 232 134l133 419v50l7 125h-14q-79 -103 -196 -125q-86 -67 -155 -76h-70q-118 21 -161 84q-40 60 -134 126q-105 219 -105 293v25l35 118v83l7 42h14l7 -42v-42h7zM99 845v-17
l14 -16h14q0 28 21 58v51h-7q-42 -30 -42 -76zM57 711v-33l14 -17v50h-14zM99 661v-17q5 -134 28 -134h14v8q-18 143 -42 143zM773 602v-17l21 26v16zM822 577q-39 -134 -224 -243l-85 -17h-35l-210 42h-14v-8q0 -80 140 -109h105l218 100q126 78 126 235h-21zM169 510v-8
q10 -35 36 -51h14v9l-28 50h-22zM247 443q0 -26 140 -67h155l49 42v17h-295zM647 409h7l21 9v17h-7zM893 384v-594h14l28 33v352l-28 209h-14zM822 116l-91 -334h7q98 85 98 159v175h-14zM106 -68v-8l21 -25v8zM822 -235h14l29 33v84q-24 0 -43 -117zM127 -168v-9l49 -58h8
v8q-16 32 -57 59zM619 -344v-8h77q77 70 77 117h-7q-118 -69 -147 -109zM471 -361v-17h21l-14 17h-7z" />
    <glyph glyph-name="z" unicode="z" horiz-adv-x="1024" 
d="M639 1199q123 -27 155 -100l58 -89v-20q0 -103 -129 -229q-75 -118 -213 -269q-94 -145 -136 -249v-30h504q129 0 129 20l19 -10v-40q-28 -50 -45 -50v-9l6 -70h-13v-10l-96 10h-123l-129 -40h-90q-284 26 -284 60q0 69 -33 69l-77 90v40q1 17 123 129q32 60 77 219
q87 233 284 339l155 60v20h-97l-258 -20h-174l-239 30v20q46 0 71 49h13l-7 10v30l58 20l188 -20h264q22 40 39 40zM129 1119h52l-13 20h-26zM665 1119h-52q7 -30 39 -30h103v10l-13 30zM187 1080v-20h58l-13 20h-45zM497 631h6q44 0 213 289h-38q-155 -61 -155 -229
q-26 -20 -26 -60zM749 850h12q27 14 39 50l-6 10v10q-21 0 -45 -70zM323 442q40 0 103 150q103 229 103 258h-13q-139 -124 -193 -408zM323 233l6 -10h7q0 32 180 359v10h-6q-187 -207 -187 -359zM232 253l13 -20q16 0 39 90q52 12 52 69h-7q-51 0 -97 -139zM168 253v-10h13
l32 50h-13q-29 -19 -32 -40zM316 173l-6 -40q23 -29 45 -29h206l168 -10q107 56 116 79h-13l-464 -10zM826 94h52l32 30v9h-13q-71 -12 -71 -39z" />
    <glyph glyph-name="braceleft" unicode="{" horiz-adv-x="684" 
d="M432 1858h5q83 0 102 -67l-6 -30h-125q-102 0 -203 -298l-6 -60v-6q81 -334 155 -334l48 -61q-16 -45 -90 -79l-95 -85q63 -56 220 -85q42 -9 42 -43l-173 -170q-30 -69 -30 -182v-61q0 -136 144 -206h184l18 12h6v-36l36 12l18 -6v-6q-53 -61 -131 -61q-340 79 -340 128
q-72 16 -72 255q25 37 54 170q34 55 137 127v12q-111 67 -197 67l-35 -6l-18 6l6 43q-72 38 -72 85q0 59 179 91l66 30l-120 121q-113 195 -113 340q0 117 155 280l107 73zM229 1694h6l161 97v6l-6 6h-6q-155 -28 -155 -97v-12zM50 1482v-19q0 -126 48 -170v122l101 315
q-36 0 -107 -127q-14 0 -42 -121zM187 1585v-91q14 12 36 91l47 85v12h-11q-72 -47 -72 -97zM145 1409v-79h12v18l12 55l-6 85q-18 0 -18 -79zM181 1336v-73q17 -37 42 -37q-33 110 -42 110zM121 1305v-12l18 -48h18v6l-24 54h-12zM121 1226v-6q0 -53 114 -145v6
q-62 101 -114 145zM199 1190v-6q18 -42 48 -55v12l-42 49h-6zM38 880q48 0 48 49v6h-6q-42 -23 -42 -55zM133 899v-13l36 -36h24q89 63 89 73v12q-76 0 -149 -36zM312 741v-6l12 -12h24v18h-36zM372 729v-19q24 0 24 -18h12l12 12v19l-30 6h-18zM199 504h6l89 115v6h-6
q-89 -65 -89 -121zM247 516h6l12 12v6zM235 449q-24 -53 -24 -79v-48q0 -96 48 -128h6l-24 116v139h-6zM163 370l6 -73v-60q25 -97 78 -97q-45 67 -78 230h-6z" />
    <glyph glyph-name="bar" unicode="|" horiz-adv-x="532" 
d="M210 1858h8l67 -37h29q0 22 15 22h30l8 -37v-1733q0 -37 -38 -67h-22q-15 0 -45 67q-43 0 -67 -37l-7 7v1770q5 45 22 45zM210 1821v-342q21 0 30 141v37l-15 60l15 74l-15 30h-15zM255 1732l7 -8h8q30 34 30 67h-15q-15 0 -30 -59zM270 1672v-15h22v15h-22zM270 1583
v-52h7l15 15v52h-7zM285 1486q0 -23 -52 -67v-37l15 -82q27 0 59 141v45h-22zM314 1226l8 -23h22v179q-22 0 -30 -156zM255 1218q6 -81 22 -81l15 141q-11 0 -37 -60zM210 1256v-60l15 15v30zM225 1114v-37q0 -193 30 -193q0 28 37 81v30l-7 -7h-30l-15 89v37h-15zM307 899
v-142q5 -44 22 -44h15v260q-18 0 -37 -74zM210 861v-200l45 81v15q-17 17 -37 104h-8zM255 832v-15l22 -23v38h-22zM307 683v-37l-7 -75q29 0 29 -193l8 -8h7v268q0 39 -22 45h-15zM210 549v-97h15l8 52v38zM270 475v-60h15v60h-15zM233 400l-8 -7v-8l15 -15l8 8v7zM255 370
v-66l22 -90v-44h15l22 22v30l-7 148l-22 8zM210 363v-156l15 15v141h-15zM292 132v-22l52 8v44q-40 0 -52 -30zM300 73v-7l14 -15v22h-14z" />
    <glyph glyph-name="braceright" unicode="}" horiz-adv-x="684" 
d="M259 1858h6q196 -30 196 -79q74 0 185 -205l24 -109q0 -139 -125 -345q-106 -87 -108 -102q28 -23 191 -61q54 -42 54 -66q0 -31 -72 -85v-6l6 -30l-17 -6l-48 6q-70 0 -185 -67v-12q161 -101 161 -230l30 -66q0 -241 -84 -266q-47 -55 -328 -115q-78 0 -131 60v7l18 6
l36 -13v37h6l18 -12h184q144 69 144 205v61q0 189 -90 241q-113 89 -113 115q0 39 95 43q167 62 167 78q-94 84 -155 121l-30 43q0 10 108 114q65 126 95 279v6q0 111 -119 302q-62 54 -90 54h-125l-6 30q19 67 102 67zM306 1804l-6 -6v-7l161 -96h6v6q0 69 -125 97z
M497 1731l102 -314v-121q47 43 47 169v18q-12 108 -125 242zM426 1683v-12q61 -109 77 -176h6v91q0 50 -72 97h-11zM533 1489l-6 -90l12 -49v-18h12v79q0 78 -18 78zM473 1229h6q21 5 36 37v72q-9 0 -42 -109zM563 1308l-24 -61h18l18 49v12h-12zM461 1084v-6
q114 92 114 145v6q-52 -44 -114 -145zM449 1145v-13q43 24 48 61h-6zM414 939v-12q0 -10 89 -73h24l36 37v12q-73 36 -149 36zM610 939v-6q0 -48 48 -48q0 31 -42 54h-6zM348 746v-19h24l12 13v6h-36zM276 727v-18l12 -12h12q0 18 24 18v18h-18zM402 631v-6l89 -115h6v6
q-30 84 -89 115h-6zM432 540v-6l11 -12h6zM455 455v-139l-23 -115h5q48 32 48 127v49q0 26 -24 78h-6zM455 141q37 0 72 103v60l6 73q-10 0 -42 -151q-10 -2 -42 -85h6z" />
    <glyph glyph-name="asciitilde" unicode="~" horiz-adv-x="1196" 
d="M574 1858q29 0 150 -167q3 -125 23 -128h5q9 2 45 122q29 57 73 57h27q55 0 185 -211l56 -135l5 -57q0 -67 -95 -135v-6l45 -96l5 -39v-134l-5 -26l22 -51q-24 -58 -78 -58h-17q-81 0 -190 122h-5l5 -128v-135q0 -39 -55 -198h5q138 150 268 192h73q78 -28 78 -64
q-82 -187 -195 -225q-118 -76 -196 -76h-89q-81 -257 -201 -257l-39 -6l-12 -13h-22v6l190 276q112 169 112 218q33 88 33 122v166h-11q0 -59 -100 -128q-174 0 -174 160v103h-5q-80 -45 -207 -45q-165 47 -201 102l-5 20q0 164 245 256v13q-98 0 -251 89q-67 95 -67 129
q12 121 101 121h67q74 0 139 -38h22l-5 77v19q0 124 179 173zM484 1807h23l95 -7v7l-23 25h-11q-84 -7 -84 -25zM378 1710v-32q30 -145 95 -205q43 -19 101 -147l28 -13h5q95 192 95 263v51q0 130 -156 154h-118q-50 -32 -50 -71zM842 1704v-6q33 6 33 19h-22zM680 1320v-20
l83 7h62l106 -32h11q106 40 106 83l11 13v154q-46 96 -134 160h-44q-70 0 -157 -295zM350 1653v-32q11 -84 34 -84h11q0 51 -45 116zM54 1441q160 -118 285 -141h56q29 0 89 39v13q-96 85 -139 179q-105 58 -162 58h-17q-99 0 -112 -141v-7zM26 1505v-25h12q0 60 44 96v6h-5
q-38 0 -51 -77zM713 1537l-5 -32v-12h5l11 12v32h-11zM406 1480q13 -64 50 -64v12q-18 37 -39 52h-11zM1082 1448v-64q0 -63 -101 -122l45 -45h11q84 66 84 122v25l-23 84h-16zM501 1390v-6q17 -42 33 -45l6 6q-19 45 -28 45h-11zM462 1294v-6h39l6 6h5l-5 19h-28zM696 1275
v-13l140 6h11v13h-123zM333 1230h23l50 13v12q-73 -4 -73 -25zM138 1089v-58q84 -115 168 -115h33q212 107 212 160l34 167h-6l-45 6l-201 -45q-118 0 -156 -64q-21 -14 -39 -51zM903 1243q4 -17 28 -32h61v6q0 17 -44 26h-45zM775 1236q9 -25 39 -25h61v6q-3 19 -45 19h-55
zM719 1223l-6 -6v-6q145 -127 145 -193q37 -85 62 -102h28q89 0 89 51v39q-41 153 -78 153l-34 26h-100zM981 1185v-6q78 -105 78 -193v-19q0 -77 -106 -77v-19q19 0 39 -19h62q18 0 22 83v141q0 21 -50 109h-45zM696 1172v-6q9 -26 17 -26h6v7l-17 25h-6zM646 1166
q-45 -192 -89 -192q-27 -22 -34 -77v-96q0 -58 67 -58h56q112 0 112 141v90q0 48 -101 192h-11zM607 1147v-20h11v20h-11zM741 1147v-7q65 -186 117 -186v7q-33 128 -95 166l-5 20h-17zM105 1057l-6 -45v-13l33 -32h17v7q-33 51 -33 83h-11zM551 1006h6q22 12 22 38h-5
q-23 -13 -23 -38zM473 967v-13h6l16 7v13zM406 922v-6q45 22 45 32h-6q-30 0 -39 -26zM903 884v-7l17 -19h11v7l-17 19h-11zM959 845v-6l11 -13h6v13zM635 717h-56q0 -25 101 -25l11 19v13zM724 307q178 39 285 96q59 0 129 141v64l-67 7q-73 0 -174 -103q-29 0 -173 -192
v-13zM1160 595v-32h5l12 13v7l-12 12h-5zM680 294q-46 -141 -129 -179q-50 -45 -50 -71h6q117 0 189 238v12h-16z" />
    <glyph glyph-name="exclamdown" unicode="&#xa1;" horiz-adv-x="682" 
d="M215 55q-126 124 -126 432v304q31 266 73 331q19 197 33 202q27 -6 27 -40h13q175 -274 194 -385q27 -263 80 -392q60 -143 60 -297q0 -32 -93 -142q0 -20 -20 -20l-7 7h-7l-46 -34l-100 20l-34 -27q-31 0 -47 41zM382 61q83 83 120 230v95l-26 47q-71 62 -147 175v-499
l-20 -27v-7zM249 82h6q22 0 27 141q-40 127 -40 196v453q0 72 -33 196q-34 0 -34 -264v-331l34 -331v-6zM536 217v13h-7l-13 -13v-7l6 -7zM169 230v14q-27 146 -27 243v358q-16 0 -20 -41v-310q0 -231 47 -264zM289 386v405l-14 13v-405zM436 534h13q-5 108 -20 108
q-36 353 -107 412h-6l13 -101v-108q0 -195 107 -311zM282 987v6q0 50 -20 54v-40zM342 1432l-6 7q-42 117 -74 149l-33 -7l-180 -61q-27 4 -27 21v6l7 7q122 68 160 122v13q-54 64 -54 108v41l14 20l26 -7q65 -65 100 -74h14q40 54 53 54l14 -20v-81q113 -84 113 -102
l-13 -20l-54 27q-33 0 -40 -20v-162l-13 -21h-7zM329 1588v27h-20v-27h20zM289 1642q0 13 33 13v34l-20 20q-37 0 -47 -33q16 -34 34 -34zM242 1723v20q0 14 -40 20h-13l33 -47z" />
    <glyph glyph-name="cent" unicode="&#xa2;" 
d="M925 1296h9l8 -36l-51 -246v-14q35 -4 77 -72v-22q-51 0 -51 -65h-17l-34 22h-9q-104 -472 -214 -563q-68 -87 -68 -116v-14l77 -7q105 11 231 130h17v-15h8l-34 -65q164 56 248 123h8v-15h9q0 -87 -248 -238l-60 -7h-34l-162 22h-103q-58 -90 -154 -152h-17l-8 37l17 57
l-43 7l17 72q-125 94 -213 109q-120 71 -120 180q0 218 162 390q74 164 154 195l86 -7q71 41 239 65q0 12 85 28l17 87h18l8 -43q26 0 43 101h17l8 -36q13 0 52 79l8 7q0 22 17 22zM840 1043h26l8 36v15h-8q-20 0 -26 -51zM584 986v-8h102v15l-17 14h-60zM490 986v-8l34 -7
l8 7v22h-25zM302 942v-14q39 14 42 29v7h-17zM96 459v-44q0 -51 77 -101l9 7h8l-51 87v94q0 37 60 115q40 128 145 210l128 108v14h-76q-161 -90 -265 -281q-35 -135 -35 -209zM267 661h9q155 177 384 252v15l-85 14q-86 0 -299 -238zM558 249h17q188 243 188 397
q31 65 68 246l-8 21h-26q-31 -35 -179 -498q-52 -99 -60 -166zM242 524v-15q0 -54 77 -180q25 -63 77 -94h8q231 574 231 628q-376 -200 -376 -325zM584 596v-7h8l34 93v8q-25 0 -42 -94zM575 581q-51 -97 -51 -137q36 48 60 130v7h-9zM54 531v-15l17 15v14zM45 473v-101
q53 -137 163 -137v7q-146 113 -146 188v57zM225 408v-7q5 -101 59 -101h9v7q0 36 -60 101h-8zM464 199l34 -8l51 159q-38 0 -85 -151zM823 163v-15h51q45 0 86 36v15zM746 119v-14h111l17 14h-128zM387 -3h17q60 48 60 101h-34q-20 0 -43 -101z" />
    <glyph glyph-name="sterling" unicode="&#xa3;" 
d="M460 1857q330 -47 330 -257v-37h-25l-7 64h-12l-19 -18l-13 18v46l-70 28v-9l114 -175v-28h-6q-131 230 -286 230h-12q-102 -140 -102 -294v-92l76 -221h38l235 46l121 -18v-9q0 -28 -216 -83l-120 -46h-13v-19l19 -27h127l6 9l6 -9h89l32 -9v-10q0 -34 -197 -55l-38 -18
l-6 -9v-10q19 -92 19 -211v-138l165 -129q44 -50 152 -101h7q33 0 183 147q24 0 51 55h7l6 -46v-37h6l19 19l13 -19q0 -136 -152 -211l-32 -83l-44 9h-172q-38 0 -190 74h-13q0 -152 -158 -175h-51q-292 102 -292 322l-38 175q0 54 102 101l228 -9l70 -37l19 9
q-35 249 -76 249q-80 0 -127 55v18q63 12 63 37l-57 9v19l32 9h44v18q-26 83 -63 83h-57v9q10 37 44 37h19q-32 117 -32 184v92q0 192 197 432q15 46 57 46zM530 1793v-18q70 -13 89 -37h25q0 18 -101 55h-13zM263 1351v-46q37 -174 64 -174v128l-19 175v55l6 92
q-20 0 -51 -230zM251 1517l-19 -101v-28q17 0 25 92l6 9v28h-12zM232 1269v-19q0 -43 31 -138h26q-32 157 -57 157zM352 1213v-82l13 -19h19v37l-19 64h-13zM454 1075h-7v-18l13 -18h57q13 18 178 73v9zM365 1075v-18l13 -18h38v18l-13 18h-38zM314 1020l-6 -9q9 -38 32 -55
h12v27q0 19 -38 37zM384 1002v-9q6 -37 38 -37h19v27l-13 19h-44zM283 873v-9l12 -19h45v10l-13 18h-44zM416 809v-19q39 -165 50 -165h7q0 102 -51 184h-6zM22 496v-9q4 -56 19 -56l64 129h-26q-49 -40 -57 -64zM137 395v-10q0 -92 88 -239h115q59 8 114 129
q-28 124 -152 212h-70q-54 0 -95 -92zM67 376q9 -38 32 -55h12v110l7 46h-7q-44 -32 -44 -101zM530 459v-55q43 -62 266 -184h13v18q-159 121 -228 193l-38 28h-13zM974 312v-9h6q64 11 64 36v19l-7 9v9q-56 -35 -63 -64zM67 303v-10q0 -22 51 -82h12l-51 92h-12zM530 284
v-9q0 -81 152 -120q0 -18 32 -18h114l13 18l-7 10h-139q-38 0 -146 119h-19zM961 238v-9h13l32 9v28h-26zM879 174q23 -28 44 -28v19l-19 27h-12zM454 174l-64 -74v-9h64l12 18v46zM276 109v-18h13l13 18h-26z" />
    <glyph glyph-name="currency" unicode="&#xa4;" 
 />
    <glyph glyph-name="yen" unicode="&#xa5;" 
d="M36 1858h24q34 -60 65 -60q91 -167 402 -411q112 -144 153 -146l330 531l40 43l33 -8l40 42h16v-8q-108 -350 -258 -583q-61 -51 -80 -94v-343h16l105 -17l56 9l40 -26h73l40 -9v-17l-40 -8h-89q-52 -60 -161 -60h-40v-163h8l153 26q0 -47 161 -52v-17q-85 -34 -226 -43
q0 -13 -80 -26v-60q0 -152 -81 -342l-40 -9q-43 53 -80 257v154q0 18 -371 69v9q5 25 65 25h8l298 9v154h-16v9l-8 -9l-121 9q-137 -3 -137 -18l-24 9v9q0 25 129 34l24 77q-24 0 -24 17v9l40 8h137v197l8 43h8q16 0 16 -34h24v17l-177 163h-16v-9q59 -120 105 -120h8v-34
h-17v-8q-37 0 -201 265q-330 304 -330 403l-8 8l-16 26l16 52l-8 25zM84 1721v-9q379 -453 411 -454l32 -17v9q-150 252 -306 351q-112 120 -137 120zM881 1344v-9q89 107 105 189q-105 -137 -105 -180zM608 1207l24 -35h16v9l-24 26h-16zM720 1181v-43h16v43h-16zM736 915
v-94h33v274h-8q-25 0 -25 -180zM648 984v-154h16l16 163l-8 8h-8zM487 753v-9h8q121 0 121 26v17h-8q-121 -9 -121 -34zM672 547v-9h16v26zM648 427v-171q30 -175 64 -206h8v9q0 273 -48 368h-24zM769 350v-77l16 17v77z" />
    <glyph glyph-name="brokenbar" unicode="&#xa6;" horiz-adv-x="532" 
 />
    <glyph glyph-name="section" unicode="&#xa7;" 
d="M419 1858h102q41 -19 122 -26l14 -50q0 -90 -102 -114h-24q86 -111 141 -284l5 -63v-57q0 -64 -83 -95v-13l44 -57q31 59 126 114q70 63 132 63q57 70 102 70q141 -41 141 -127q0 -163 -54 -189h-77v-6q14 -24 14 -45v-19q-12 -82 -44 -82l-34 -6q-39 0 -68 25h-10v-114
q0 -63 -58 -63q23 -156 146 -391v-13q0 -14 -24 -19l-73 6q0 -38 -39 -44h-78v-19l29 -215h-15l-19 76h-10v-50l10 -19v-7h-10v-6q-19 6 -19 38v95l-34 88l-5 19h-132l-24 -32v-195l-5 -32h-14l-30 32h-9q0 -19 -10 -19q-11 0 -20 57q35 79 35 113v70h-25q-112 39 -112 82
l73 354h-48q-88 0 -88 82v38l-49 -7h-39q-43 0 -43 95v13q0 54 14 76v25h-24q-117 27 -117 101v57q20 101 107 101q19 19 39 19h15q213 -82 258 -139l58 -51h5q10 13 10 51h4q0 24 -102 63q-33 0 -73 177v32q0 128 88 196q40 0 53 37v7q-144 24 -209 82q0 20 -19 44
q0 48 185 70zM273 1788v-13l87 -69h78l117 38q58 0 73 31v19l-58 19h-224q-73 -6 -73 -25zM501 1687q64 5 64 19h-49zM487 1611l9 -12h35v12l-15 19h-15zM341 1447v-70h9q0 53 44 139l20 76h-10q-30 0 -63 -145zM458 1580l-44 -76v-32l-15 -170v-38q0 -25 107 -70h54
q58 62 58 108v69q-44 202 -78 202zM385 1453q-20 -61 -20 -120v-31l10 -13h5l14 164h-9zM633 1415l5 -31v-57q0 -60 -39 -127h14q44 35 44 45v94l-14 76h-10zM939 1289v-6h5l44 12h44l24 -6v13l-53 19h-20q-44 -13 -44 -32zM1066 1289v-6q44 -52 44 -127l10 13v50
q0 52 -54 70zM691 1036q0 -15 73 -158q25 -101 34 -101h10l19 76v57q0 46 15 50q54 -50 73 -50h59l14 19v6q0 70 -34 133v19h5l39 -13h92v101q-10 95 -58 95h-58l-103 -38l-107 -114q-60 -56 -73 -82zM19 1169v-76h10q0 62 39 139l-5 6q-44 -29 -44 -69zM49 1106v-7
q0 -30 29 -50h58q17 0 34 19h25l5 -25h4l30 6l14 -6v-7q-102 -77 -102 -139v-12q0 -51 34 -51h59q10 0 68 88h14l5 -25l-10 -82v-44q0 -17 39 -25h44q0 35 20 50q0 69 53 265q-11 0 -92 76q-135 101 -253 101h-30q-48 -71 -48 -132zM652 1080l15 -25h10l170 177v6h-5
q-28 -6 -112 -75q-34 0 -78 -83zM516 1112q-39 -107 -68 -531v-227l92 -25l103 25h29q92 -25 165 -25v50q-50 218 -107 341q-29 23 -29 70q-115 292 -136 322h-49zM599 1106q12 -41 24 -45v26q-15 0 -15 19h-9zM657 1005l78 -184l19 -56h20v6q-20 111 -102 246zM287 847
l-10 -51v-44q17 -38 44 -38h20q0 15 -34 32l-10 37v51zM813 752v-6h19l15 19v50h-5q-7 0 -29 -63zM433 771q0 -53 -39 -171q-19 -119 -19 -183h5l19 19h10l5 -32l-10 -38v-12h24v215l15 202h-10zM774 720v-19q21 -50 29 -50h5l-19 69h-15zM808 581v-19q44 -159 54 -164l14 6
v7q0 42 -63 170h-5zM881 385l-5 -31h-10l-4 6h-5v-31h53v12q-20 44 -29 44zM346 341v-12q0 -18 58 -38l10 19v19l-34 6v38zM428 284h25l39 26q-3 19 -39 19h-5q-20 -11 -20 -45zM604 316v-6h102l-15 19h-78zM521 284h39q0 16 -20 19zM759 291v-7h73v19h-63zM686 246l15 -19
l5 7v25h-10zM472 63l5 -25h15v126h-5q-15 0 -15 -101z" />
    <glyph glyph-name="dieresis" unicode="&#xa8;" horiz-adv-x="682" 
d="M77 1848q39 -39 118 -39q55 -63 55 -118v-16q0 -55 -142 -118q-102 42 -102 134q0 157 71 157zM517 1832h24q96 0 141 -149v-32q0 -62 -63 -62h-55q-66 0 -134 165q0 78 87 78zM85 1722v-23l23 -24h8v24l-24 23h-7z" />
    <glyph glyph-name="copyright" unicode="&#xa9;" horiz-adv-x="1509" 
d="M587 1727q50 0 127 -47l47 7q225 -33 452 -260q262 -305 293 -519v-186q0 -170 -153 -320q-238 -259 -313 -259q-119 0 -140 20l-113 -7h-93q-439 0 -612 380q-67 205 -67 246v13q0 420 80 466q346 466 492 466zM434 1621v-14h20q72 60 207 60v7q0 18 -67 26h-13
q-90 -22 -147 -79zM607 1614h87l-13 13h-60zM880 1621v-7q266 -155 366 -293q179 -301 227 -426h6v27q-51 206 -213 406q-155 209 -372 293h-14zM767 1614v-13q63 0 326 -174h14v7q-13 21 -107 67q-128 113 -233 113zM361 1541h7l40 40v6h-7q-29 -16 -40 -46zM128 835v-20
q0 -39 93 -206q10 0 47 -73q45 -19 106 -100q108 -93 160 -93h326q373 34 373 99q113 119 113 346v60q0 125 -140 413q-108 184 -485 306l-47 7h-47q-202 0 -406 -286q-93 -241 -93 -453zM1113 1421l27 -27h7l-27 27h-7zM82 1101v-26q13 3 113 239q33 30 33 54h-7
q-139 -138 -139 -267zM594 1288q64 0 233 -54l40 -59q-7 -27 -40 -27h-140q-156 -42 -213 -133l-26 -60q0 -131 199 -206l133 -7h7q167 51 167 120h13q0 -27 33 -27v-13h7q-58 -151 -160 -193l-47 -14h-59q-400 129 -400 247v60q0 79 67 133q95 211 186 233zM528 1208v-13
l186 33q0 29 -127 33q-16 0 -59 -53zM474 1101h20l207 87v13h-20q-207 -28 -207 -100zM754 1181v-6h73v6l-20 20h-33zM1293 1155l-7 -7l87 -226v79q-47 154 -80 154zM115 1068v-27l13 14v13h-13zM368 955v-93q53 -120 126 -120h14v7q-100 94 -100 233v26h-14q-17 0 -26 -53z
M1400 982v-60q0 -308 -80 -473v-7h6q140 94 140 227v139q-44 174 -66 174zM48 948v-26l7 -34h7v47zM42 815v-46q4 -94 33 -94v54q-13 86 -33 86zM614 729v-7q63 -47 147 -47h33q33 0 60 34v6h-167zM102 655v-80q34 -126 66 -126h7q0 20 13 20q109 -126 193 -126h27
q-187 99 -300 312h-6zM161 655v-20q54 -146 167 -206l7 7v6l-114 120q0 17 -53 87v6h-7zM1260 422h6q20 0 34 67q-12 0 -40 -67zM1060 249v-20q135 0 186 147v6h-6q-30 0 -127 -99l-46 -34h-7zM221 369q0 -55 260 -166l120 -20v6q-64 62 -380 187v-7zM1093 309h7q30 0 60 53
l-7 7q-50 0 -60 -60zM847 316h-146q0 -23 106 -47h80q100 0 180 67v7q-120 -27 -220 -27zM448 316q6 -27 46 -27q149 -98 213 -106h60q-251 133 -286 133h-33zM954 229h20q106 41 106 67v7q-126 -50 -126 -74zM827 243v-14h53l14 14h-67zM934 189v-13l66 -7h67q46 28 46 40
q-145 -6 -179 -20z" />
    <glyph glyph-name="ordfeminine" unicode="&#xaa;" horiz-adv-x="758" 
d="M481 1475q14 0 77 -51l29 -5v5l9 10h4q81 -139 81 -249q0 -47 55 -329l13 -102l-13 -15v-5l-4 5h-4q-38 -17 -38 -51h-14q-22 0 -67 340q-237 -340 -315 -340h-30l-55 5l-60 -5h-67q-57 0 -73 76v31l21 111q0 60 60 193q75 135 178 274l111 81zM136 962v-25
q0 -56 90 -127q60 0 268 193q68 113 68 208v106q0 38 -47 87h-77q-83 -39 -225 -219q-42 -64 -77 -223zM158 1165v-25h4q9 2 43 81l132 152l4 6v4h-9q-129 -105 -174 -218zM575 1379v-21l8 -10h4v31h-12zM605 1332v-81l12 -15v5q0 91 -12 91zM655 1226v-15l9 -11v26h-9z
M120 1119l-69 -152v-25h5q26 25 55 101l17 26v40zM638 1059q6 -97 22 -97v5l-13 76v16h-9zM111 1003l-8 -61v-15q12 0 17 51v25h-9zM294 799h8q153 75 192 153l17 30h-9q-83 -81 -204 -167l-4 -5v-11zM47 886v-5q0 -53 51 -107h9v6l-21 121v41h-4q-11 -5 -35 -56zM685 927
v-6q3 -86 17 -86v46q0 38 -17 46zM124 896l-4 -35v-26q14 -30 38 -30h34v15q-13 0 -64 76h-4zM430 861v-11h4l9 11v4zM30 840l-4 -25v-66q24 -41 47 -41h94q-19 30 -81 51l-51 81h-5zM341 780h-30q-47 -62 -68 -62v-10h59q27 0 111 87l13 20h-9zM124 795v-15l12 -16h64
l13 16v4h-46zM188 744h-17v-5q0 -11 38 -21q64 32 68 46v16h-4zM664 780v-11l8 -45h9v35l-9 21h-8z" />
    <glyph glyph-name="guillemotleft" unicode="&#xab;" 
d="M1091 1602q-30 -105 -379 -584v-18q2 -21 176 -167q59 -136 259 -426v-28h-28l-380 380q-160 194 -194 194l-19 -18h-9l-9 28l213 296q237 306 269 306h9l18 -19l-92 -130v-18q51 46 139 194l9 10h18zM601 1592v-37l-167 -259q-230 -229 -269 -352q145 -111 176 -213
l297 -296l83 -93v-9h-9q-39 0 -176 139l-10 9h-9v-9q14 -52 121 -158v-9q-69 0 -176 176q-132 82 -250 213l-186 213l-9 28q91 228 352 463l222 194h10zM434 1389v-19l28 28v9h-10zM860 1305h18l28 65q-27 -7 -46 -65zM814 1250v-10l18 19v9zM156 1111h18l102 111v28
q-91 -55 -120 -139zM675 1046h27q0 24 93 157v19q-27 -2 -120 -176zM610 1009v-9q0 -21 46 -28v28l-28 27zM100 981v-9h19l28 28v18h-10zM119 916v-18q0 -74 74 -74h19l9 9h9q0 43 -111 83zM304 666v-18q17 -34 56 -47v19q-18 33 -56 46z" />
    <glyph glyph-name="logicalnot" unicode="&#xac;" horiz-adv-x="1196" 
d="M484 944h9v-25q-66 -10 -66 -34h90q66 0 156 42l99 -8h164q29 0 58 -34h8l66 17l98 -51q33 -35 33 -84v-278l-25 -25l-16 25v287h-16v-219q-25 -22 -25 -68l-25 -17l-16 43h-25q0 -34 -33 -43l-16 34l16 110v84h-33q-296 0 -468 25h-222q-30 0 -65 42h-181l-41 9v8
q0 17 25 17v8q0 28 -25 59q31 51 74 51l140 -9q130 0 262 34zM772 877l16 -17h140v17h-156zM57 851v-16l25 -26l279 -8h17v17h-33q-29 0 -58 33h-230zM1051 843v-8l17 -17v25h-17zM640 767v-17l99 -8h16q42 34 148 67v9h-131q-66 -51 -132 -51zM493 784v-17h65q74 17 74 42
h-65zM895 759v-17h123v25h-65zM1059 691v-109h17v109h-17z" />
    <glyph glyph-name="registered" unicode="&#xae;" horiz-adv-x="1509" 
d="M578 1685q49 0 126 -46l46 6q225 -33 451 -259q261 -304 292 -517v-186q0 -169 -152 -318q-237 -259 -312 -259q-118 0 -140 20l-112 -7h-93q-482 0 -631 445q-46 125 -46 192q0 419 80 465q344 464 491 464zM425 1579v-13h20q72 59 206 59v7q0 18 -67 26h-13
q-89 -22 -146 -79zM597 1572h87l-14 13h-59zM869 1579v-7q266 -154 365 -292q178 -299 226 -424h7v26q-52 206 -213 405q-155 209 -371 292h-14zM757 1572v-13q63 0 325 -173h13v7q-12 21 -106 66q-128 113 -232 113zM352 1499h7l39 40v7h-6q-29 -17 -40 -47zM120 796v-20
q0 -39 93 -206q10 0 46 -73q45 -18 106 -99q108 -93 159 -93h326q371 34 371 100q113 118 113 345v59q0 138 -153 431q-122 186 -544 306h-59q-300 -118 -339 -246q-119 -253 -119 -504zM1102 1380l26 -27h7l-27 27h-6zM73 1061v-99q0 -106 20 -106q7 167 126 471h-6
q-140 -138 -140 -266zM704 1280h13q232 -43 232 -99q93 -127 93 -186v-20q-20 -146 -126 -146h-20l-60 13l-6 -6v-7q185 -186 265 -186l13 -53l-46 -20q-57 0 -239 160l-66 46q-65 20 -87 40h-13v-7l7 -106l-7 -20h-13l-7 7h-6v-106l-7 -33h-13q-20 47 -53 404
q-19 0 -53 113q0 42 19 93l-6 46h6l40 -6q91 79 140 79zM677 1254q0 -14 -26 -14l-7 -6v-13h13l47 33h-27zM624 1161v-146q0 -100 46 -100l166 -46h7q64 11 133 99l6 7v86q0 93 -166 166l-59 7h-7q-55 0 -126 -73zM551 1148l7 -20q25 0 79 93h-13q-22 0 -73 -73zM1281 1114
l-7 -6l86 -226v80q-46 152 -79 152zM584 1022v-67h13v53zM896 862l7 -6h46q66 49 66 93v19h-6q-45 -58 -113 -106zM1387 942v-60q0 -306 -80 -471v-6h7q139 92 139 225v139q-43 173 -66 173zM40 909v-27l7 -33h6v47zM670 862v-13q0 -32 140 -53v7q-3 17 -133 59h-7zM34 776
v-46q53 -282 205 -438q177 -146 418 -146h100l-445 212q-159 101 -259 392q-10 26 -19 26zM153 617v-20q54 -146 166 -206l6 7v7l-112 119q0 17 -53 86v7h-7zM1248 385h6q20 0 33 66q-11 0 -39 -66zM1049 212v-20q134 0 185 146v7h-6q-30 0 -126 -100l-47 -33h-6zM836 278
h-252q0 -25 246 -86h132q108 36 186 133l-7 7q-163 -54 -305 -54zM923 152v-13l66 -6h66q47 27 47 39q-145 -6 -179 -20z" />
    <glyph glyph-name="macron" unicode="&#xaf;" horiz-adv-x="1131" 
 />
    <glyph glyph-name="degree" unicode="&#xb0;" horiz-adv-x="819" 
d="M357 1853h18q423 -147 423 -315l18 -81q0 -207 -135 -207q-80 -81 -153 -81h-45q-477 104 -477 306v36q0 230 180 306q114 36 171 36zM276 1808v-18h90v9l-45 9h-45zM141 1619v-90q0 -133 333 -207h126q67 0 135 108v63q-61 234 -234 234l-189 27h-90q-81 -70 -81 -135z
M42 1547v-108q16 -86 288 -207l126 -27h90q81 18 81 45v9h-108q-162 0 -387 171q-54 54 -54 144v63q-25 0 -36 -90z" />
    <glyph glyph-name="plusminus" unicode="&#xb1;" horiz-adv-x="1124" 
d="M549 1158h16q23 -342 38 -342v141q0 33 40 54l22 100h16l7 -38v-366h9q181 0 349 40l39 -8v-23l-31 -9q0 -15 62 -22v-9q0 -38 -16 -38l8 -9v-22l-124 -39h-70q-92 0 -202 -31h-31l-47 -350h-15l-16 163l-15 -15v-32l-23 -147h-16l-8 38v359l-536 61v15l38 9h109l-7 7v24
l396 31v420zM634 731v-24h24v109q-24 0 -24 -85zM883 645l101 -16h70l15 16v16l-109 24q-77 -26 -77 -40zM324 629v-7l116 7h94v16h-195zM697 638v-16h38l-16 16h-22zM487 599l15 -15h32v15h-47zM634 599v-31h24v31h-24zM688 591v-23h55l16 16v7h-71zM683 254h12v-22
q-95 -9 -95 -29h130l280 36v-14l-12 -7v-8l118 -37v-15q0 -30 -211 -58v-15l188 -15v-15l-58 -7h-83l-222 15h-317q-43 0 -93 37h-259l-58 7v8q0 14 35 14v7q0 25 -35 51q43 45 106 45l199 -7q186 0 375 29zM73 173v-15l36 -22l398 -7h23v15h-46q-41 0 -83 29h-328zM695 115
v-15h93q106 15 106 36h-95z" />
    <glyph glyph-name="uni00B2" unicode="&#xb2;" horiz-adv-x="682" 
 />
    <glyph glyph-name="uni00B3" unicode="&#xb3;" horiz-adv-x="682" 
 />
    <glyph glyph-name="acute" unicode="&#xb4;" horiz-adv-x="682" 
d="M343 1831q111 -51 184 -51l61 20q41 -10 41 -61v-41h51v-10q-68 -72 -235 -184q-172 -149 -316 -163q-46 0 -92 71q92 88 174 266zM343 1780l-112 -143v-31q54 0 153 113l51 20v21zM384 1657h10q52 0 123 62v10h-10q-123 -34 -123 -72zM251 1423l11 -11l316 235v31h-31
l-285 -235l-11 -10v-10zM149 1423v-21q51 0 72 51v11h-31z" />
    <glyph glyph-name="mu" unicode="&#xb5;" horiz-adv-x="1180" 
d="M956 1168q51 0 105 -359l115 -379l-29 -19v9l-57 -29l-58 29l-9 -9h-10q-57 19 -57 38l29 49l-20 126h-28q-201 -243 -345 -243h-67q-61 0 -114 49h-58v-466q-27 -243 -86 -243h-28q-192 34 -192 156v39q-38 0 -38 29l29 19h86q76 0 76 107v1010l29 29l19 -20h19
q5 39 29 39q23 -54 67 -97v-301q77 -253 182 -253h47q106 0 259 389v214l47 38q0 49 58 49zM898 1100v-379l-9 -48h9q67 58 67 107q-38 140 -38 320h-29zM296 896v-155h19v155h-19zM286 605v-10l29 -39h10q-19 44 -39 49zM325 546v-9l19 -20h9v10l-19 19h-9zM277 469v-58
l19 19v39h-19zM286 -36v-39l19 20v39zM114 -133v-19q0 -42 134 -78q23 0 29 68h-10q-48 0 -48 29l20 78h-10q-35 -78 -115 -78z" />
    <glyph glyph-name="paragraph" unicode="&#xb6;" horiz-adv-x="1100" 
d="M688 1858h17l11 -170q0 -13 -61 -67q55 -149 55 -204v-61q0 -68 -93 -102v-13q27 -48 49 -48q51 0 341 231q28 0 77 47h11l6 -27q-34 -141 -110 -237v-14q17 0 88 -88q0 -33 -182 -40q0 -55 -38 -156l-17 -88q72 -291 182 -468v-14q0 -15 -28 -20l-82 6q0 -40 -44 -47
h-88v-20l33 -231h-17l-22 81h-11v-54l11 -20v-7h-11v-7q-22 7 -22 41v102l-38 95l-6 20h-148l-28 -34v-210l-6 -34h-16l-33 34h-11q0 -20 -11 -20q-12 0 -22 61q38 85 38 122v74h-27q-127 42 -127 88l28 129h-88q-93 0 -143 170v7q0 25 55 122l5 61l-27 13q-12 -27 -28 -27
q-33 14 -33 54v68q0 28 28 54v21q-17 0 -17 13v21q39 45 39 95v13q-103 143 -127 143l11 61q154 -52 341 -184l110 -33h17q22 10 22 74h5q0 26 -115 68q-38 0 -83 190v34l11 101q-49 49 -49 109v75q3 40 16 40l11 -13l6 6h11q63 -81 115 -94v-14h6l66 68q40 -16 77 -54
q62 0 110 108zM600 1729v-13l17 -21h22q26 16 49 55v47h-5q-54 -68 -83 -68zM292 1777v-34q0 -34 38 -82q23 10 33 34v7q-55 48 -55 75h-16zM495 1729l11 -13h39v13l-17 21h-16zM633 1661l17 -6q40 25 44 40v7q-26 0 -61 -41zM358 1641l5 -20h-5q-28 -11 -28 -68v-75h11
q0 56 50 149l16 61l-5 7h-6q-38 -22 -38 -54zM462 1695l-49 -81v-34l-17 -183v-41q0 -26 121 -74h61q66 66 66 115v74q-50 217 -88 217zM380 1560q-22 -66 -22 -129v-34l11 -14h5l17 177h-11zM661 1519l5 -34v-61q0 -65 -44 -136h17q49 37 49 48v102l-16 81h-11zM1046 1397
l5 -20h11l6 33v14h-6q-13 0 -16 -27zM980 1377v-7h5l17 7v6h-6zM688 1146q36 -32 77 -122q21 -23 61 -122h5v190q0 40 33 40h6l82 -27h39v7q-55 54 -55 68v20q65 65 93 156h-5q-30 0 -292 -190q-40 0 -44 -20zM55 1329v-13q61 -14 83 -34h11v6q-60 41 -94 41zM138 1254v-13
l44 -41q0 -20 -39 -95l-11 -47l6 -21h49q23 28 44 28h66q47 0 66 -150l28 -88h5q18 0 66 272v13l-302 136l-6 6h-16zM528 1193q-44 -114 -77 -569v-244l105 -27l116 27h33q104 -27 187 -27v54q-68 297 -154 407q0 74 -50 74v7q0 14 17 14v6q-91 250 -127 278h-50zM969 1173
q12 -28 49 -47l6 6v7q-29 34 -50 34h-5zM688 1078q44 -129 116 -217l5 7q-16 82 -104 224zM853 1071v-88h11l11 61v14l-11 13h-11zM220 1037v-20h22l11 14v6h-33zM237 990l-61 14q-33 -16 -33 -28q13 -2 39 -40l-22 -48q38 -19 38 -74v-27q0 -28 -66 -102v-41
q13 -40 165 -95q0 -17 44 -27l66 251v20h-11v7l-5 -7h-6q-38 0 -71 238h-6q-18 0 -60 -41h-11zM435 827q0 -56 -44 -183l-22 -149l5 -27l-5 -20h5l22 20h11l6 -34l-11 -41v-13h27v230l17 217h-11zM820 773v-20q25 -55 33 -55h6l-22 75h-17zM859 624v-20q49 -172 60 -177
l17 7v7q-1 46 -72 183h-5zM171 570q0 -27 66 -55h44v7q0 18 -110 48zM941 414l-5 -34h-11l-6 7h-5v-34h60v13q-23 48 -33 48zM336 366v-13q0 -19 66 -41l11 20v21l-39 6v41zM429 305h28l44 27q-3 21 -44 21h-6q-22 -11 -22 -48zM628 339v-7h115l-16 21h-88zM534 305h44
q0 17 -22 20zM804 312v-7h82v20h-71zM721 264l17 -20l5 7v27h-11zM479 68l5 -27h17v135h-6q-16 0 -16 -108z" />
    <glyph glyph-name="periodcentered" unicode="&#xb7;" horiz-adv-x="569" 
 />
    <glyph glyph-name="periodcentered" unicode="&#x2219;" horiz-adv-x="569" 
 />
    <glyph glyph-name="cedilla" unicode="&#xb8;" horiz-adv-x="682" 
 />
    <glyph glyph-name="uni00B9" unicode="&#xb9;" horiz-adv-x="682" 
 />
    <glyph glyph-name="ordmasculine" unicode="&#xba;" horiz-adv-x="748" 
d="M321 1516h16q388 -135 388 -289l17 -74q0 -190 -124 -190q-73 -74 -140 -74h-41q-438 95 -438 280v33q0 211 165 281q105 33 157 33zM247 1475v-17h82v8l-41 9h-41zM123 1301v-82q0 -122 305 -190h116q61 0 124 99v58q-56 214 -215 214l-173 25h-83q-74 -64 -74 -124z
M32 1235v-99q15 -79 264 -190l116 -24h82q75 16 75 41v8h-99q-149 0 -355 157q-50 50 -50 132v58q-23 0 -33 -83z" />
    <glyph glyph-name="guillemotright" unicode="&#xbb;" 
d="M70 1618h9q34 -24 135 -189l9 -9h9v18q-90 107 -90 135l9 9h18q158 -137 423 -522q27 -7 45 -63l-9 -27h-9l-27 18l-216 -225l-333 -333h-27v27q189 276 270 441q76 33 153 135v9l-333 486zM547 1609h9q522 -447 522 -585l36 -45q0 -45 -216 -261q-47 -84 -207 -180
q-100 -165 -180 -180v9q117 117 117 162q-162 -144 -180 -144h-18v9q53 71 306 306q0 18 81 99q0 60 153 180q0 50 -189 270q-121 123 -207 297l-27 27v36zM682 1429v-9l27 -27v18l-18 18h-9zM250 1393v-9l27 -54h18q-18 56 -45 63zM322 1294v-9l18 -18v9zM862 1276v-27
l99 -108h18v9q-50 93 -117 126zM358 1249v-18q90 -130 90 -153h27v9q-99 162 -117 162zM493 1033v-27h9l36 27v9l-18 18zM988 1051v-18l27 -27h18v9l-36 36h-9zM907 871l9 -9h27q72 0 72 72v18h-9q-93 -42 -99 -81zM781 664v-18q37 12 54 45v18q-37 -12 -54 -45z" />
    <glyph glyph-name="onequarter" unicode="&#xbc;" horiz-adv-x="1708" 
d="M392 1858h10q68 -51 68 -135v-315h9l97 9l58 -18l39 9l29 -9v-9q0 -22 -252 -63q-45 -36 -96 -36l-49 27l-126 -9q-25 0 -58 36l-67 9v18l48 9h261v351h-19l-126 -135h-19l-10 27q38 105 203 234zM1573 1822h9v-18l-174 -180h10q223 118 261 153q29 -9 29 -54v-81
q-51 -203 -329 -396q-63 0 -310 -279q-1 -43 -561 -548q-172 -101 -280 -315q-62 -90 -78 -90h-19q-116 88 -116 225q0 90 193 144q18 41 242 261l213 288q62 48 358 404zM402 1777v-63l10 -63h19v108l-19 18h-10zM1563 1660q-312 -267 -358 -396l-455 -440v-27
q298 270 387 305l445 549l-9 9h-10zM1640 1660q-207 -256 -271 -369v-9h10q200 147 290 324v54h-29zM402 1543v-144h29v90q0 47 -29 54zM905 1030h10q175 113 396 441l58 63h-29q-206 -143 -435 -486v-18zM566 707q218 186 387 476v9q-16 0 -319 -350l-77 -135h9zM654 653
v-18h9q319 225 319 314q-33 -3 -328 -296zM1302 824h19l10 -45v-72l9 9h29l10 -27l-116 -369h-10l10 -27h106q0 102 49 144h29l19 -144h39q145 0 145 -36q0 -27 -87 -45h-107v-63q0 -45 -19 -45q-48 0 -48 99q-51 18 -203 18h-29l-78 27v18q10 27 58 27v9q0 93 155 459z
M508 653v-9l20 18v9zM373 509h10l48 45v9h-10zM1176 329v-27h10q23 0 77 225v9q-53 0 -87 -207zM305 446h10l29 27v9zM257 311h10l125 99v9h-9q-117 -74 -126 -108zM54 239v-18h9l107 90v18h-29q-87 -40 -87 -90zM131 167h-19l-29 18h-20v-9q0 -47 68 -126q32 0 155 216h-19
z" />
    <glyph glyph-name="onehalf" unicode="&#xbd;" horiz-adv-x="1708" 
d="M392 1858h10q68 -51 68 -135v-315h9l97 9l58 -18l39 9l29 -9v-9q0 -22 -252 -63q-45 -36 -96 -36l-49 27l-126 -9q-25 0 -58 36l-67 9v18l48 9h261v351h-19l-126 -135h-19l-10 27q38 105 203 234zM1573 1822h9v-18l-174 -180h10q223 117 261 153q29 -9 29 -54v-81
q-51 -203 -329 -396q-63 0 -310 -279q-1 -44 -561 -549q-172 -101 -280 -315q-62 -90 -78 -90h-19q-116 88 -116 225q0 90 193 144q18 41 242 261l213 288q62 48 358 405zM402 1777v-63l10 -63h19v108l-19 18h-10zM1563 1660q-312 -267 -358 -396l-455 -441v-27
q298 271 387 306l445 549l-9 9h-10zM1640 1660q-207 -256 -271 -369v-9h10q200 146 290 324v54h-29zM402 1543v-144h29v90q0 47 -29 54zM905 1030h10q175 113 396 441l58 63h-29q-206 -144 -435 -486v-18zM566 706q218 186 387 477v9q-16 0 -319 -351l-77 -135h9zM654 652
v-18h9q319 226 319 315q-33 -4 -328 -297zM1418 742q203 -27 203 -153v-54q0 -278 -223 -342v-9h223q46 0 77 -54v-9q-61 -57 -125 -63h-136l-106 -18h-29l-107 45h-9l-78 -9l-9 9v18q99 99 232 153q184 164 184 252v72q0 53 -59 90q-87 -63 -212 -117v-18h-10l-39 18
l-29 -9v9q0 93 252 189zM508 652v-9l20 18v9zM1311 634v-9h10q39 14 39 27v9h-10zM1553 625v-45h29v45h-29zM373 508h10l48 45v9h-10zM305 445h10l29 27v9zM1485 337q47 0 68 45v63q-29 0 -77 -108h9zM257 310h10l125 99v9h-9q-117 -74 -126 -108zM54 238v-18h9l107 90v18
h-29q-87 -39 -87 -90zM1456 265h-48l-29 -27h19q44 0 97 45v9h-19q-20 0 -20 -27zM131 166h-19l-29 18h-20v-9q0 -47 68 -126q32 0 155 216h-19zM1311 193v-27h10l29 27h-39zM1360 94h48q203 31 203 54h-87q-136 0 -164 -54z" />
    <glyph glyph-name="threequarters" unicode="&#xbe;" horiz-adv-x="1708" 
d="M663 1858l29 -9v-17q-122 -148 -155 -148v-17h10l116 26q126 0 126 -174v-44q-65 -148 -232 -148q-102 0 -213 79v52h10q90 -52 125 -52h204q58 30 58 78v43q0 29 -155 53h-49q-35 0 -164 -53h-10q0 35 -38 35v9q126 157 212 157l20 26v8l-49 9h-96l-116 -9v9l-10 -9h-29
q0 41 -29 61v9l48 9h78zM1573 1762h9v-17l-174 -174h10q223 114 261 148q29 -9 29 -52v-79q-51 -196 -329 -382q-63 0 -310 -270q-1 -42 -561 -531q-172 -97 -280 -304q-62 -87 -78 -87h-19q-116 85 -116 217q0 87 193 140q18 39 242 252l213 278q62 47 358 392zM557 1614
l164 -26v9q-23 52 -58 52q-106 -13 -106 -35zM412 1623l-10 -9v-17h29v9zM1563 1606q-312 -258 -358 -383l-455 -426v-26q298 262 387 295l445 531l-9 9h-10zM1640 1606q-207 -248 -271 -357v-9h10q200 142 290 314v52h-29zM905 997h10q175 109 396 426l58 61h-29
q-206 -139 -435 -470v-17zM566 684q218 180 387 461v8q-16 0 -319 -339l-77 -130h9zM654 632v-18h9q319 218 319 305q-33 -4 -328 -287zM1302 797h19l10 -44v-69l9 8h29l10 -26l-116 -356h-10l10 -26h106q0 99 49 139h29l19 -139h39q145 0 145 -35q0 -26 -87 -44h-107v-61
q0 -43 -19 -43q-48 0 -48 96q-51 17 -203 17h-29l-78 26v18q10 26 58 26v8q0 91 155 444zM508 632v-9l20 17v9zM373 492h10l48 44v9h-10zM1176 318v-26h10q23 0 77 218v8q-53 0 -87 -200zM305 432h10l29 26v8zM257 301h10l125 96v8h-9q-117 -71 -126 -104zM54 231v-17h9
l107 87v17h-29q-87 -38 -87 -87zM131 162h-19l-29 17h-20v-8q0 -46 68 -122q32 0 155 209h-19z" />
    <glyph glyph-name="questiondown" unicode="&#xbf;" horiz-adv-x="1251" 
d="M339 14q-217 0 -267 147q-7 104 -44 178v6l7 24v6l37 -12l112 -135q82 -64 288 -98h178l67 19l141 79q155 139 155 221v80q0 47 -67 110q-220 48 -274 73q-324 70 -407 117v6h44v37q0 72 37 239v98q0 36 38 36v74q11 67 37 67h14l82 -36q24 0 29 -74l-7 -24v-178l-15 -98
v-12q197 -73 445 -221q170 -163 170 -331v-43q0 -108 -133 -226q0 -47 -252 -74q-145 -55 -215 -55h-200zM124 130q5 -91 260 -91h177q38 0 97 24q0 9 -30 18l-67 -6h-133q-219 43 -319 123h-14v-25zM732 94q54 0 59 18v6l-89 -12v-12h30zM924 112q185 132 185 233v98l-7 61
h-15l8 -122q0 -32 -23 -56q-52 -118 -200 -208v-6h52zM206 167v6l-15 13v-19h15zM983 235v12l-14 -12v-13zM1043 345v37h-8l-7 -31v-18zM1035 596h8v6q-39 58 -89 86h-8zM613 761q0 -22 230 -73h15q0 18 -97 43q-193 141 -281 141v-49q133 -36 133 -62zM872 755h15v6
q-183 117 -244 117v-12q99 -80 229 -111zM443 792h7v12q-22 27 -96 49l-15 -36zM435 841h15v25l-59 49l-15 -13v-18zM532 908h14l8 19h-8l-7 6q-35 41 -59 43v-31zM376 976v6l-15 12h-7l-15 -73v-6q32 0 37 61zM398 1043h8q-6 80 -30 80v-31q0 -45 22 -49zM435 1111v30
l-14 -12v-18h14zM458 1221v24h-30v-36l7 -7zM458 1331h7v19h-30v-13zM569 1472l-8 6q-46 106 -81 135l-37 -6l-200 -55q-30 3 -30 18v6l8 6q135 62 177 111v12q-59 57 -59 98v37l15 18l30 -6q71 -59 111 -68h14q45 49 60 49l15 -18v-73q125 -76 125 -92l-14 -19l-60 25
q-37 0 -44 -19v-147l-15 -18h-7zM554 1613v24h-22v-24h22zM509 1662q0 12 37 12v31l-22 18q-41 0 -52 -30q18 -31 37 -31zM458 1735v19q0 12 -45 18h-15l37 -43z" />
    <glyph glyph-name="Agrave" unicode="&#xc0;" horiz-adv-x="1366" 
 />
    <glyph glyph-name="Aacute" unicode="&#xc1;" horiz-adv-x="1366" 
 />
    <glyph glyph-name="Acircumflex" unicode="&#xc2;" horiz-adv-x="1366" 
 />
    <glyph glyph-name="Atilde" unicode="&#xc3;" horiz-adv-x="1366" 
 />
    <glyph glyph-name="Adieresis" unicode="&#xc4;" horiz-adv-x="1366" 
d="M163 1853q42 -39 128 -39q59 -62 59 -117v-15q0 -55 -153 -117q-111 41 -111 132q0 156 77 156zM641 1837h25q104 0 154 -148v-31q0 -62 -68 -62h-60q-72 0 -145 164q0 77 94 77zM171 1728v-23l26 -23h8v23l-25 23h-9zM495 1518q112 -29 231 -218q99 -33 188 -234
q179 -210 290 -413l153 -412l-17 -47l26 -94l-17 -15q-36 0 -162 343q-123 171 -137 171h-17v-23q162 -225 162 -437v-7l-25 -24q-60 52 -180 351l-85 117q-68 0 -145 23h-239q-213 0 -213 -39l-94 -273q-38 0 -94 -179q-76 -101 -94 -101l-17 23q68 171 68 250q24 0 34 93
q35 19 35 125q49 56 76 389q123 512 214 600l17 -31h25v15h9l-9 8v16zM564 1331v-15q0 -39 34 -47v15q-9 47 -26 47h-8zM470 1308q-48 -86 -85 -351h8q15 0 85 343v8h-8zM547 1214q0 -116 -154 -459h85q130 0 359 -31v7q-205 445 -273 483h-17zM700 1199v-8
q277 -541 308 -553h8v8l-205 436q-40 24 -68 86l-34 31h-9zM257 848v-15l17 15v16zM350 700l-8 -39v-23h8l154 15q0 24 -145 47h-9zM820 653v-7l42 -8h18v23q0 16 -26 16q-34 -12 -34 -24z" />
    <glyph glyph-name="Aring" unicode="&#xc5;" horiz-adv-x="1366" 
d="M441 1853h43q254 -56 254 -156v-233q-6 -78 -51 -78v-16q6 -26 144 -140q51 -109 280 -413q112 -154 247 -568l-17 -47l25 -94l-17 -15q-36 0 -161 343q-123 171 -136 171h-17v-23q161 -225 161 -437v-7l-25 -24q-59 52 -178 351l-85 117q-68 0 -144 23h-238
q-212 0 -212 -39l-93 -273q-38 0 -94 -179q-76 -101 -93 -101l-17 23q68 171 68 250q23 0 76 218q43 87 68 405l136 475v8q-195 138 -195 272v31q0 117 102 117q0 19 169 39zM348 1643v-47q0 -48 119 -101h17l17 31q73 -31 118 -70q77 68 77 195q-122 132 -221 132h-34
q-69 0 -93 -140zM255 1674l25 -70h25v54l17 86h-17q-50 -27 -50 -70zM288 1534v-8l60 -62l8 7q-14 35 -59 63h-9zM568 1339v-16q0 -39 34 -46v15q-8 47 -25 47h-9zM475 1316q-47 -86 -85 -351h9q15 0 85 343v8h-9zM552 1222q0 -116 -153 -459h85q129 0 356 -31v7
q-203 444 -272 483h-16zM704 1207v-8q275 -541 306 -553h8v8l-203 436q-40 24 -68 85l-34 32h-9zM263 856v-15l17 15v16zM356 708l-8 -39v-23h8l153 15q0 24 -144 47h-9zM823 661v-7l42 -8h17v23q0 16 -25 16q-34 -12 -34 -24z" />
    <glyph glyph-name="AE" unicode="&#xc6;" horiz-adv-x="2048" 
d="M889 1843l29 -93h14l674 7q54 29 158 29h137q16 0 28 -51q0 -23 -100 -43q0 -14 -122 -14q-93 -57 -144 -57h-272q-299 -16 -359 -43l15 -201v-251l-8 -144l237 -28h373l22 -22l-144 -29v-7l201 -14l29 14l14 -21v-7l-21 -22h-44q-47 -72 -100 -72h-179l-388 36l15 -602
l43 -15h445l136 15h323q86 0 86 -43h35l22 -15q0 -31 -93 -50h-137q-210 0 -545 -79l-86 -7h-50q-120 36 -179 36q0 -36 -22 -36q-21 0 -21 43l-22 7l-7 -7q0 21 -179 72l-15 36l22 14l7 -7l65 50q0 231 -22 387v165h-7l-179 -21h-65l-158 7l-129 -273q-86 -283 -179 -466
h-7l-22 15l36 129q-43 0 -43 21v29l151 545q-72 21 -72 64l7 8q0 23 72 28q0 26 43 36v29h-72l-21 21l21 15h79q55 93 179 437q35 31 151 251q53 89 215 144l22 -15l28 15l15 -43h50l-7 79zM1650 1721v-21h14l21 21h-35zM272 961h15q119 107 265 495l108 201q14 0 28 50h-21
q-54 0 -258 -388zM832 1707v-15h43v15h-43zM932 1707v-15h194l14 15h-208zM1513 1657h43l72 21v14q-115 -12 -115 -35zM445 968v-7h107q46 0 194 43h14v251q-21 140 -29 402h-7q-109 -168 -165 -395zM825 1642v-7l14 -14h7l50 7v29h-57zM932 1657v-22h7q53 0 58 22h-65z
M839 1556q29 -290 65 -452h7v266l-15 208h-14q-26 0 -43 -22zM796 1090v-79l14 -14h15v14h7q-20 79 -36 79zM688 939l43 -14h29v29h-57zM796 954v-15l14 -14l15 21l-8 8h-21zM947 946v-14h21l-14 14h-7zM380 796l108 -7h86q186 0 186 64v7h-21l-115 15h-136q-108 0 -108 -58
v-21zM1040 853v-14l294 -29h151q37 0 43 22v14q-215 29 -309 29zM258 817v-21h22q21 7 21 43h-21zM796 781v-157l21 -316q51 64 51 151l-7 351h-15q-38 0 -50 -29zM115 380v-29q48 82 157 402v7h-35q-79 -86 -79 -230l-36 -143zM64 208h15l28 100h-7q-14 0 -36 -100z
M1549 172v-15l122 -7q136 0 136 22h-258zM961 157v-14h165l14 14h-179zM1018 100q8 -21 43 -21h259q37 0 43 21h-345z" />
    <glyph glyph-name="Ccedilla" unicode="&#xc7;" horiz-adv-x="1479" 
d="M804 1858h68l213 -37q76 -53 76 -93q-119 -103 -170 -103q-85 0 -179 28q-339 -228 -459 -353l-34 -66v-55q76 -316 221 -605q279 -168 391 -168q195 -74 273 -74h8l51 18l26 -9q109 68 161 186l9 9l17 -27v-66l-34 -111l17 -37q-56 -153 -187 -233q-85 -56 -145 -56
h-119q-156 37 -255 37q-52 53 -298 84q-202 66 -272 214q-10 39 -162 121l-17 84v93q0 79 17 121l-8 149v195q9 180 161 400h17q45 129 511 335zM889 1718v-37l102 -9h9l51 46v10h-120zM370 1402l357 251v19q-5 28 -68 28q-115 0 -289 -270v-28zM191 1365q-59 -164 -59 -317
q85 163 85 317h-26zM157 741v-121q0 -96 187 -223h26q-79 158 -179 558v10q-34 0 -34 -224zM259 965v-10q32 -195 94 -195v9q-68 196 -94 196zM64 806v-9l17 -19v47zM370 741l-9 -9q13 -37 26 -37h8v18zM327 657v-18q63 -197 162 -307l128 -37l8 9v9q-56 55 -162 261z
M47 602v-47q13 -84 68 -84v10q-37 121 -68 121zM617 471l-9 -9q114 -214 332 -214l77 -9l102 37v19q-385 95 -477 167zM319 276v-19q91 -74 161 -74h9v9zM634 239v-10q4 -32 127 -74l51 9v10q-39 65 -178 65zM1008 143h51l119 34v16h-85q-85 -18 -85 -50zM1034 53h85
q150 42 187 111l-9 10l-263 -112v-9zM863 110l9 -8h59v8l-17 17h-34zM646 204h7l42 -52l7 -4l36 4h35q54 0 71 -98l7 -41v-67h14v-5l7 5h36q116 0 191 -223l-7 -46l14 -16v-10q-57 -84 -135 -84q-256 0 -290 110q-21 18 -21 35h14l21 -9h7q15 0 15 26h7q28 0 155 -63h43
q85 0 85 20v73q0 72 -206 120q-70 0 -106 -26h-14v30l-28 161v26l7 56l-21 63zM702 132q6 -58 22 -58l14 11v47h-36zM766 132v-16h21v16h-21zM801 70v-47l22 -5v20q0 27 -22 32zM681 54v-36l14 -10v36zM773 -2v-26h14v26h-14zM702 -54v-15h29l7 26v15zM837 -111l106 -31v15
q-23 36 -64 36q-35 0 -42 -20zM731 -329l-7 -5v-5q14 -32 56 -32v6q-2 13 -49 36zM929 -397h78q56 24 56 58v10q-30 0 -134 -68zM830 -355l7 -16h85l14 11v5h-106z" />
    <glyph glyph-name="Egrave" unicode="&#xc8;" horiz-adv-x="1366" 
 />
    <glyph glyph-name="Eacute" unicode="&#xc9;" horiz-adv-x="1366" 
d="M210 1611l28 -81h15l673 6q53 25 158 25h136q16 0 28 -43q0 -21 -100 -38q0 -12 -122 -12q-93 -50 -143 -50h-272q-299 -14 -358 -38l14 -174v-218l-7 -125l236 -25h373l21 -18l-143 -25v-7l200 -12l29 12l14 -18v-6l-21 -19h-43q-47 -62 -100 -62h-179l-387 31l14 -524
l43 -12h444l136 12h323q86 0 86 -37h36l21 -13q0 -27 -93 -43h-136q-211 0 -545 -69l-86 -6h-50q-120 31 -179 31q0 -31 -21 -31q-22 0 -22 37l-21 7l-8 -7q0 18 -179 63l-14 31l21 12l8 -6l64 44q0 200 -21 336v181l-8 6l8 6v106q-51 0 -51 19q17 12 51 12v231
q-29 170 -29 424q51 17 79 43l14 -37h50l-7 69zM969 1505v-19h14l22 19h-36zM152 1493v-13h43v13h-43zM253 1493v-13h193l14 13h-207zM833 1449h43l71 19v12q-114 -10 -114 -31zM145 1437v-7l14 -12h8l50 6v25h-58zM253 1449v-19h7q53 0 57 19h-64zM159 1362
q29 -252 65 -393h7v231l-14 180h-15q-26 0 -43 -18zM116 957v-88h36v7q-16 81 -36 81zM116 838v-25h36l15 13l-15 12h-36zM267 832v-12h21l-14 12h-7zM116 776v-25h58v13l-15 12h-43zM360 751v-12l294 -25h150q37 0 43 18v13q-214 25 -308 25zM116 714v-162l22 -275
q50 56 50 131l-7 306h-65zM869 159v-12l121 -7q137 0 137 19h-258zM281 147v-13h165l14 13h-179zM339 97q7 -19 43 -19h257q38 0 43 19h-343zM701 1858q102 -28 169 -28l56 11q38 -6 38 -34v-23h47v-5q-63 -40 -216 -102q-159 -83 -291 -91q-42 0 -85 40q84 48 160 147z
M701 1830l-103 -80v-17q49 0 140 63l47 11v11zM738 1762h10q48 0 113 34v5h-10q-113 -18 -113 -39zM616 1631l10 -5l291 130v17h-28l-263 -130l-10 -6v-6zM522 1631v-11q47 0 66 28v6h-28z" />
    <glyph glyph-name="Ecircumflex" unicode="&#xca;" horiz-adv-x="1366" 
 />
    <glyph glyph-name="Edieresis" unicode="&#xcb;" horiz-adv-x="1366" 
 />
    <glyph glyph-name="Igrave" unicode="&#xcc;" horiz-adv-x="569" 
 />
    <glyph glyph-name="Iacute" unicode="&#xcd;" horiz-adv-x="569" 
 />
    <glyph glyph-name="Icircumflex" unicode="&#xce;" horiz-adv-x="569" 
 />
    <glyph glyph-name="Idieresis" unicode="&#xcf;" horiz-adv-x="569" 
 />
    <glyph glyph-name="Eth" unicode="&#xd0;" horiz-adv-x="1479" 
 />
    <glyph glyph-name="Ntilde" unicode="&#xd1;" horiz-adv-x="1479" 
d="M206 1633l74 -20l28 7q18 0 176 -180q234 -180 473 -498q167 -133 343 -405h18q-148 743 -148 804v192l19 20q45 0 102 -139h18v126q0 60 84 73l18 -20v-46l46 -14l10 -763v-505l9 -60q-19 -44 -83 -93q0 -26 -47 -26q-32 59 -46 59h-19q0 -26 -27 -26q-62 0 -149 159
l-167 319q-106 77 -324 392q-89 128 -241 292l-9 33h-28v-352l-37 -212v-419q46 -101 46 -212v-93l-28 -20l-18 20v73l-111 -33l-28 -20l-19 26h-28v-6l10 -47l-28 -13l-28 20l-28 418v1003q0 32 -46 120l19 13l46 -20h9q19 0 19 53l18 13l47 -6zM141 1547v-173
q47 -319 47 -764v-206l46 7v146l19 319v538l-28 53l18 33q0 26 -37 80h-18zM308 1540q63 -126 93 -126h28q0 36 -112 126h-9zM1356 1434q0 -65 -28 -126q12 -380 65 -419v166l18 93h-9l-28 20v252zM1216 1414v-67q0 -119 65 -318h10l-10 46v199q-32 140 -65 140zM466 1314
q0 -42 204 -245q370 -378 370 -472q74 -168 251 -286v7q-91 162 -362 511q-56 152 -306 379l-139 106h-18zM1281 995v-33l19 -13v33zM1013 823v-7l37 -60h9v7q-21 60 -46 60zM1077 736v-6q22 -64 130 -186l149 -233h18q-87 190 -269 412zM1365 604v-20l18 -14v20zM1383 531
v-14q6 -66 28 -66v7q-7 73 -28 73zM104 458v-266h28v226q0 34 -28 40zM188 385v-266h18l28 20v192q0 37 -46 54zM1105 385v-7l28 -33v-34l28 -6v33q-24 0 -46 47h-10zM1272 238v-6l37 -27v14l-28 19h-9zM1207 225v-20h19v7zM280 185v-33l19 -13v33zM806 1820
q149 -136 163 -136h38q74 0 74 47v60l22 17h15l7 -6l30 24q27 0 52 -83v-6l-7 -24q-70 -54 -82 -106q-25 0 -126 -48l-67 6q-52 0 -267 196h-8q-20 0 -74 -30q-138 -136 -156 -136q-22 14 -22 47l22 60q85 148 230 148h45q32 0 111 -30zM687 1820h-44v-12q78 0 163 -53h15v6
q-99 59 -134 59zM1148 1755v-24l14 12zM903 1618v-11l74 -18l22 6v23h-96z" />
    <glyph glyph-name="Ograve" unicode="&#xd2;" horiz-adv-x="1593" 
 />
    <glyph glyph-name="Oacute" unicode="&#xd3;" horiz-adv-x="1593" 
 />
    <glyph glyph-name="Ocircumflex" unicode="&#xd4;" horiz-adv-x="1593" 
 />
    <glyph glyph-name="Otilde" unicode="&#xd5;" horiz-adv-x="1593" 
 />
    <glyph glyph-name="Odieresis" unicode="&#xd6;" horiz-adv-x="1593" 
d="M721 1553h18q466 -34 466 -96q63 -19 144 -175q118 -72 197 -270q45 -114 45 -493v-6q0 -26 -152 -144q0 -70 -207 -217q-247 -138 -385 -138h-215q-363 0 -520 240q-99 133 -99 235v270l54 259q0 148 161 325l99 78q120 60 394 132zM228 814q0 -267 144 -463
q208 -133 421 -133h45l179 67q278 168 278 432l36 283v84q-122 283 -224 283q-121 82 -260 120q-163 0 -439 -259q-180 -211 -180 -414zM1071 1475l134 -90v-12h27v12q0 12 -134 90h-27zM121 1066h26l162 271q-74 0 -188 -259v-12zM112 735v-78l53 -240q0 -232 225 -277
l152 -12v6q-177 110 -278 271q-90 144 -90 216v108q0 168 54 355q-64 0 -116 -349zM1412 1078v-240q-36 -118 -45 -265l-99 -246q206 110 206 276v355q-39 120 -62 120zM1519 880v-193l18 12v169zM1519 513v-12l27 18v30q-27 -6 -27 -36zM58 519v-24q6 -96 36 -96v24
q-6 96 -36 96zM829 188h-27q-128 0 -332 54v-6q140 -108 251 -108h27q359 50 359 96q65 0 134 175h-9q-216 -187 -322 -187q-12 -24 -81 -24zM883 104v-6h36l71 24v12h-9q-98 -21 -98 -30zM372 98v-6q145 -48 224 -48v12l-215 42h-9zM605 98q0 -16 71 -24h81q0 14 -107 24
h-45zM516 1858q42 -34 126 -34q59 -56 59 -104v-14q0 -48 -151 -103q-109 37 -109 117q0 138 75 138zM985 1844h25q103 0 151 -131v-27q0 -55 -67 -55h-59q-70 0 -142 144q0 69 92 69zM525 1748v-21l25 -21h8v21l-25 21h-8z" />
    <glyph glyph-name="multiply" unicode="&#xd7;" horiz-adv-x="1196" 
 />
    <glyph glyph-name="Oslash" unicode="&#xd8;" horiz-adv-x="1593" 
d="M1434 1858l18 -19l-36 -64l9 -26q-36 -57 -72 -255q-16 0 -18 -32q0 -15 108 -115q153 -170 153 -645v-89q0 -28 -153 -153q0 -74 -207 -230q-248 -147 -387 -147h-215q-90 0 -234 26q-108 -45 -108 -103l-36 -6l-36 38l-90 -19h-9l-27 13q0 13 72 45l72 121
q-225 212 -225 389v288l54 274q0 157 162 345l99 83q120 65 396 141h18q264 -20 440 -64h9q130 191 153 191l27 -13h27q3 26 36 26zM229 932q0 -288 135 -466q126 156 333 549q386 469 386 511v6q0 30 -234 115q-163 0 -440 -274q-180 -225 -180 -441zM1074 1635
q21 -39 63 -39v13l-36 26h-27zM1128 1500q-198 -291 -386 -504q-99 -153 -99 -192h9l215 301q29 16 81 102q52 39 207 287v6h-27zM121 1200h27l162 288q-74 0 -189 -275v-13zM1218 1424l-81 -153v-7h9q108 95 108 128q-6 32 -27 32h-9zM1263 1315q-101 -93 -288 -402
q-160 -180 -296 -441q-34 -33 -81 -134q77 -38 198 -38h44l180 70q279 179 279 460l36 300v90q-36 95 -54 95h-18zM112 849v-83l54 -255q0 -170 108 -243h18l45 141q-77 61 -153 261l-9 58v115q0 178 54 377q-65 0 -117 -371zM1416 1213v-255q-36 -125 -45 -281l-99 -262
q207 117 207 294v376q-40 128 -63 128zM427 415q15 -32 45 -32q139 56 243 268q0 31 305 543v6q-40 -25 -126 -146l-233 -320q-79 -73 -234 -319zM1524 1002v-204l18 13v179zM1524 613v-13l27 19v32q-27 -6 -27 -38zM58 619v-25q6 -102 36 -102v25q-6 102 -36 102zM831 268
h-26q-126 0 -234 32l-18 -19v-13q79 -64 171 -64h27q359 54 359 102q66 0 135 186h-9q-217 -198 -324 -198q-12 -26 -81 -26zM346 255q54 26 54 64v7h-18q-27 0 -36 -71zM481 319v-6l18 -13h9v19h-27zM427 268l-27 -51l36 -6l36 38l-9 19h-36zM517 223v-19h27v7l-18 12h-9z
M885 179v-7h36l72 26v13h-9q-99 -23 -99 -32zM607 172q0 -16 72 -25h81q0 14 -108 25h-45zM454 153v-6q53 -32 144 -32v13l-135 25h-9z" />
    <glyph glyph-name="Ugrave" unicode="&#xd9;" horiz-adv-x="1479" 
 />
    <glyph glyph-name="Uacute" unicode="&#xda;" horiz-adv-x="1479" 
 />
    <glyph glyph-name="Ucircumflex" unicode="&#xdb;" horiz-adv-x="1479" 
 />
    <glyph glyph-name="Udieresis" unicode="&#xdc;" horiz-adv-x="1479" 
d="M1221 1573q30 0 62 -63q123 -51 123 -139v-133q28 0 70 -347v-190q0 -52 -193 -429q-51 -105 -352 -234q-52 -25 -96 -25h-53q-60 0 -237 88q-155 0 -281 101l-149 240q-97 236 -97 348v139q0 116 97 499q30 139 96 139l18 -13l-9 -6l9 -108v-44h17v139l27 19l17 -19
v-133q0 -73 -105 -265v-347q34 -215 219 -385q178 -193 343 -272q75 0 351 139q185 149 185 328v588q0 32 -150 341l18 12q26 0 26 -19l9 -6h18v38zM1248 1428v-7l105 -227h9v25q0 68 -97 209h-17zM176 1264v-13h9q21 0 26 57zM62 885q0 -145 88 -272h9v25l-27 253v265
q-70 -65 -70 -271zM1406 954v-6l9 -272l17 13v215q0 46 -26 50zM1327 941v-372q35 10 35 44v189q0 120 -35 139zM141 512v-6q29 -76 44 -76h9v25zM238 493v-6q0 -52 140 -228q0 -52 228 -126h27v19l-106 69l-263 272h-26zM273 304v-7l17 -12v19h-17zM975 139v-6q40 12 44 25
h-17zM668 101v-19l123 -37h53l70 37v7h-79zM433 1858q41 -33 124 -33q58 -52 58 -97v-13q0 -46 -149 -98q-108 35 -108 111q0 130 75 130zM897 1845h25q101 0 149 -124v-26q0 -52 -66 -52h-58q-70 0 -141 137q0 65 91 65zM441 1754v-20l25 -19h8v19l-25 20h-8z" />
    <glyph glyph-name="Yacute" unicode="&#xdd;" horiz-adv-x="1366" 
 />
    <glyph glyph-name="Thorn" unicode="&#xde;" horiz-adv-x="1366" 
 />
    <glyph glyph-name="germandbls" unicode="&#xdf;" horiz-adv-x="1251" 
d="M375 1858l51 -23l173 23q97 0 224 -70q65 0 143 -85q183 -116 183 -248v-15q0 -134 -224 -334q-32 0 -71 -46v-16l91 -38l275 -295l11 -38v-78l20 -85v-116q0 -125 -255 -264h-102q-80 0 -285 70q-258 70 -306 70q-31 -256 -153 -256h-61q-61 0 -61 62v31q0 23 92 23
l20 23v16h-20q-102 0 -102 85v8l31 23q38 -76 61 -77h20q75 0 143 348l20 16v240l-51 124l31 15l-10 117v666q51 54 91 54v47zM578 1765q2 -52 306 -132l31 -23v8q0 97 -184 139l-102 24zM405 1688v-47l21 -333v-225h10l173 -8q265 42 265 132q24 0 51 109v162
q-69 140 -153 140l-143 39q-78 62 -122 62h-10q-92 -14 -92 -31zM976 1610v-85q81 -82 81 -116v-16q0 -26 -61 -85l-30 -62l10 -8h10q9 34 82 116l30 86v15q0 67 -102 155h-20zM344 1502v-411h31v232q0 179 -31 179zM976 1416v-23h10l20 16l-10 7h-20zM344 1044v-85h20
l11 54v31h-31zM426 998v-39h132l31 23v16h-163zM691 990v-23h30l20 15v16zM813 990l-10 -31l112 -69h51v15q-55 70 -102 85h-51zM578 913v-23h31l20 15v8h-51zM619 851h-193q0 -473 61 -473q88 -70 112 -70q285 0 285 86q38 17 71 62v255q0 70 -254 163zM1057 789v-8l62 -54
v8q-27 49 -51 54h-11zM1006 696v-202h21v202h-21zM1078 657v-186h10q20 0 61 101q0 41 -61 85h-10zM334 409h61l-10 155v78q-36 0 -51 -233zM803 239h-112v-8q134 -62 203 -62h82q0 17 173 124q51 67 51 116v93h-10q-22 0 -61 -85l-224 -140q-23 -38 -102 -38zM1017 425v-8
h20l20 15v8h-20zM314 339v-31h40v16l-20 15h-20zM191 122q0 -31 -71 -31h-41v-23l21 -15h40q61 31 61 62v7h-10z" />
    <glyph glyph-name="agrave" unicode="&#xe0;" 
d="M733 1199q21 0 116 -77l45 -8v8l13 15h6q123 -210 123 -377q0 -71 84 -500l19 -154l-19 -23v-8l-7 8h-6q-58 -26 -58 -77h-20q-34 0 -103 516q-358 -516 -477 -516h-45l-84 8l-90 -8h-103q-86 0 -110 115v47l32 169q0 91 91 292q113 205 270 416l168 123zM210 422v-39
q0 -84 136 -192q91 0 406 292q103 172 103 316v161q0 57 -71 131h-116q-127 -58 -341 -331q-65 -98 -117 -338zM243 729v-38h6q13 4 65 123l200 231l6 8v7h-13q-196 -159 -264 -331zM875 1053v-31l13 -15h6v46h-19zM920 983v-123l19 -23v8q0 138 -19 138zM997 822v-23
l13 -16v39h-13zM185 660l-104 -231v-38h7q40 38 84 154l26 38v62zM971 568q9 -146 33 -146v7l-20 116v23h-13zM172 483l-13 -92v-23q18 0 26 77v38h-13zM449 175h13q231 113 290 231l26 46h-13q-127 -123 -310 -254l-6 -7v-16zM75 306v-8q0 -79 77 -161h13v8l-32 184v62h-6
q-16 -8 -52 -85zM1042 368v-8q5 -131 26 -131v69q0 59 -26 70zM191 322l-6 -54v-39q22 -46 58 -46h51v23q-20 0 -96 116h-7zM655 268v-16h7l13 16v7zM49 237l-6 -39v-100q36 -61 71 -61h142q-29 45 -123 77l-77 123h-7zM520 145h-45q-72 -93 -103 -93v-15h90q40 0 168 131
l19 30h-13zM191 168v-23l19 -24h97l20 24v7h-71zM288 91h-26v-8q0 -17 58 -31q97 48 103 69v24h-6zM1010 145v-16l13 -69h13v54l-13 31h-13zM586 1793q63 -35 173 -205q63 -139 162 -238q-49 -76 -97 -76q-141 0 -465 270q-29 0 -119 98v10h54v44q0 54 43 65l87 -22
q100 14 162 54zM500 1717v-21q37 0 173 -130l43 -11v33q-107 151 -141 151zM413 1685v-11q0 -28 130 -65h11q0 40 -130 76h-11zM348 1631v-33l335 -248l11 11q-8 36 -238 194l-75 76h-33zM727 1404v-11q21 -54 75 -54v22l-43 43h-32z" />
    <glyph glyph-name="aacute" unicode="&#xe1;" 
d="M733 1199q21 0 116 -77l45 -8v8l13 15h6q123 -210 123 -377q0 -71 84 -500l19 -154l-19 -23v-8l-7 8h-6q-58 -26 -58 -77h-20q-34 0 -103 516q-358 -516 -477 -516h-45l-84 8l-90 -8h-103q-86 0 -110 115v47l32 169q0 91 91 292q113 205 270 416l168 123zM210 422v-39
q0 -84 136 -192q91 0 406 292q103 172 103 316v161q0 57 -71 131h-116q-127 -58 -341 -331q-65 -98 -117 -338zM243 729v-38h6q13 4 65 123l200 231l6 8v7h-13q-196 -159 -264 -331zM875 1053v-31l13 -15h6v46h-19zM920 983v-123l19 -23v8q0 138 -19 138zM997 822v-23
l13 -16v39h-13zM185 660l-104 -231v-38h7q40 38 84 154l26 38v62zM971 568q9 -146 33 -146v7l-20 116v23h-13zM172 483l-13 -92v-23q18 0 26 77v38h-13zM449 175h13q231 113 290 231l26 46h-13q-127 -123 -310 -254l-6 -7v-16zM75 306v-8q0 -79 77 -161h13v8l-32 184v62h-6
q-16 -8 -52 -85zM1042 368v-8q5 -131 26 -131v69q0 59 -26 70zM191 322l-6 -54v-39q22 -46 58 -46h51v23q-20 0 -96 116h-7zM655 268v-16h7l13 16v7zM49 237l-6 -39v-100q36 -61 71 -61h142q-29 45 -123 77l-77 123h-7zM520 145h-45q-72 -93 -103 -93v-15h90q40 0 168 131
l19 30h-13zM191 168v-23l19 -24h97l20 24v7h-71zM288 91h-26v-8q0 -17 58 -31q97 48 103 69v24h-6zM1010 145v-16l13 -69h13v54l-13 31h-13zM575 1719q111 -51 184 -51l61 20q41 -10 41 -61v-41h51v-10q-68 -72 -235 -184q-172 -149 -316 -163q-46 0 -92 71q92 88 174 266z
M575 1668l-112 -143v-31q54 0 153 113l51 20v21zM616 1545h10q52 0 123 62v10h-10q-123 -34 -123 -72zM483 1311l11 -11l316 235v31h-31l-285 -235l-11 -10v-10zM381 1311v-21q51 0 72 51v11h-31z" />
    <glyph glyph-name="acircumflex" unicode="&#xe2;" 
d="M733 1199q21 0 116 -77l45 -8v8l13 15h6q123 -210 123 -377q0 -71 84 -500l19 -154l-19 -23v-8l-7 8h-6q-58 -26 -58 -77h-20q-34 0 -103 516q-358 -516 -477 -516h-45l-84 8l-90 -8h-103q-86 0 -110 115v47l32 169q0 91 91 292q113 205 270 416l168 123zM210 422v-39
q0 -84 136 -192q91 0 406 292q103 172 103 316v161q0 57 -71 131h-116q-127 -58 -341 -331q-65 -98 -117 -338zM243 729v-38h6q13 4 65 123l200 231l6 8v7h-13q-196 -159 -264 -331zM875 1053v-31l13 -15h6v46h-19zM920 983v-123l19 -23v8q0 138 -19 138zM997 822v-23
l13 -16v39h-13zM185 660l-104 -231v-38h7q40 38 84 154l26 38v62zM971 568q9 -146 33 -146v7l-20 116v23h-13zM172 483l-13 -92v-23q18 0 26 77v38h-13zM449 175h13q231 113 290 231l26 46h-13q-127 -123 -310 -254l-6 -7v-16zM75 306v-8q0 -79 77 -161h13v8l-32 184v62h-6
q-16 -8 -52 -85zM1042 368v-8q5 -131 26 -131v69q0 59 -26 70zM191 322l-6 -54v-39q22 -46 58 -46h51v23q-20 0 -96 116h-7zM655 268v-16h7l13 16v7zM49 237l-6 -39v-100q36 -61 71 -61h142q-29 45 -123 77l-77 123h-7zM520 145h-45q-72 -93 -103 -93v-15h90q40 0 168 131
l19 30h-13zM191 168v-23l19 -24h97l20 24v7h-71zM288 91h-26v-8q0 -17 58 -31q97 48 103 69v24h-6zM1010 145v-16l13 -69h13v54l-13 31h-13zM569 1675l145 -99q297 -220 297 -290l-23 -15q-57 0 -267 152q-62 69 -99 69q-206 -161 -305 -320l-7 -8h-8l-23 38l-38 -15l-15 31
q11 32 137 106q52 156 206 351zM561 1515v-8q32 11 46 38h-15zM752 1469q23 -53 76 -53h8q0 18 -84 53z" />
    <glyph glyph-name="atilde" unicode="&#xe3;" 
d="M733 1199q21 0 116 -77l45 -8v8l13 15h6q123 -210 123 -377q0 -71 84 -500l19 -154l-19 -23v-8l-7 8h-6q-58 -26 -58 -77h-20q-34 0 -103 516q-358 -516 -477 -516h-45l-84 8l-90 -8h-103q-86 0 -110 115v47l32 169q0 91 91 292q113 205 270 416l168 123zM210 422v-39
q0 -84 136 -192q91 0 406 292q103 172 103 316v161q0 57 -71 131h-116q-127 -58 -341 -331q-65 -98 -117 -338zM243 729v-38h6q13 4 65 123l200 231l6 8v7h-13q-196 -159 -264 -331zM875 1053v-31l13 -15h6v46h-19zM920 983v-123l19 -23v8q0 138 -19 138zM997 822v-23
l13 -16v39h-13zM185 660l-104 -231v-38h7q40 38 84 154l26 38v62zM971 568q9 -146 33 -146v7l-20 116v23h-13zM172 483l-13 -92v-23q18 0 26 77v38h-13zM449 175h13q231 113 290 231l26 46h-13q-127 -123 -310 -254l-6 -7v-16zM75 306v-8q0 -79 77 -161h13v8l-32 184v62h-6
q-16 -8 -52 -85zM1042 368v-8q5 -131 26 -131v69q0 59 -26 70zM191 322l-6 -54v-39q22 -46 58 -46h51v23q-20 0 -96 116h-7zM655 268v-16h7l13 16v7zM49 237l-6 -39v-100q36 -61 71 -61h142q-29 45 -123 77l-77 123h-7zM520 145h-45q-72 -93 -103 -93v-15h90q40 0 168 131
l19 30h-13zM191 168v-23l19 -24h97l20 24v7h-71zM288 91h-26v-8q0 -17 58 -31q97 48 103 69v24h-6zM1010 145v-16l13 -69h13v54l-13 31h-13zM442 1595h41q96 0 221 -166l34 -27h35q69 0 69 55v69l20 21h7l7 -7q32 13 35 27q25 0 48 -96v-7q0 -23 -69 -104q0 -62 -69 -62
q-29 -41 -76 -41q-107 0 -221 159l-76 76h-6q-53 0 -201 -187l-6 -7q-28 4 -28 56q0 78 110 200q86 41 125 41zM435 1561v-14q64 0 158 -62h7v7q-92 69 -124 69h-41zM904 1485v-28l13 14zM676 1326v-14l69 -21l21 7v28h-90z" />
    <glyph glyph-name="adieresis" unicode="&#xe4;" 
d="M733 1199q21 0 116 -77l45 -8v8l13 15h6q123 -210 123 -377q0 -71 84 -500l19 -154l-19 -23v-8l-7 8h-6q-58 -26 -58 -77h-20q-34 0 -103 516q-358 -516 -477 -516h-45l-84 8l-90 -8h-103q-86 0 -110 115v47l32 169q0 91 91 292q113 205 270 416l168 123zM210 422v-39
q0 -84 136 -192q91 0 406 292q103 172 103 316v161q0 57 -71 131h-116q-127 -58 -341 -331q-65 -98 -117 -338zM243 729v-38h6q13 4 65 123l200 231l6 8v7h-13q-196 -159 -264 -331zM875 1053v-31l13 -15h6v46h-19zM920 983v-123l19 -23v8q0 138 -19 138zM997 822v-23
l13 -16v39h-13zM185 660l-104 -231v-38h7q40 38 84 154l26 38v62zM971 568q9 -146 33 -146v7l-20 116v23h-13zM172 483l-13 -92v-23q18 0 26 77v38h-13zM449 175h13q231 113 290 231l26 46h-13q-127 -123 -310 -254l-6 -7v-16zM75 306v-8q0 -79 77 -161h13v8l-32 184v62h-6
q-16 -8 -52 -85zM1042 368v-8q5 -131 26 -131v69q0 59 -26 70zM191 322l-6 -54v-39q22 -46 58 -46h51v23q-20 0 -96 116h-7zM655 268v-16h7l13 16v7zM49 237l-6 -39v-100q36 -61 71 -61h142q-29 45 -123 77l-77 123h-7zM520 145h-45q-72 -93 -103 -93v-15h90q40 0 168 131
l19 30h-13zM191 168v-23l19 -24h97l20 24v7h-71zM288 91h-26v-8q0 -17 58 -31q97 48 103 69v24h-6zM1010 145v-16l13 -69h13v54l-13 31h-13zM347 1511q39 -39 118 -39q55 -63 55 -118v-16q0 -55 -142 -118q-102 42 -102 134q0 157 71 157zM787 1495h24q96 0 141 -149v-32
q0 -62 -63 -62h-55q-66 0 -134 165q0 78 87 78zM355 1385v-23l23 -24h8v24l-24 23h-7z" />
    <glyph glyph-name="aring" unicode="&#xe5;" 
d="M733 1199q21 0 116 -77l45 -8v8l13 15h6q123 -210 123 -377q0 -71 84 -500l19 -154l-19 -23v-8l-7 8h-6q-58 -26 -58 -77h-20q-34 0 -103 516q-358 -516 -477 -516h-45l-84 8l-90 -8h-103q-86 0 -110 115v47l32 169q0 91 91 292q113 205 270 416l168 123zM210 422v-39
q0 -84 136 -192q91 0 406 292q103 172 103 316v161q0 57 -71 131h-116q-127 -58 -341 -331q-65 -98 -117 -338zM243 729v-38h6q13 4 65 123l200 231l6 8v7h-13q-196 -159 -264 -331zM875 1053v-31l13 -15h6v46h-19zM920 983v-123l19 -23v8q0 138 -19 138zM997 822v-23
l13 -16v39h-13zM185 660l-104 -231v-38h7q40 38 84 154l26 38v62zM971 568q9 -146 33 -146v7l-20 116v23h-13zM172 483l-13 -92v-23q18 0 26 77v38h-13zM449 175h13q231 113 290 231l26 46h-13q-127 -123 -310 -254l-6 -7v-16zM75 306v-8q0 -79 77 -161h13v8l-32 184v62h-6
q-16 -8 -52 -85zM1042 368v-8q5 -131 26 -131v69q0 59 -26 70zM191 322l-6 -54v-39q22 -46 58 -46h51v23q-20 0 -96 116h-7zM655 268v-16h7l13 16v7zM49 237l-6 -39v-100q36 -61 71 -61h142q-29 45 -123 77l-77 123h-7zM520 145h-45q-72 -93 -103 -93v-15h90q40 0 168 131
l19 30h-13zM191 168v-23l19 -24h97l20 24v7h-71zM288 91h-26v-8q0 -17 58 -31q97 48 103 69v24h-6zM1010 145v-16l13 -69h13v54l-13 31h-13zM612 1663h35q210 -50 210 -140v-210q0 -77 -105 -77l-28 -7h-84q-176 0 -252 259v35q0 105 84 105q0 17 140 35zM535 1474v-42
q0 -47 161 -133l49 -7q77 60 77 189q-100 119 -182 119h-28q-57 0 -77 -126zM458 1502l21 -63h21v49l14 77h-14q-42 -24 -42 -63zM486 1376v-7l49 -56l7 7q-12 32 -49 56h-7z" />
    <glyph glyph-name="ae" unicode="&#xe6;" horiz-adv-x="1821" 
d="M417 1199h51q74 0 148 -170q96 -169 96 -233h7q98 143 177 205q154 92 398 92q0 18 88 21q69 0 133 -85q103 -53 103 -113v-70q-12 -153 -74 -226q-194 -191 -324 -191q-23 -42 -81 -42h-206l-103 21h-8v-28q0 -97 229 -191h464q201 65 265 198q7 42 22 42h8v-14h7
q0 -134 -236 -367q-110 -57 -184 -57h-125q-78 0 -170 57h-96q-84 0 -228 91h-7q-224 -106 -295 -106h-199q-206 0 -206 64q-45 64 -45 134v78q0 84 185 148q72 120 235 120l207 -49h22v49l7 135q-34 164 -125 240q-96 56 -147 56h-96q-148 -69 -148 -176q-60 -99 -95 -99
q-15 16 -15 49q-37 0 -37 21v7q0 129 177 318q119 71 221 71zM181 1029h15q65 0 177 43l132 -35h52q-46 127 -111 127h-29q-236 -44 -236 -135zM1316 1072v-14h15l125 -14v14q0 15 -66 28h-59zM1146 1015v-14l207 -49v21q0 30 -133 64h-15q-54 0 -59 -22zM822 521v-21h206
q339 63 339 212l23 63v120q0 26 -236 78l-44 21q-288 -162 -288 -473zM1382 994v-7q0 -60 133 -92l7 -7v-7l-29 -162h29q30 14 44 42v42q-36 177 -125 177zM1530 987v-14l51 -57h7v22q-29 49 -58 49zM137 952l-52 -120v-22q67 47 67 142h-15zM778 627v-127h15v7
q0 257 191 438h-14q-170 -93 -170 -226q-18 -14 -22 -92zM1419 895v-106l-29 -120v-7h22q49 0 81 212zM1404 563l8 -7h7q103 73 103 134h-15q-23 -8 -103 -127zM1205 507h15q91 0 170 77l7 7v29h-7q-67 -55 -185 -106v-7zM321 500v-7h7q118 28 118 42v7q-125 -4 -125 -42z
M1176 478h-96v-14h170l14 14v8zM211 189q77 -92 147 -92h44q138 0 346 141q-24 209 -44 219q-107 21 -206 21q-104 0 -228 -141q-59 -102 -59 -148zM822 471v-35l96 -21h250l15 14v7h-280q-28 35 -59 35h-22zM130 189v-21q23 -50 66 -50l-22 71q0 119 118 240v14h-22
q-52 0 -140 -254zM63 316v-85q0 -52 22 -56h8v28l59 169v8h-8q-56 -26 -81 -64zM822 182l-15 -21v-8q0 -17 163 -77h36v7q-47 62 -184 99zM970 161q0 -46 147 -85h29l37 7v7q-7 17 -191 71h-22zM1146 161q0 -22 81 -22h185l36 7v15h-302zM1390 69h-126l-88 -14v-7
q10 -29 66 -29h184q100 9 207 106l14 36h-7q-25 0 -133 -71q-54 -21 -117 -21zM1463 118v-14h8l36 14v14h-7z" />
    <glyph glyph-name="ccedilla" unicode="&#xe7;" horiz-adv-x="1024" 
d="M670 1199q72 0 193 -156l8 -8v-35q-46 0 -46 -78h-16q-12 1 -54 87h-77q-95 0 -418 -337q-24 -95 -47 -130v-17q0 -80 116 -312q135 -103 248 -103h15q122 42 202 155h15v-17h8l-31 -78q149 67 225 147h7v-17h8q0 -104 -225 -285l-54 -9h-31l-147 26h-186q-52 0 -201 130
q-178 71 -178 207v35q0 260 147 466q67 197 139 234l78 -9q64 52 193 69q34 35 109 35zM623 1164v-17l117 -43l7 9v8q0 26 -69 43h-55zM523 1095v-8h147v8q0 26 -124 26zM438 1095v-8l31 -9l7 9v26h-23zM267 1043v-17q36 17 39 35v8h-16zM81 464v-52q0 -61 70 -121l8 9h8
l-47 104v112q0 44 54 138q37 153 132 251l116 130v17h-70q-145 -108 -240 -337q-31 -162 -31 -251zM236 706h8q160 233 356 303v8l-85 26q-78 0 -271 -285zM43 551v-18l15 18v17zM35 481v-121q48 -164 147 -164v9q-132 135 -132 225v69zM198 404v-9q5 -121 54 -121h8v9
q0 43 -55 121h-7zM740 110v-18h46q41 0 77 44v17zM670 58v-17h101l15 17h-116zM447 117h4l24 -40l4 -4l20 4h20q31 0 40 -76l4 -32v-52h8v-4l4 4h20q66 0 108 -172l-4 -36l8 -12v-8q-32 -64 -76 -64q-145 0 -164 84q-12 15 -12 28h8l12 -8h4q8 0 8 20h4q16 0 88 -48h24
q48 0 48 16v56q0 56 -116 92q-40 0 -60 -20h-8v24l-16 124v20l4 44l-12 48zM479 61q3 -44 12 -44l8 8v36h-20zM515 61v-12h12v12h-12zM535 13v-36l12 -4v16q0 21 -12 24zM467 1v-28l8 -8v28zM519 -43v-20h8v20h-8zM479 -83v-12h16l4 20v12zM555 -127l60 -24v12
q-13 28 -36 28q-20 0 -24 -16zM495 -295l-4 -4v-4q8 -24 32 -24v4q-1 11 -28 28zM607 -347h44q32 19 32 44v8q-17 0 -76 -52zM551 -315l4 -12h48l8 8v4h-60z" />
    <glyph glyph-name="egrave" unicode="&#xe8;" 
d="M712 1199q67 0 130 -89q102 -57 102 -120v-74q-12 -162 -73 -239q-191 -201 -318 -201q-23 -45 -80 -45h-203l-101 23h-7v-30q0 -102 224 -201h456q198 68 261 208q7 45 22 45h7v-15h7q0 -141 -232 -387q-108 -60 -181 -60h-123q-76 0 -166 60h-94q-246 44 -246 186
q-22 74 -37 238q-19 0 -43 127v52q0 141 159 351q147 149 449 149q0 18 87 22zM647 1154v-15h14l123 -15v15q0 17 -65 30h-58zM480 1095v-15l203 -52v22q0 31 -130 67h-15q-53 0 -58 -22zM162 573v-22h202q333 67 333 223l22 67v127q0 27 -231 82l-44 22
q-282 -171 -282 -499zM712 1072v-7q0 -63 130 -97l7 -7v-8l-29 -171h29q29 15 44 44v45q-36 186 -123 186zM857 1065v-15l50 -60h8v23q-29 52 -58 52zM118 685v-134h15v7q0 272 188 462h-14q-167 -98 -167 -238q-18 -15 -22 -97zM748 968v-112l-29 -127v-7h22q48 0 79 224z
M46 715v-120l22 -22v186q-22 -7 -22 -44zM734 618l7 -8h7q101 77 101 142h-14q-23 -9 -101 -134zM538 558h15q89 0 166 82l7 7v30h-7q-65 -57 -181 -111v-8zM509 528h-94v-15h167l14 15v8zM162 521v-37l94 -23h246l14 15v8h-275q-28 37 -58 37h-21zM111 320v-15
q15 -14 15 -75q30 -82 86 -82l95 -45h36v8q-60 68 -181 112l-44 97h-7zM307 193q0 -48 144 -90h29l36 8v7q-7 18 -188 75h-21zM480 193q0 -22 80 -22h181l36 7v15h-297zM719 96h-123l-87 -15v-7q10 -30 65 -30h181q98 9 203 112l15 37h-8q-24 0 -130 -75q-54 -22 -116 -22z
M792 148v-15h7l36 15v15h-7zM555 1808q63 -35 173 -205q63 -139 162 -238q-49 -76 -97 -76q-141 0 -465 270q-29 0 -119 98v10h54v44q0 54 43 65l87 -22q100 14 162 54zM469 1732v-21q37 0 173 -130l43 -11v33q-107 151 -141 151zM382 1700v-11q0 -28 130 -65h11
q0 40 -130 76h-11zM317 1646v-33l335 -248l11 11q-8 36 -238 194l-75 76h-33zM696 1419v-11q21 -54 75 -54v22l-43 43h-32z" />
    <glyph glyph-name="eacute" unicode="&#xe9;" 
d="M712 1199q67 0 130 -89q102 -57 102 -120v-74q-12 -162 -73 -239q-191 -201 -318 -201q-23 -45 -80 -45h-203l-101 23h-7v-30q0 -102 224 -201h456q198 68 261 208q7 45 22 45h7v-15h7q0 -141 -232 -387q-108 -60 -181 -60h-123q-76 0 -166 60h-94q-246 44 -246 186
q-22 74 -37 238q-19 0 -43 127v52q0 141 159 351q147 149 449 149q0 18 87 22zM647 1154v-15h14l123 -15v15q0 17 -65 30h-58zM480 1095v-15l203 -52v22q0 31 -130 67h-15q-53 0 -58 -22zM162 573v-22h202q333 67 333 223l22 67v127q0 27 -231 82l-44 22
q-282 -171 -282 -499zM712 1072v-7q0 -63 130 -97l7 -7v-8l-29 -171h29q29 15 44 44v45q-36 186 -123 186zM857 1065v-15l50 -60h8v23q-29 52 -58 52zM118 685v-134h15v7q0 272 188 462h-14q-167 -98 -167 -238q-18 -15 -22 -97zM748 968v-112l-29 -127v-7h22q48 0 79 224z
M46 715v-120l22 -22v186q-22 -7 -22 -44zM734 618l7 -8h7q101 77 101 142h-14q-23 -9 -101 -134zM538 558h15q89 0 166 82l7 7v30h-7q-65 -57 -181 -111v-8zM509 528h-94v-15h167l14 15v8zM162 521v-37l94 -23h246l14 15v8h-275q-28 37 -58 37h-21zM111 320v-15
q15 -14 15 -75q30 -82 86 -82l95 -45h36v8q-60 68 -181 112l-44 97h-7zM307 193q0 -48 144 -90h29l36 8v7q-7 18 -188 75h-21zM480 193q0 -22 80 -22h181l36 7v15h-297zM719 96h-123l-87 -15v-7q10 -30 65 -30h181q98 9 203 112l15 37h-8q-24 0 -130 -75q-54 -22 -116 -22z
M792 148v-15h7l36 15v15h-7zM590 1711q111 -51 184 -51l61 20q41 -10 41 -61v-41h51v-10q-68 -72 -235 -184q-172 -149 -316 -163q-46 0 -92 71q92 88 174 266zM590 1660l-112 -143v-31q54 0 153 113l51 20v21zM631 1537h10q52 0 123 62v10h-10q-123 -34 -123 -72zM498 1303
l11 -11l316 235v31h-31l-285 -235l-11 -10v-10zM396 1303v-21q51 0 72 51v11h-31z" />
    <glyph glyph-name="ecircumflex" unicode="&#xea;" 
d="M712 1199q67 0 130 -89q102 -57 102 -120v-74q-12 -162 -73 -239q-191 -201 -318 -201q-23 -45 -80 -45h-203l-101 23h-7v-30q0 -102 224 -201h456q198 68 261 208q7 45 22 45h7v-15h7q0 -141 -232 -387q-108 -60 -181 -60h-123q-76 0 -166 60h-94q-246 44 -246 186
q-22 74 -37 238q-19 0 -43 127v52q0 141 159 351q147 149 449 149q0 18 87 22zM647 1154v-15h14l123 -15v15q0 17 -65 30h-58zM480 1095v-15l203 -52v22q0 31 -130 67h-15q-53 0 -58 -22zM162 573v-22h202q333 67 333 223l22 67v127q0 27 -231 82l-44 22
q-282 -171 -282 -499zM712 1072v-7q0 -63 130 -97l7 -7v-8l-29 -171h29q29 15 44 44v45q-36 186 -123 186zM857 1065v-15l50 -60h8v23q-29 52 -58 52zM118 685v-134h15v7q0 272 188 462h-14q-167 -98 -167 -238q-18 -15 -22 -97zM748 968v-112l-29 -127v-7h22q48 0 79 224z
M46 715v-120l22 -22v186q-22 -7 -22 -44zM734 618l7 -8h7q101 77 101 142h-14q-23 -9 -101 -134zM538 558h15q89 0 166 82l7 7v30h-7q-65 -57 -181 -111v-8zM509 528h-94v-15h167l14 15v8zM162 521v-37l94 -23h246l14 15v8h-275q-28 37 -58 37h-21zM111 320v-15
q15 -14 15 -75q30 -82 86 -82l95 -45h36v8q-60 68 -181 112l-44 97h-7zM307 193q0 -48 144 -90h29l36 8v7q-7 18 -188 75h-21zM480 193q0 -22 80 -22h181l36 7v15h-297zM719 96h-123l-87 -15v-7q10 -30 65 -30h181q98 9 203 112l15 37h-8q-24 0 -130 -75q-54 -22 -116 -22z
M792 148v-15h7l36 15v15h-7zM471 1668l145 -99q297 -220 297 -290l-23 -15q-57 0 -267 152q-62 69 -99 69q-206 -161 -305 -320l-7 -8h-8l-23 38l-38 -15l-15 31q11 32 137 106q52 156 206 351zM463 1508v-8q32 11 46 38h-15zM654 1462q23 -53 76 -53h8q0 18 -84 53z" />
    <glyph glyph-name="edieresis" unicode="&#xeb;" 
d="M712 1199q67 0 130 -89q102 -57 102 -120v-74q-12 -162 -73 -239q-191 -201 -318 -201q-23 -45 -80 -45h-203l-101 23h-7v-30q0 -102 224 -201h456q198 68 261 208q7 45 22 45h7v-15h7q0 -141 -232 -387q-108 -60 -181 -60h-123q-76 0 -166 60h-94q-246 44 -246 186
q-22 74 -37 238q-19 0 -43 127v52q0 141 159 351q147 149 449 149q0 18 87 22zM647 1154v-15h14l123 -15v15q0 17 -65 30h-58zM480 1095v-15l203 -52v22q0 31 -130 67h-15q-53 0 -58 -22zM162 573v-22h202q333 67 333 223l22 67v127q0 27 -231 82l-44 22
q-282 -171 -282 -499zM712 1072v-7q0 -63 130 -97l7 -7v-8l-29 -171h29q29 15 44 44v45q-36 186 -123 186zM857 1065v-15l50 -60h8v23q-29 52 -58 52zM118 685v-134h15v7q0 272 188 462h-14q-167 -98 -167 -238q-18 -15 -22 -97zM748 968v-112l-29 -127v-7h22q48 0 79 224z
M46 715v-120l22 -22v186q-22 -7 -22 -44zM734 618l7 -8h7q101 77 101 142h-14q-23 -9 -101 -134zM538 558h15q89 0 166 82l7 7v30h-7q-65 -57 -181 -111v-8zM509 528h-94v-15h167l14 15v8zM162 521v-37l94 -23h246l14 15v8h-275q-28 37 -58 37h-21zM111 320v-15
q15 -14 15 -75q30 -82 86 -82l95 -45h36v8q-60 68 -181 112l-44 97h-7zM307 193q0 -48 144 -90h29l36 8v7q-7 18 -188 75h-21zM480 193q0 -22 80 -22h181l36 7v15h-297zM719 96h-123l-87 -15v-7q10 -30 65 -30h181q98 9 203 112l15 37h-8q-24 0 -130 -75q-54 -22 -116 -22z
M792 148v-15h7l36 15v15h-7zM257 1541q39 -39 118 -39q55 -63 55 -118v-16q0 -55 -142 -118q-102 42 -102 134q0 157 71 157zM697 1525h24q96 0 141 -149v-32q0 -62 -63 -62h-55q-66 0 -134 165q0 78 87 78zM265 1415v-23l23 -24h8v24l-24 23h-7z" />
    <glyph glyph-name="igrave" unicode="&#xec;" horiz-adv-x="569" 
d="M309 1033l19 -15h20l26 7q26 0 52 -93v-762q0 -31 -65 -102q0 -46 -46 -46l-26 23l-26 -31h-6l-7 39q0 206 -26 350v132q-33 49 -33 148v272l7 39h6l20 -15zM328 987v-78h7q29 13 45 46v32l-19 7zM263 979l13 -156h13l7 78v86h-20l-6 -8h-7zM341 870l20 -125v-155
q0 -82 26 -234h13v382l-20 163h-13zM217 862v-218l7 -54h13v257l-13 15h-7zM270 699v-47q15 -202 45 -202v15q0 75 -32 234h-13zM263 457v-155h13l7 39v109zM270 255v-70l13 -15v85h-13zM361 216v-85h13v101zM276 154v-47h13v31zM315 107v-7l7 -39h13v62h-7zM293 1845
q51 -29 142 -169q52 -114 133 -195q-40 -63 -80 -63q-116 0 -382 222q-24 0 -98 81v8h44v36q0 45 36 54l71 -18q83 11 134 44zM222 1782v-17q30 0 142 -107l36 -9v27q-88 125 -116 125zM150 1756v-9q0 -23 107 -53h9q0 33 -107 62h-9zM97 1712v-27l275 -204l10 9
q-7 29 -196 159l-62 63h-27zM409 1525v-9q17 -45 61 -45v19l-35 35h-26z" />
    <glyph glyph-name="iacute" unicode="&#xed;" horiz-adv-x="569" 
d="M309 1033l19 -15h20l26 7q26 0 52 -93v-762q0 -31 -65 -102q0 -46 -46 -46l-26 23l-26 -31h-6l-7 39q0 206 -26 350v132q-33 49 -33 148v272l7 39h6l20 -15zM328 987v-78h7q29 13 45 46v32l-19 7zM263 979l13 -156h13l7 78v86h-20l-6 -8h-7zM341 870l20 -125v-155
q0 -82 26 -234h13v382l-20 163h-13zM217 862v-218l7 -54h13v257l-13 15h-7zM270 699v-47q15 -202 45 -202v15q0 75 -32 234h-13zM263 457v-155h13l7 39v109zM270 255v-70l13 -15v85h-13zM361 216v-85h13v101zM276 154v-47h13v31zM315 107v-7l7 -39h13v62h-7zM275 1846
q97 -45 161 -45l54 18q36 -9 36 -54v-36h44v-8q-59 -63 -205 -162q-151 -130 -277 -142q-41 0 -81 62q81 77 152 233zM275 1801l-98 -125v-27q47 0 134 99l45 17v19zM311 1694h9q45 0 108 54v9h-9q-108 -30 -108 -63zM195 1488l9 -9l277 206v27h-27l-250 -206l-9 -9v-9z
M105 1488v-18q45 0 63 45v9h-27z" />
    <glyph glyph-name="icircumflex" unicode="&#xee;" horiz-adv-x="569" 
d="M309 1033l19 -15h20l26 7q26 0 52 -93v-762q0 -31 -65 -102q0 -46 -46 -46l-26 23l-26 -31h-6l-7 39q0 206 -26 350v132q-33 49 -33 148v272l7 39h6l20 -15zM328 987v-78h7q29 13 45 46v32l-19 7zM263 979l13 -156h13l7 78v86h-20l-6 -8h-7zM341 870l20 -125v-155
q0 -82 26 -234h13v382l-20 163h-13zM217 862v-218l7 -54h13v257l-13 15h-7zM270 699v-47q15 -202 45 -202v15q0 75 -32 234h-13zM263 457v-155h13l7 39v109zM270 255v-70l13 -15v85h-13zM361 216v-85h13v101zM276 154v-47h13v31zM315 107v-7l7 -39h13v62h-7zM252 1840
l103 -70q210 -156 210 -205l-16 -11q-40 0 -189 108q-44 48 -70 48q-147 -114 -216 -226l-6 -6h-5l-16 27l-27 -11l-11 22q8 23 97 76q37 110 146 248zM247 1727v-6q22 8 32 27h-11zM382 1694q16 -38 54 -38h5q0 13 -59 38z" />
    <glyph glyph-name="idieresis" unicode="&#xef;" horiz-adv-x="569" 
d="M309 1033l19 -15h20l26 7q26 0 52 -93v-762q0 -31 -65 -102q0 -46 -46 -46l-26 23l-26 -31h-6l-7 39q0 206 -26 350v132q-33 49 -33 148v272l7 39h6l20 -15zM328 987v-78h7q29 13 45 46v32l-19 7zM263 979l13 -156h13l7 78v86h-20l-6 -8h-7zM341 870l20 -125v-155
q0 -82 26 -234h13v382l-20 163h-13zM217 862v-218l7 -54h13v257l-13 15h-7zM270 699v-47q15 -202 45 -202v15q0 75 -32 234h-13zM263 457v-155h13l7 39v109zM270 255v-70l13 -15v85h-13zM361 216v-85h13v101zM276 154v-47h13v31zM315 107v-7l7 -39h13v62h-7zM65 1848
q33 -33 98 -33q46 -52 46 -98v-13q0 -47 -118 -99q-85 35 -85 112q0 131 59 131zM432 1835h20q80 0 118 -125v-26q0 -52 -52 -52h-46q-55 0 -112 137q0 66 72 66zM72 1743v-20l19 -19h7v19l-20 20h-6z" />
    <glyph glyph-name="eth" unicode="&#xf0;" 
 />
    <glyph glyph-name="ntilde" unicode="&#xf1;" 
d="M297 1199q31 -145 52 -145q152 105 256 105h21q60 0 154 -65h20l103 16q103 0 236 -379v-515l-11 -41h-20q-8 41 -31 41v-105l-51 -105h-41l-11 32l31 170q-31 0 -41 145q-65 389 -184 491q-29 12 -103 121h-31q-124 -42 -308 -185l-10 -403l-31 -137l31 -170l-10 -24
h-10q-16 0 -41 73q-79 0 -165 177l-10 32l10 162v282q-92 253 -92 298l10 40h21l20 -104h11v137l10 40h10q72 -48 72 -89h20l72 97l11 8h30zM256 1135l-61 -105l41 -137h10l51 88v16l-20 138h-21zM533 1102q0 -14 93 -40l61 48l-20 16h-103zM841 1062l103 -65q0 -25 51 -48
h10q0 51 -102 129h-31zM708 1022q0 -12 113 -33v25q-20 29 -62 40q-47 -16 -51 -32zM461 1046q-82 -62 -82 -161v-8h11q131 55 184 137v16zM759 973v-16l31 -24h10v16l-31 24h-10zM903 973l-11 -8l123 -298h11q-28 282 -93 282zM851 852v-24l21 -16v16l-10 24h-11zM1046 836
v-8l31 -234v-72l21 -16v217q-25 113 -52 113zM256 740v-17l21 -16v33h-21zM184 353q-41 -47 -41 -73q17 -54 93 -97v49q-24 121 -52 121zM442 1595h41q96 0 221 -166l34 -27h35q69 0 69 55v69l20 21h7l7 -7q32 13 35 27q25 0 48 -96v-7q0 -23 -69 -104q0 -62 -69 -62
q-29 -41 -76 -41q-107 0 -221 159l-76 76h-6q-53 0 -201 -187l-6 -7q-28 4 -28 56q0 78 110 200q86 41 125 41zM435 1561v-14q64 0 158 -62h7v7q-92 69 -124 69h-41zM904 1485v-28l13 14zM676 1326v-14l69 -21l21 7v28h-90z" />
    <glyph glyph-name="ograve" unicode="&#xf2;" 
d="M580 1199h14l244 -65q86 0 86 -49q136 -167 150 -259q65 -48 65 -203q0 -205 -158 -357q-224 -227 -394 -260h-72q-301 32 -301 65q-36 67 -136 187q-29 62 -36 170q-20 0 -29 114q0 218 186 478q110 152 208 163h115zM250 996l7 -8h7q0 36 115 138h57v16h-7
q-134 0 -179 -146zM501 1126l294 -89v8q-97 97 -280 97zM429 1093l-29 -48h7l87 24h57v16zM823 1085v-8q55 -81 101 -81h7q0 36 -108 89zM271 939h7l86 114v16h-7q-48 -42 -86 -130zM235 550v-81q35 -276 244 -276l79 -25h86q157 26 316 219q36 56 36 106v122
q-78 271 -180 316q-41 36 -308 106h-7q-68 -13 -215 -219q-34 -43 -51 -268zM780 1004v-8q0 -15 101 -81l72 -89h7v8q0 88 -180 170zM42 493h14l57 243q94 180 94 220h-8q-104 -84 -157 -374v-89zM307 899h7q29 16 29 48h-7q-29 -16 -29 -48zM988 850v-16l22 -73h14v48
l-28 41h-8zM171 801l-43 -121h14q36 25 36 105v16h-7zM207 720l-15 -251l7 -9h8v122l14 65v73h-14zM1089 704v-73l14 16v57h-14zM142 542v-171q0 -55 115 -122l7 9q-100 154 -100 259v49zM1024 420v-24h15v24h-15zM78 347v-8q0 -41 57 -114h7v16q0 60 -57 106h-7zM228 225
v-16q53 -81 101 -81h129q-77 53 -230 97zM185 209l-7 -8v-8l21 -17h8v9zM228 120q0 -49 43 -49h22v16q-10 33 -65 33zM608 95h-265v-8l21 -24h244q101 19 101 40v9h-22zM556 1778q63 -35 173 -205q63 -139 162 -238q-49 -76 -97 -76q-141 0 -465 270q-29 0 -119 98v10h54v44
q0 54 43 65l87 -22q100 14 162 54zM470 1702v-21q37 0 173 -130l43 -11v33q-107 151 -141 151zM383 1670v-11q0 -28 130 -65h11q0 40 -130 76h-11zM318 1616v-33l335 -248l11 11q-8 36 -238 194l-75 76h-33zM697 1389v-11q21 -54 75 -54v22l-43 43h-32z" />
    <glyph glyph-name="oacute" unicode="&#xf3;" 
d="M580 1199h14l244 -65q86 0 86 -49q136 -167 150 -259q65 -48 65 -203q0 -205 -158 -357q-224 -227 -394 -260h-72q-301 32 -301 65q-36 67 -136 187q-29 62 -36 170q-20 0 -29 114q0 218 186 478q110 152 208 163h115zM250 996l7 -8h7q0 36 115 138h57v16h-7
q-134 0 -179 -146zM501 1126l294 -89v8q-97 97 -280 97zM429 1093l-29 -48h7l87 24h57v16zM823 1085v-8q55 -81 101 -81h7q0 36 -108 89zM271 939h7l86 114v16h-7q-48 -42 -86 -130zM235 550v-81q35 -276 244 -276l79 -25h86q157 26 316 219q36 56 36 106v122
q-78 271 -180 316q-41 36 -308 106h-7q-68 -13 -215 -219q-34 -43 -51 -268zM780 1004v-8q0 -15 101 -81l72 -89h7v8q0 88 -180 170zM42 493h14l57 243q94 180 94 220h-8q-104 -84 -157 -374v-89zM307 899h7q29 16 29 48h-7q-29 -16 -29 -48zM988 850v-16l22 -73h14v48
l-28 41h-8zM171 801l-43 -121h14q36 25 36 105v16h-7zM207 720l-15 -251l7 -9h8v122l14 65v73h-14zM1089 704v-73l14 16v57h-14zM142 542v-171q0 -55 115 -122l7 9q-100 154 -100 259v49zM1024 420v-24h15v24h-15zM78 347v-8q0 -41 57 -114h7v16q0 60 -57 106h-7zM228 225
v-16q53 -81 101 -81h129q-77 53 -230 97zM185 209l-7 -8v-8l21 -17h8v9zM228 120q0 -49 43 -49h22v16q-10 33 -65 33zM608 95h-265v-8l21 -24h244q101 19 101 40v9h-22zM583 1764q111 -51 184 -51l61 20q41 -10 41 -61v-41h51v-10q-68 -72 -235 -184q-172 -149 -316 -163
q-46 0 -92 71q92 88 174 266zM583 1713l-112 -143v-31q54 0 153 113l51 20v21zM624 1590h10q52 0 123 62v10h-10q-123 -34 -123 -72zM491 1356l11 -11l316 235v31h-31l-285 -235l-11 -10v-10zM389 1356v-21q51 0 72 51v11h-31z" />
    <glyph glyph-name="ocircumflex" unicode="&#xf4;" 
d="M580 1199h14l244 -65q86 0 86 -49q136 -167 150 -259q65 -48 65 -203q0 -205 -158 -357q-224 -227 -394 -260h-72q-301 32 -301 65q-36 67 -136 187q-29 62 -36 170q-20 0 -29 114q0 218 186 478q110 152 208 163h115zM250 996l7 -8h7q0 36 115 138h57v16h-7
q-134 0 -179 -146zM501 1126l294 -89v8q-97 97 -280 97zM429 1093l-29 -48h7l87 24h57v16zM823 1085v-8q55 -81 101 -81h7q0 36 -108 89zM271 939h7l86 114v16h-7q-48 -42 -86 -130zM235 550v-81q35 -276 244 -276l79 -25h86q157 26 316 219q36 56 36 106v122
q-78 271 -180 316q-41 36 -308 106h-7q-68 -13 -215 -219q-34 -43 -51 -268zM780 1004v-8q0 -15 101 -81l72 -89h7v8q0 88 -180 170zM42 493h14l57 243q94 180 94 220h-8q-104 -84 -157 -374v-89zM307 899h7q29 16 29 48h-7q-29 -16 -29 -48zM988 850v-16l22 -73h14v48
l-28 41h-8zM171 801l-43 -121h14q36 25 36 105v16h-7zM207 720l-15 -251l7 -9h8v122l14 65v73h-14zM1089 704v-73l14 16v57h-14zM142 542v-171q0 -55 115 -122l7 9q-100 154 -100 259v49zM1024 420v-24h15v24h-15zM78 347v-8q0 -41 57 -114h7v16q0 60 -57 106h-7zM228 225
v-16q53 -81 101 -81h129q-77 53 -230 97zM185 209l-7 -8v-8l21 -17h8v9zM228 120q0 -49 43 -49h22v16q-10 33 -65 33zM608 95h-265v-8l21 -24h244q101 19 101 40v9h-22zM471 1645l145 -99q297 -220 297 -290l-23 -15q-57 0 -267 152q-62 69 -99 69q-206 -161 -305 -320
l-7 -8h-8l-23 38l-38 -15l-15 31q11 32 137 106q52 156 206 351zM463 1485v-8q32 11 46 38h-15zM654 1439q23 -53 76 -53h8q0 18 -84 53z" />
    <glyph glyph-name="otilde" unicode="&#xf5;" 
d="M580 1199h14l244 -65q86 0 86 -49q136 -167 150 -259q65 -48 65 -203q0 -205 -158 -357q-224 -227 -394 -260h-72q-301 32 -301 65q-36 67 -136 187q-29 62 -36 170q-20 0 -29 114q0 218 186 478q110 152 208 163h115zM250 996l7 -8h7q0 36 115 138h57v16h-7
q-134 0 -179 -146zM501 1126l294 -89v8q-97 97 -280 97zM429 1093l-29 -48h7l87 24h57v16zM823 1085v-8q55 -81 101 -81h7q0 36 -108 89zM271 939h7l86 114v16h-7q-48 -42 -86 -130zM235 550v-81q35 -276 244 -276l79 -25h86q157 26 316 219q36 56 36 106v122
q-78 271 -180 316q-41 36 -308 106h-7q-68 -13 -215 -219q-34 -43 -51 -268zM780 1004v-8q0 -15 101 -81l72 -89h7v8q0 88 -180 170zM42 493h14l57 243q94 180 94 220h-8q-104 -84 -157 -374v-89zM307 899h7q29 16 29 48h-7q-29 -16 -29 -48zM988 850v-16l22 -73h14v48
l-28 41h-8zM171 801l-43 -121h14q36 25 36 105v16h-7zM207 720l-15 -251l7 -9h8v122l14 65v73h-14zM1089 704v-73l14 16v57h-14zM142 542v-171q0 -55 115 -122l7 9q-100 154 -100 259v49zM1024 420v-24h15v24h-15zM78 347v-8q0 -41 57 -114h7v16q0 60 -57 106h-7zM228 225
v-16q53 -81 101 -81h129q-77 53 -230 97zM185 209l-7 -8v-8l21 -17h8v9zM228 120q0 -49 43 -49h22v16q-10 33 -65 33zM608 95h-265v-8l21 -24h244q101 19 101 40v9h-22zM442 1595h41q96 0 221 -166l34 -27h35q69 0 69 55v69l20 21h7l7 -7q32 13 35 27q25 0 48 -96v-7
q0 -23 -69 -104q0 -62 -69 -62q-29 -41 -76 -41q-107 0 -221 159l-76 76h-6q-53 0 -201 -187l-6 -7q-28 4 -28 56q0 78 110 200q86 41 125 41zM435 1561v-14q64 0 158 -62h7v7q-92 69 -124 69h-41zM904 1485v-28l13 14zM676 1326v-14l69 -21l21 7v28h-90z" />
    <glyph glyph-name="odieresis" unicode="&#xf6;" 
d="M580 1199h14l244 -65q86 0 86 -49q136 -167 150 -259q65 -48 65 -203q0 -205 -158 -357q-224 -227 -394 -260h-72q-301 32 -301 65q-36 67 -136 187q-29 62 -36 170q-20 0 -29 114q0 218 186 478q110 152 208 163h115zM250 996l7 -8h7q0 36 115 138h57v16h-7
q-134 0 -179 -146zM501 1126l294 -89v8q-97 97 -280 97zM429 1093l-29 -48h7l87 24h57v16zM823 1085v-8q55 -81 101 -81h7q0 36 -108 89zM271 939h7l86 114v16h-7q-48 -42 -86 -130zM235 550v-81q35 -276 244 -276l79 -25h86q157 26 316 219q36 56 36 106v122
q-78 271 -180 316q-41 36 -308 106h-7q-68 -13 -215 -219q-34 -43 -51 -268zM780 1004v-8q0 -15 101 -81l72 -89h7v8q0 88 -180 170zM42 493h14l57 243q94 180 94 220h-8q-104 -84 -157 -374v-89zM307 899h7q29 16 29 48h-7q-29 -16 -29 -48zM988 850v-16l22 -73h14v48
l-28 41h-8zM171 801l-43 -121h14q36 25 36 105v16h-7zM207 720l-15 -251l7 -9h8v122l14 65v73h-14zM1089 704v-73l14 16v57h-14zM142 542v-171q0 -55 115 -122l7 9q-100 154 -100 259v49zM1024 420v-24h15v24h-15zM78 347v-8q0 -41 57 -114h7v16q0 60 -57 106h-7zM228 225
v-16q53 -81 101 -81h129q-77 53 -230 97zM185 209l-7 -8v-8l21 -17h8v9zM228 120q0 -49 43 -49h22v16q-10 33 -65 33zM608 95h-265v-8l21 -24h244q101 19 101 40v9h-22zM264 1549q39 -39 118 -39q55 -63 55 -118v-16q0 -55 -142 -118q-102 42 -102 134q0 157 71 157z
M704 1533h24q96 0 141 -149v-32q0 -62 -63 -62h-55q-66 0 -134 165q0 78 87 78zM272 1423v-23l23 -24h8v24l-24 23h-7z" />
    <glyph glyph-name="divide" unicode="&#xf7;" horiz-adv-x="1124" 
d="M691 1114h11v-35q-93 -14 -93 -47h128l282 59v-24l-12 -12v-11l117 -59v-23q0 -49 -211 -94v-23l188 -24v-23l-59 -12h-82l-223 23h-316q-43 0 -94 59h-257l-59 12v11q0 24 35 24v12q0 39 -35 82q44 70 105 70l200 -12q186 0 375 47zM81 985v-23l35 -35l399 -12h23v23
h-47q-41 0 -82 47h-328zM702 891v-23h94q105 23 105 59h-93zM485 686l38 -13l32 7q91 -14 120 -51q0 -13 38 -13v-12h6l-101 -165l-57 13l-25 -13q-53 0 -114 133l-13 51q0 23 76 63zM618 642v-7l19 -63v-38h6q13 0 25 57q-25 51 -50 51zM434 623v-7q0 -53 51 -101v7
q-19 20 -19 82l-19 19h-13zM498 623l-7 -7v-19h7l12 13zM592 597v-38l-12 -63h6l25 26v63l-12 12h-7zM529 578v-19l19 -19v7l-6 31h-13zM492 1457l38 -13l32 7q91 -14 120 -51q0 -13 38 -13v-12h6l-101 -165l-57 13l-25 -13q-53 0 -114 133l-13 51q0 23 76 63zM625 1413v-7
l19 -63v-38h6q13 0 25 57q-25 51 -50 51zM441 1394v-7q0 -53 51 -101v7q-19 20 -19 82l-19 19h-13zM505 1394l-7 -7v-19h7l12 13zM599 1368v-38l-12 -63h6l25 26v63l-12 12h-7zM536 1349v-19l19 -19v7l-6 31h-13z" />
    <glyph glyph-name="oslash" unicode="&#xf8;" horiz-adv-x="1251" 
d="M999 1199q11 -38 79 -62l8 -7v-16l-32 -100q65 -34 142 -215q48 0 55 -170q0 -194 -173 -338q-246 -215 -434 -247h-79l-197 24h-16q-86 -62 -110 -62l-16 15l24 70q-72 100 -166 184q-32 68 -32 154q-39 41 -39 123q0 208 205 455q121 143 229 154h126l63 15h16
q54 0 221 -54q92 77 126 77zM273 983l8 -7h8q0 34 126 131h63v15h-8q-147 0 -197 -139zM549 1107q202 -62 261 -62l8 8v7q-77 62 -253 62zM470 1076l-31 -46h8l94 23h64v15zM297 930h8l95 107v16h-8q-53 -40 -95 -123zM258 560v-77q0 -88 71 -169h7q76 178 253 362
q38 19 158 300l-198 46q-74 -12 -236 -208q-37 -40 -55 -254zM857 991v-8l24 -23l15 16zM691 753l8 -8h8q158 154 158 185l-24 23h-31q-72 -78 -119 -200zM45 506h15l63 231q103 171 103 208h-8q-115 -79 -173 -354v-85zM336 891h8q32 16 32 46h-8q-32 -15 -32 -46zM967 930
v-23l79 -85h8v8q-34 100 -87 100zM920 891l-237 -415q-122 -180 -126 -262l48 -16h102q172 24 347 208q40 53 40 100v116q-91 269 -174 269zM1086 845v-15l23 -70h16v46l-31 39h-8zM187 799l-48 -116h16q39 24 39 100v16h-7zM226 722l-16 -239l8 -7h8v115l16 62v69h-16z
M1196 706v-69l16 16v53h-16zM455 237v-8h15q71 16 71 100q198 327 198 362q-58 -62 -245 -369q-21 -9 -39 -85zM376 275l16 -15q130 170 213 339v7q-100 -60 -221 -292zM155 552v-161q0 -52 126 -116l8 8q-110 146 -110 246v47zM1125 437v-23h16v23h-16zM84 368v-8
q0 -38 63 -108h8v16q0 56 -63 100h-8zM250 252v-15q15 -31 47 -31v8l8 8v7q-29 23 -55 23zM202 237l-8 -8v-7l24 -16h8v8zM344 214v-23h8l16 15v8h-24zM407 175v-15h48v15l-16 16h-16zM250 152v-15l15 -16h8v16l-15 15h-8zM668 129h-174l-16 -15v-16h190q110 19 110 39v8
h-24z" />
    <glyph glyph-name="ugrave" unicode="&#xf9;" 
d="M73 1199h17q16 0 24 -81q74 -18 74 -122v-149q0 -350 148 -556l32 -14h238q33 0 156 163q90 206 90 461v176l8 68h8q121 -204 205 -665q66 -194 66 -244v-13h-16q-14 0 -33 81h-17l9 -95v-40h-17q-54 99 -115 311h-8q-34 -8 -65 -271q-199 -203 -304 -203q-77 54 -246 95
q-74 100 -188 190q-39 0 -123 325v393q0 122 49 122zM49 752v-136q0 -62 41 -108l-25 244h-16zM123 738l-9 -95v-27q30 -163 74 -163v14q-39 271 -65 271zM893 670v-162h25l8 95q-16 61 -33 67zM836 480l-25 -108v-27h8q38 26 41 54v81h-24zM1024 440v-14q22 -87 41 -95v27
q-11 56 -41 82zM811 209l49 68v27h-8q-41 -40 -41 -95zM303 223v-14q0 -33 90 -67v13q0 41 -74 68h-16zM573 142v-14h66q57 57 57 81v14h-24q-60 0 -99 -81zM450 196v-41l41 -13h9l32 54h-82zM488 1755q63 -35 173 -205q63 -139 162 -238q-49 -76 -97 -76q-141 0 -465 270
q-29 0 -119 98v10h54v44q0 54 43 65l87 -22q100 14 162 54zM402 1679v-21q37 0 173 -130l43 -11v33q-107 151 -141 151zM315 1647v-11q0 -28 130 -65h11q0 40 -130 76h-11zM250 1593v-33l335 -248l11 11q-8 36 -238 194l-75 76h-33zM629 1366v-11q21 -54 75 -54v22l-43 43
h-32z" />
    <glyph glyph-name="uacute" unicode="&#xfa;" 
d="M73 1199h17q16 0 24 -81q74 -18 74 -122v-149q0 -350 148 -556l32 -14h238q33 0 156 163q90 206 90 461v176l8 68h8q121 -204 205 -665q66 -194 66 -244v-13h-16q-14 0 -33 81h-17l9 -95v-40h-17q-54 99 -115 311h-8q-34 -8 -65 -271q-199 -203 -304 -203q-77 54 -246 95
q-74 100 -188 190q-39 0 -123 325v393q0 122 49 122zM49 752v-136q0 -62 41 -108l-25 244h-16zM123 738l-9 -95v-27q30 -163 74 -163v14q-39 271 -65 271zM893 670v-162h25l8 95q-16 61 -33 67zM836 480l-25 -108v-27h8q38 26 41 54v81h-24zM1024 440v-14q22 -87 41 -95v27
q-11 56 -41 82zM811 209l49 68v27h-8q-41 -40 -41 -95zM303 223v-14q0 -33 90 -67v13q0 41 -74 68h-16zM573 142v-14h66q57 57 57 81v14h-24q-60 0 -99 -81zM450 196v-41l41 -13h9l32 54h-82zM530 1718q111 -51 184 -51l61 20q41 -10 41 -61v-41h51v-10q-68 -72 -235 -184
q-172 -149 -316 -163q-46 0 -92 71q92 88 174 266zM530 1667l-112 -143v-31q54 0 153 113l51 20v21zM571 1544h10q52 0 123 62v10h-10q-123 -34 -123 -72zM438 1310l11 -11l316 235v31h-31l-285 -235l-11 -10v-10zM336 1310v-21q51 0 72 51v11h-31z" />
    <glyph glyph-name="ucircumflex" unicode="&#xfb;" 
d="M73 1199h17q16 0 24 -81q74 -18 74 -122v-149q0 -350 148 -556l32 -14h238q33 0 156 163q90 206 90 461v176l8 68h8q121 -204 205 -665q66 -194 66 -244v-13h-16q-14 0 -33 81h-17l9 -95v-40h-17q-54 99 -115 311h-8q-34 -8 -65 -271q-199 -203 -304 -203q-77 54 -246 95
q-74 100 -188 190q-39 0 -123 325v393q0 122 49 122zM49 752v-136q0 -62 41 -108l-25 244h-16zM123 738l-9 -95v-27q30 -163 74 -163v14q-39 271 -65 271zM893 670v-162h25l8 95q-16 61 -33 67zM836 480l-25 -108v-27h8q38 26 41 54v81h-24zM1024 440v-14q22 -87 41 -95v27
q-11 56 -41 82zM811 209l49 68v27h-8q-41 -40 -41 -95zM303 223v-14q0 -33 90 -67v13q0 41 -74 68h-16zM573 142v-14h66q57 57 57 81v14h-24q-60 0 -99 -81zM450 196v-41l41 -13h9l32 54h-82zM434 1713l145 -99q297 -220 297 -290l-23 -15q-57 0 -267 152q-62 69 -99 69
q-206 -161 -305 -320l-7 -8h-8l-23 38l-38 -15l-15 31q11 32 137 106q52 156 206 351zM426 1553v-8q32 11 46 38h-15zM617 1507q23 -53 76 -53h8q0 18 -84 53z" />
    <glyph glyph-name="udieresis" unicode="&#xfc;" 
d="M73 1199h17q16 0 24 -81q74 -18 74 -122v-149q0 -350 148 -556l32 -14h238q33 0 156 163q90 206 90 461v176l8 68h8q121 -204 205 -665q66 -194 66 -244v-13h-16q-14 0 -33 81h-17l9 -95v-40h-17q-54 99 -115 311h-8q-34 -8 -65 -271q-199 -203 -304 -203q-77 54 -246 95
q-74 100 -188 190q-39 0 -123 325v393q0 122 49 122zM49 752v-136q0 -62 41 -108l-25 244h-16zM123 738l-9 -95v-27q30 -163 74 -163v14q-39 271 -65 271zM893 670v-162h25l8 95q-16 61 -33 67zM836 480l-25 -108v-27h8q38 26 41 54v81h-24zM1024 440v-14q22 -87 41 -95v27
q-11 56 -41 82zM811 209l49 68v27h-8q-41 -40 -41 -95zM303 223v-14q0 -33 90 -67v13q0 41 -74 68h-16zM573 142v-14h66q57 57 57 81v14h-24q-60 0 -99 -81zM450 196v-41l41 -13h9l32 54h-82zM227 1496q39 -39 118 -39q55 -63 55 -118v-16q0 -55 -142 -118q-102 42 -102 134
q0 157 71 157zM667 1480h24q96 0 141 -149v-32q0 -62 -63 -62h-55q-66 0 -134 165q0 78 87 78zM235 1370v-23l23 -24h8v24l-24 23h-7z" />
    <glyph glyph-name="yacute" unicode="&#xfd;" horiz-adv-x="1024" 
 />
    <glyph glyph-name="thorn" unicode="&#xfe;" 
 />
    <glyph glyph-name="ydieresis" unicode="&#xff;" horiz-adv-x="1024" 
 />
    <glyph glyph-name="Amacron" unicode="&#x100;" horiz-adv-x="1366" 
 />
    <glyph glyph-name="amacron" unicode="&#x101;" 
 />
    <glyph glyph-name="Abreve" unicode="&#x102;" horiz-adv-x="1366" 
 />
    <glyph glyph-name="abreve" unicode="&#x103;" 
 />
    <glyph glyph-name="Aogonek" unicode="&#x104;" horiz-adv-x="1366" 
 />
    <glyph glyph-name="aogonek" unicode="&#x105;" 
 />
    <glyph glyph-name="Cacute" unicode="&#x106;" horiz-adv-x="1479" 
 />
    <glyph glyph-name="cacute" unicode="&#x107;" horiz-adv-x="1024" 
 />
    <glyph glyph-name="Ccircumflex" unicode="&#x108;" horiz-adv-x="1479" 
 />
    <glyph glyph-name="ccircumflex" unicode="&#x109;" horiz-adv-x="1024" 
 />
    <glyph glyph-name="Cdotaccent" unicode="&#x10a;" horiz-adv-x="1479" 
 />
    <glyph glyph-name="cdotaccent" unicode="&#x10b;" horiz-adv-x="1024" 
 />
    <glyph glyph-name="Ccaron" unicode="&#x10c;" horiz-adv-x="1479" 
 />
    <glyph glyph-name="ccaron" unicode="&#x10d;" horiz-adv-x="1024" 
 />
    <glyph glyph-name="Dcaron" unicode="&#x10e;" horiz-adv-x="1479" 
 />
    <glyph glyph-name="dcaron" unicode="&#x10f;" horiz-adv-x="1259" 
 />
    <glyph glyph-name="Dcroat" unicode="&#x110;" horiz-adv-x="1479" 
 />
    <glyph glyph-name="dcroat" unicode="&#x111;" 
 />
    <glyph glyph-name="Emacron" unicode="&#x112;" horiz-adv-x="1366" 
 />
    <glyph glyph-name="emacron" unicode="&#x113;" 
 />
    <glyph glyph-name="Ebreve" unicode="&#x114;" horiz-adv-x="1366" 
 />
    <glyph glyph-name="ebreve" unicode="&#x115;" 
 />
    <glyph glyph-name="Edotaccent" unicode="&#x116;" horiz-adv-x="1366" 
 />
    <glyph glyph-name="edotaccent" unicode="&#x117;" 
 />
    <glyph glyph-name="Eogonek" unicode="&#x118;" horiz-adv-x="1366" 
 />
    <glyph glyph-name="eogonek" unicode="&#x119;" 
 />
    <glyph glyph-name="Ecaron" unicode="&#x11a;" horiz-adv-x="1366" 
 />
    <glyph glyph-name="ecaron" unicode="&#x11b;" 
 />
    <glyph glyph-name="Gcircumflex" unicode="&#x11c;" horiz-adv-x="1593" 
 />
    <glyph glyph-name="gcircumflex" unicode="&#x11d;" 
 />
    <glyph glyph-name="Gbreve" unicode="&#x11e;" horiz-adv-x="1593" 
 />
    <glyph glyph-name="gbreve" unicode="&#x11f;" 
 />
    <glyph glyph-name="Gdotaccent" unicode="&#x120;" horiz-adv-x="1593" 
 />
    <glyph glyph-name="gdotaccent" unicode="&#x121;" 
 />
    <glyph glyph-name="Gcommaaccent" unicode="&#x122;" horiz-adv-x="1593" 
 />
    <glyph glyph-name="gcommaaccent" unicode="&#x123;" 
 />
    <glyph glyph-name="Hcircumflex" unicode="&#x124;" horiz-adv-x="1479" 
 />
    <glyph glyph-name="hcircumflex" unicode="&#x125;" 
 />
    <glyph glyph-name="Hbar" unicode="&#x126;" horiz-adv-x="1479" 
 />
    <glyph glyph-name="hbar" unicode="&#x127;" 
 />
    <glyph glyph-name="Itilde" unicode="&#x128;" horiz-adv-x="569" 
 />
    <glyph glyph-name="itilde" unicode="&#x129;" horiz-adv-x="569" 
 />
    <glyph glyph-name="Imacron" unicode="&#x12a;" horiz-adv-x="569" 
 />
    <glyph glyph-name="imacron" unicode="&#x12b;" horiz-adv-x="569" 
 />
    <glyph glyph-name="Ibreve" unicode="&#x12c;" horiz-adv-x="569" 
 />
    <glyph glyph-name="ibreve" unicode="&#x12d;" horiz-adv-x="569" 
 />
    <glyph glyph-name="Iogonek" unicode="&#x12e;" horiz-adv-x="569" 
 />
    <glyph glyph-name="iogonek" unicode="&#x12f;" horiz-adv-x="455" 
 />
    <glyph glyph-name="Idotaccent" unicode="&#x130;" horiz-adv-x="569" 
 />
    <glyph glyph-name="dotlessi" unicode="&#x131;" horiz-adv-x="569" 
 />
    <glyph glyph-name="IJ" unicode="&#x132;" horiz-adv-x="1505" 
 />
    <glyph glyph-name="ij" unicode="&#x133;" horiz-adv-x="909" 
 />
    <glyph glyph-name="Jcircumflex" unicode="&#x134;" horiz-adv-x="1024" 
 />
    <glyph glyph-name="jcircumflex" unicode="&#x135;" horiz-adv-x="455" 
 />
    <glyph glyph-name="Kcommaaccent" unicode="&#x136;" horiz-adv-x="1366" 
 />
    <glyph glyph-name="kcommaaccent" unicode="&#x137;" horiz-adv-x="1024" 
 />
    <glyph glyph-name="kgreenlandic" unicode="&#x138;" horiz-adv-x="1024" 
 />
    <glyph glyph-name="Lacute" unicode="&#x139;" 
 />
    <glyph glyph-name="lacute" unicode="&#x13a;" horiz-adv-x="455" 
 />
    <glyph glyph-name="Lcommaaccent" unicode="&#x13b;" 
 />
    <glyph glyph-name="lcommaaccent" unicode="&#x13c;" horiz-adv-x="455" 
 />
    <glyph glyph-name="Lcaron" unicode="&#x13d;" 
 />
    <glyph glyph-name="lcaron" unicode="&#x13e;" horiz-adv-x="597" 
 />
    <glyph glyph-name="Ldot" unicode="&#x13f;" 
 />
    <glyph glyph-name="ldot" unicode="&#x140;" horiz-adv-x="684" 
 />
    <glyph glyph-name="Lslash" unicode="&#x141;" 
 />
    <glyph glyph-name="lslash" unicode="&#x142;" horiz-adv-x="455" 
 />
    <glyph glyph-name="Nacute" unicode="&#x143;" horiz-adv-x="1479" 
 />
    <glyph glyph-name="nacute" unicode="&#x144;" 
 />
    <glyph glyph-name="Ncommaaccent" unicode="&#x145;" horiz-adv-x="1479" 
 />
    <glyph glyph-name="ncommaaccent" unicode="&#x146;" 
 />
    <glyph glyph-name="Ncaron" unicode="&#x147;" horiz-adv-x="1479" 
 />
    <glyph glyph-name="ncaron" unicode="&#x148;" 
 />
    <glyph glyph-name="napostrophe" unicode="&#x149;" horiz-adv-x="1237" 
 />
    <glyph glyph-name="Eng" unicode="&#x14a;" horiz-adv-x="1481" 
 />
    <glyph glyph-name="eng" unicode="&#x14b;" 
 />
    <glyph glyph-name="Omacron" unicode="&#x14c;" horiz-adv-x="1593" 
 />
    <glyph glyph-name="omacron" unicode="&#x14d;" 
 />
    <glyph glyph-name="Obreve" unicode="&#x14e;" horiz-adv-x="1593" 
 />
    <glyph glyph-name="obreve" unicode="&#x14f;" 
 />
    <glyph glyph-name="Ohungarumlaut" unicode="&#x150;" horiz-adv-x="1593" 
 />
    <glyph glyph-name="ohungarumlaut" unicode="&#x151;" 
 />
    <glyph glyph-name="OE" unicode="&#x152;" horiz-adv-x="2048" 
 />
    <glyph glyph-name="oe" unicode="&#x153;" horiz-adv-x="1933" 
 />
    <glyph glyph-name="Racute" unicode="&#x154;" horiz-adv-x="1479" 
 />
    <glyph glyph-name="racute" unicode="&#x155;" horiz-adv-x="682" 
 />
    <glyph glyph-name="Rcommaaccent" unicode="&#x156;" horiz-adv-x="1479" 
 />
    <glyph glyph-name="rcommaaccent" unicode="&#x157;" horiz-adv-x="682" 
 />
    <glyph glyph-name="Rcaron" unicode="&#x158;" horiz-adv-x="1479" 
 />
    <glyph glyph-name="rcaron" unicode="&#x159;" horiz-adv-x="682" 
 />
    <glyph glyph-name="Sacute" unicode="&#x15a;" horiz-adv-x="1366" 
 />
    <glyph glyph-name="sacute" unicode="&#x15b;" horiz-adv-x="1024" 
 />
    <glyph glyph-name="Scircumflex" unicode="&#x15c;" horiz-adv-x="1366" 
 />
    <glyph glyph-name="scircumflex" unicode="&#x15d;" horiz-adv-x="1024" 
 />
    <glyph glyph-name="Scedilla" unicode="&#x15e;" horiz-adv-x="1366" 
 />
    <glyph glyph-name="scedilla" unicode="&#x15f;" horiz-adv-x="1024" 
 />
    <glyph glyph-name="Scaron" unicode="&#x160;" horiz-adv-x="1366" 
 />
    <glyph glyph-name="scaron" unicode="&#x161;" horiz-adv-x="1024" 
 />
    <glyph glyph-name="Tcommaaccent" unicode="&#x162;" horiz-adv-x="1251" 
 />
    <glyph glyph-name="tcommaaccent" unicode="&#x163;" horiz-adv-x="569" 
 />
    <glyph glyph-name="Tcaron" unicode="&#x164;" horiz-adv-x="1251" 
 />
    <glyph glyph-name="tcaron" unicode="&#x165;" horiz-adv-x="768" 
 />
    <glyph glyph-name="Tbar" unicode="&#x166;" horiz-adv-x="1251" 
 />
    <glyph glyph-name="tbar" unicode="&#x167;" horiz-adv-x="569" 
 />
    <glyph glyph-name="Utilde" unicode="&#x168;" horiz-adv-x="1479" 
 />
    <glyph glyph-name="utilde" unicode="&#x169;" 
 />
    <glyph glyph-name="Umacron" unicode="&#x16a;" horiz-adv-x="1479" 
 />
    <glyph glyph-name="umacron" unicode="&#x16b;" 
 />
    <glyph glyph-name="Ubreve" unicode="&#x16c;" horiz-adv-x="1479" 
 />
    <glyph glyph-name="ubreve" unicode="&#x16d;" 
 />
    <glyph glyph-name="Uring" unicode="&#x16e;" horiz-adv-x="1479" 
 />
    <glyph glyph-name="uring" unicode="&#x16f;" 
 />
    <glyph glyph-name="Uhungarumlaut" unicode="&#x170;" horiz-adv-x="1479" 
 />
    <glyph glyph-name="uhungarumlaut" unicode="&#x171;" 
 />
    <glyph glyph-name="Uogonek" unicode="&#x172;" horiz-adv-x="1479" 
 />
    <glyph glyph-name="uogonek" unicode="&#x173;" 
 />
    <glyph glyph-name="Wcircumflex" unicode="&#x174;" horiz-adv-x="1933" 
 />
    <glyph glyph-name="wcircumflex" unicode="&#x175;" horiz-adv-x="1479" 
 />
    <glyph glyph-name="Ycircumflex" unicode="&#x176;" horiz-adv-x="1366" 
 />
    <glyph glyph-name="ycircumflex" unicode="&#x177;" horiz-adv-x="1024" 
 />
    <glyph glyph-name="Ydieresis" unicode="&#x178;" horiz-adv-x="1366" 
 />
    <glyph glyph-name="Zacute" unicode="&#x179;" horiz-adv-x="1251" 
 />
    <glyph glyph-name="zacute" unicode="&#x17a;" horiz-adv-x="1024" 
 />
    <glyph glyph-name="Zdotaccent" unicode="&#x17b;" horiz-adv-x="1251" 
 />
    <glyph glyph-name="zdotaccent" unicode="&#x17c;" horiz-adv-x="1024" 
 />
    <glyph glyph-name="Zcaron" unicode="&#x17d;" horiz-adv-x="1251" 
 />
    <glyph glyph-name="zcaron" unicode="&#x17e;" horiz-adv-x="1024" 
 />
    <glyph glyph-name="longs" unicode="&#x17f;" horiz-adv-x="455" 
 />
    <glyph glyph-name="florin" unicode="&#x192;" 
d="M913 1858q77 0 192 -147v-147l-27 -29q-34 7 -64 78l-9 10h-9q-194 0 -275 -569v-9h27q183 0 183 -59l10 -30q-11 -78 -37 -78h-229q-99 -683 -192 -814q-118 -333 -238 -333h-64q-114 0 -147 236l27 29v9l28 -19l37 19q38 -146 73 -146h18q183 238 183 529
q110 318 110 490h-155l-28 29q21 23 119 30l9 29q-46 0 -46 30l28 19h92q27 0 36 431q214 386 348 412zM629 1025h9q23 1 101 372q21 133 192 295v19l-36 39q-137 0 -220 -509q-46 -129 -46 -216zM996 1741v-49h27v19zM602 1329v-88q34 19 82 284q-82 -73 -82 -196zM602 956
v-29h27v29h-27zM684 937v-10h202v29h-184zM529 398q34 0 91 460v20h-9q-60 -15 -82 -480zM464 427l-73 -382h9q46 77 83 245v137h-19z" />
    <glyph glyph-name="Aringacute" unicode="&#x1fa;" horiz-adv-x="1366" 
 />
    <glyph glyph-name="aringacute" unicode="&#x1fb;" 
 />
    <glyph glyph-name="AEacute" unicode="&#x1fc;" horiz-adv-x="2048" 
 />
    <glyph glyph-name="aeacute" unicode="&#x1fd;" horiz-adv-x="1821" 
 />
    <glyph glyph-name="Oslashacute" unicode="&#x1fe;" horiz-adv-x="1593" 
 />
    <glyph glyph-name="oslashacute" unicode="&#x1ff;" horiz-adv-x="1251" 
 />
    <glyph glyph-name="circumflex" unicode="&#x2c6;" horiz-adv-x="682" 
 />
    <glyph glyph-name="caron" unicode="&#x2c7;" horiz-adv-x="682" 
 />
    <glyph glyph-name="uni02C9" unicode="&#x2c9;" horiz-adv-x="682" 
 />
    <glyph glyph-name="breve" unicode="&#x2d8;" horiz-adv-x="682" 
 />
    <glyph glyph-name="dotaccent" unicode="&#x2d9;" horiz-adv-x="682" 
 />
    <glyph glyph-name="ring" unicode="&#x2da;" horiz-adv-x="682" 
 />
    <glyph glyph-name="ogonek" unicode="&#x2db;" horiz-adv-x="682" 
 />
    <glyph glyph-name="tilde" unicode="&#x2dc;" horiz-adv-x="682" 
 />
    <glyph glyph-name="hungarumlaut" unicode="&#x2dd;" horiz-adv-x="682" 
 />
    <glyph glyph-name="tonos" unicode="&#x384;" horiz-adv-x="682" 
 />
    <glyph glyph-name="dieresistonos" unicode="&#x385;" horiz-adv-x="682" 
 />
    <glyph glyph-name="Alphatonos" unicode="&#x386;" horiz-adv-x="1367" 
 />
    <glyph glyph-name="anoteleia" unicode="&#x387;" horiz-adv-x="569" 
 />
    <glyph glyph-name="Epsilontonos" unicode="&#x388;" horiz-adv-x="1606" 
 />
    <glyph glyph-name="Etatonos" unicode="&#x389;" horiz-adv-x="1716" 
 />
    <glyph glyph-name="Iotatonos" unicode="&#x38a;" horiz-adv-x="786" 
 />
    <glyph glyph-name="Omicrontonos" unicode="&#x38c;" horiz-adv-x="1586" 
 />
    <glyph glyph-name="Upsilontonos" unicode="&#x38e;" horiz-adv-x="1752" 
 />
    <glyph glyph-name="Omegatonos" unicode="&#x38f;" horiz-adv-x="1541" 
 />
    <glyph glyph-name="iotadieresistonos" unicode="&#x390;" horiz-adv-x="455" 
 />
    <glyph glyph-name="Alpha" unicode="&#x391;" horiz-adv-x="1366" 
 />
    <glyph glyph-name="Beta" unicode="&#x392;" horiz-adv-x="1366" 
 />
    <glyph glyph-name="Gamma" unicode="&#x393;" horiz-adv-x="1128" 
 />
    <glyph glyph-name="uni0394" unicode="&#x394;" horiz-adv-x="1368" 
 />
    <glyph glyph-name="Epsilon" unicode="&#x395;" horiz-adv-x="1366" 
 />
    <glyph glyph-name="Zeta" unicode="&#x396;" horiz-adv-x="1251" 
 />
    <glyph glyph-name="Eta" unicode="&#x397;" horiz-adv-x="1479" 
 />
    <glyph glyph-name="Theta" unicode="&#x398;" horiz-adv-x="1593" 
 />
    <glyph glyph-name="Iota" unicode="&#x399;" horiz-adv-x="569" 
 />
    <glyph glyph-name="Kappa" unicode="&#x39a;" horiz-adv-x="1366" 
 />
    <glyph glyph-name="Lambda" unicode="&#x39b;" horiz-adv-x="1368" 
 />
    <glyph glyph-name="Mu" unicode="&#x39c;" horiz-adv-x="1706" 
 />
    <glyph glyph-name="Nu" unicode="&#x39d;" horiz-adv-x="1479" 
 />
    <glyph glyph-name="Xi" unicode="&#x39e;" horiz-adv-x="1331" 
 />
    <glyph glyph-name="Omicron" unicode="&#x39f;" horiz-adv-x="1593" 
 />
    <glyph glyph-name="Pi" unicode="&#x3a0;" horiz-adv-x="1479" 
 />
    <glyph glyph-name="Rho" unicode="&#x3a1;" horiz-adv-x="1366" 
 />
    <glyph glyph-name="Sigma" unicode="&#x3a3;" horiz-adv-x="1266" 
 />
    <glyph glyph-name="Tau" unicode="&#x3a4;" horiz-adv-x="1251" 
 />
    <glyph glyph-name="Upsilon" unicode="&#x3a5;" horiz-adv-x="1366" 
 />
    <glyph glyph-name="Phi" unicode="&#x3a6;" horiz-adv-x="1634" 
 />
    <glyph glyph-name="Chi" unicode="&#x3a7;" horiz-adv-x="1366" 
 />
    <glyph glyph-name="Psi" unicode="&#x3a8;" horiz-adv-x="1711" 
 />
    <glyph glyph-name="uni03A9" unicode="&#x3a9;" horiz-adv-x="1531" 
 />
    <glyph glyph-name="Iotadieresis" unicode="&#x3aa;" horiz-adv-x="569" 
 />
    <glyph glyph-name="Upsilondieresis" unicode="&#x3ab;" horiz-adv-x="1366" 
 />
    <glyph glyph-name="alphatonos" unicode="&#x3ac;" horiz-adv-x="1184" 
 />
    <glyph glyph-name="epsilontonos" unicode="&#x3ad;" horiz-adv-x="913" 
 />
    <glyph glyph-name="etatonos" unicode="&#x3ae;" 
 />
    <glyph glyph-name="iotatonos" unicode="&#x3af;" horiz-adv-x="455" 
 />
    <glyph glyph-name="upsilondieresistonos" unicode="&#x3b0;" horiz-adv-x="1120" 
 />
    <glyph glyph-name="alpha" unicode="&#x3b1;" horiz-adv-x="1184" 
 />
    <glyph glyph-name="beta" unicode="&#x3b2;" horiz-adv-x="1178" 
 />
    <glyph glyph-name="gamma" unicode="&#x3b3;" horiz-adv-x="1024" 
 />
    <glyph glyph-name="delta" unicode="&#x3b4;" horiz-adv-x="1140" 
 />
    <glyph glyph-name="epsilon" unicode="&#x3b5;" horiz-adv-x="913" 
 />
    <glyph glyph-name="zeta" unicode="&#x3b6;" horiz-adv-x="903" 
 />
    <glyph glyph-name="eta" unicode="&#x3b7;" 
 />
    <glyph glyph-name="theta" unicode="&#x3b8;" 
 />
    <glyph glyph-name="iota" unicode="&#x3b9;" horiz-adv-x="455" 
 />
    <glyph glyph-name="kappa" unicode="&#x3ba;" horiz-adv-x="1024" 
 />
    <glyph glyph-name="lambda" unicode="&#x3bb;" horiz-adv-x="1024" 
 />
    <glyph glyph-name="uni03BC" unicode="&#x3bc;" horiz-adv-x="1180" 
 />
    <glyph glyph-name="nu" unicode="&#x3bd;" horiz-adv-x="1024" 
 />
    <glyph glyph-name="xi" unicode="&#x3be;" horiz-adv-x="917" 
 />
    <glyph glyph-name="omicron" unicode="&#x3bf;" 
 />
    <glyph glyph-name="pi" unicode="&#x3c0;" horiz-adv-x="1413" 
 />
    <glyph glyph-name="rho" unicode="&#x3c1;" horiz-adv-x="1165" 
 />
    <glyph glyph-name="sigma1" unicode="&#x3c2;" horiz-adv-x="987" 
 />
    <glyph glyph-name="sigma" unicode="&#x3c3;" horiz-adv-x="1264" 
 />
    <glyph glyph-name="tau" unicode="&#x3c4;" horiz-adv-x="809" 
 />
    </font>
</defs>
</svg>
